<?xml version="1.0" encoding="utf-8"?>
<!-- Generator: Adobe Illustrator 26.0.0, SVG Export Plug-In . SVG Version: 6.00 Build 0)  -->
<svg version="1.1" id="Layer_1" xmlns="http://www.w3.org/2000/svg" xmlns:xlink="http://www.w3.org/1999/xlink" x="0px" y="0px"
	 viewBox="0 0 1263 1051.5" style="enable-background:new 0 0 1263 1051.5;" xml:space="preserve">
<style type="text/css">
	.st0{opacity:0.41;fill:#D5D3D3;enable-background:new    ;}
	.st1{fill:none;stroke:#FFFFFF;stroke-width:1.9456;stroke-miterlimit:10;stroke-dasharray:3.8511,3.8511;}
	.st2{opacity:0.87;fill:#5C6360;enable-background:new    ;}
	.st3{fill:#D5D3D3;}
	.st4{fill:#FEFEFE;}
	.st5{fill:#C1BFBF;}
	.st6{fill:#666C69;}
	.st7{fill:#EDA097;}
	.st8{fill:#8D8989;}
	.st9{fill:#DF5646;}
	.st10{fill:#9A3F8B;}
	.st11{fill:#5C6360;}
	.st12{fill:#FFFFFF;}
	.st13{fill:#F0D8C7;}
	.st14{fill:#F4F3F3;}
	.st15{fill:#E8E7E7;}
	.st16{opacity:0.52;fill:#FDF5F4;enable-background:new    ;}
	.st17{opacity:0.28;fill:#DDA983;enable-background:new    ;}
	.st18{fill:#DDA983;}
	.st19{fill:#E9C7AE;}
	.st20{fill:#E3B898;}
	.st21{fill:none;stroke:#8D8989;stroke-width:1.3362;stroke-linecap:round;stroke-miterlimit:10;}
	.st22{fill:none;stroke:#8D8989;stroke-width:2.6723;stroke-linecap:round;stroke-miterlimit:10;}
	.st23{fill:#E4BA9C;}
	.st24{opacity:0.67;fill:#DF5646;enable-background:new    ;}
	.st25{fill:none;stroke:#E2B696;stroke-width:1.139;stroke-miterlimit:10;}
	.st26{fill:#CFCECE;}
	.st27{opacity:0.57;fill:none;stroke:#FFFFFF;stroke-width:1.1139;stroke-miterlimit:10;enable-background:new    ;}
	.st28{fill:none;stroke:#8D8989;stroke-width:0.8212;stroke-linecap:round;stroke-miterlimit:10;}
	.st29{fill:none;stroke:#DDA983;stroke-width:1.3362;stroke-linecap:round;stroke-miterlimit:10;}
	.st30{fill:#F5F4F4;}
	.st31{fill:#FDF5F4;}
	.st32{fill:none;stroke:#050A00;stroke-miterlimit:10;}
	.st33{opacity:0.54;fill:#FFFFFF;enable-background:new    ;}
	.st34{opacity:0.57;fill:none;stroke:#050A00;stroke-miterlimit:10;enable-background:new    ;}
	.st35{fill:none;stroke:#FEFEFE;stroke-width:2.2387;stroke-linecap:round;stroke-miterlimit:10;}
	.st36{fill:#ADAAAA;}
	.st37{fill:#CCCACA;}
	.st38{opacity:0.68;fill:#8D8989;enable-background:new    ;}
	.st39{opacity:0.42;fill:#FFFFFF;enable-background:new    ;}
	.st40{fill:#E4E3E3;}
	.st41{opacity:0.75;fill:#FFFFFF;enable-background:new    ;}
	.st42{opacity:0.67;}
	.st43{fill:none;stroke:#ADAAAA;stroke-width:2;stroke-miterlimit:10;}
</style>
<g>
	<g>
		<path class="st0" d="M389.6,687.6c-8.4,0-16.8-0.4-25.1-1.1C272.6,679,166,635.1,120.3,555.1c-40-69.9-55.7-160.4-37.5-238.3
			c17.1-73.3,70.2-132.6,144.6-155.1c83.6-25.3,176.1,5.4,258.4-29.2C605.5,82.2,756,122.2,840,218.1c74.4,85,92.4,222,69.1,328.2
			c-11.8,53.7-42.9,105.3-92.3,132.3c-39.3,21.5-86.9,25.7-131.9,20.1c-36.2-4.5-69.5-16.3-104.3-26c-27.9-7.8-50.8-3.7-79.3,1.9
			C464.5,681.9,427.2,687.8,389.6,687.6z"/>
		<path class="st1" d="M410.1,636.4c-6.8,0-13.6-0.3-20.3-0.9c-74.4-6.1-160.6-41.6-197.6-106.3c-32.4-56.5-45.1-129.8-30.4-192.8
			c13.9-59.3,56.8-107.3,117-125.5c67.7-20.5,142.5,4.4,209.1-23.6c96.9-40.8,218.8-8.4,286.7,69.2c60.2,68.8,74.8,179.6,55.9,265.5
			c-9.6,43.4-34.7,85.2-74.7,107.1c-31.8,17.4-70.3,20.8-106.7,16.3c-29.3-3.6-56.2-13.2-84.4-21c-22.6-6.3-41.1-3-64.2,1.6
			C470.8,631.7,440.5,636.5,410.1,636.4z"/>
	</g>
	<g>
		<ellipse class="st2" cx="844.8" cy="920.4" rx="36.2" ry="2.8"/>
		<g>
			<path class="st3" d="M849.4,816.3c0,0-31-21.1-11.1-51.7c19.9-30.6,14.9-41.3,8-49.9c16.9,19.3,13.2,41.2,3.1,55.1
				C839.3,783.8,837.7,802.7,849.4,816.3z"/>
			<g>
				<polygon class="st4" points="874.6,842.4 814.9,842.4 820.7,918.1 868.8,918.1 				"/>
				<rect x="808.6" y="838.5" class="st5" width="72.4" height="8.9"/>
				<path class="st6" d="M866.7,830.5h-44c-4.4,0-7.9,3.5-7.9,7.9v0.1h59.8v-0.1C874.6,834.1,871.1,830.5,866.7,830.5z"/>
				<polygon class="st7" points="871.3,885.5 872.7,867.2 816.8,867.2 818.2,885.5 				"/>
			</g>
			<path class="st3" d="M874.6,838.5L874.6,838.5c0-4.4-3.5-8-7.9-8H845c4.4,0,7.9,3.5,7.9,7.9v0.1h6.3v8.9h-6.7l-5.4,70.7h21.8
				l5.4-70.7h6.7v-8.9H874.6z"/>
		</g>
	</g>
	<g>
		<path class="st8" d="M553.7,367.9c0,0,12.5-39.3-5.8-50.7c-11.6-6-18,1.5-18,1.5s-5.5-27.8-43.2-18.6c-24.4,5.9-32.1-6.6-32.1-6.6
			s-0.2,34.8,16.6,45.2c12.2,10.4,7.5,38.7,7.5,38.7L553.7,367.9z"/>
		<path class="st2" d="M664.8,881.4c0,0,67.9,2,86.8,19.5c19.9,18.4,40.8,47.1-44.9,46.6c-85.8-0.6-161.8-24.2-233.7-16.7
			s-130.9,20.4-148.1,17.5s105.4-61.6,105.4-61.6l227.5,8.4L664.8,881.4z"/>
		<path class="st9" d="M601.3,728.7l-85.6-8.6l-85.6,8.6c0,0-5.1,40.4-21.6,62c107.2,38.5,107.2,38.5,107.2,38.5s0,0,107.2-38.5
			C606.4,769.1,601.3,728.7,601.3,728.7z"/>
		<path class="st9" d="M512.3,828c3.4,1.2,3.4,1.2,3.4,1.2s0,0,3.4-1.2c19.7-45.4,15-96.3,13.8-106.1l-17.2-1.7l-22,2.2
			C493.3,733.2,492.5,782.9,512.3,828z"/>
		<path class="st10" d="M429.7,732c0,0,90,39.7,177,22.5c-3.9-14.1-5.4-25.8-5.4-25.8l-85.6-8.6L447,727L429.7,732L429.7,732z"/>
		<path class="st11" d="M471.2,338.6c12.2,10.4,7.5,38.7,7.5,38.7l15.9-2c16.4-14.6,34.8-33,32.1-39.9
			c-4.7-12.2-18.3-24.3-43.3-25.7c-25-1.4-28.9-16.2-28.9-16.2S454.4,328.3,471.2,338.6z"/>
		<path class="st12" d="M512.6,437.2L441.9,463l-11.7,265.7c0,0,25,11.7,85.6,11.7c0-276.1,0-299.1,0-299.1L512.6,437.2z"/>
		<path class="st12" d="M518.8,437.2l70.7,25.8l11.7,265.7c0,0-25,11.7-85.6,11.7c0-276.1,0-299.1,0-299.1L518.8,437.2z"/>
		<path class="st13" d="M441.9,463l-0.3,0.1c-20.7,7.4-37.2,23.3-45.4,43.6l-75.9,183.8l64.6,7.7l54.7-134L441.9,463z"/>
		<path class="st13" d="M589.6,463l0.3,0.1c20.7,7.4,37.2,23.3,45.4,43.6l75.9,183.8l-64.6,7.7l-54.7-134L589.6,463z"/>
		<path class="st14" d="M664.7,578.1l-29.5-71.4c-8.2-20.4-24.7-36.2-45.4-43.6l-0.3-0.1l2.4,101.2l15.5,37.9
			C628.1,584.9,648.8,579.3,664.7,578.1z"/>
		<path class="st14" d="M366.7,578.1l29.5-71.4c8.2-20.4,24.7-36.2,45.4-43.6l0.3-0.1l-2.4,101.2l-15.5,38
			C403.3,584.9,382.6,579.3,366.7,578.1z"/>
		<path class="st15" d="M594.2,567.7c0,0-1.9-2.7-4.6-7.7l2.4,4.2c0,0-26.9,149.4-98.9,175.6l0,0c6.9,0.4,14.4,0.6,22.6,0.6
			c60.6,0,85.6-11.7,85.6-11.7L594.2,567.7z"/>
		<path class="st16" d="M408.6,548.2c18.2-51.2,19.3-50.8,59.1-60.2c39.9-9.4,32-46.1,32-46.1l-37.2,13.5l-5.7,2.1l-14.9,5.4
			l-0.3,0.1c-20.7,7.4-37.2,23.3-45.4,43.6l-72.8,176.2C354.2,660.3,393,591.8,408.6,548.2z"/>
		<path class="st17" d="M622.9,548.2c-18.2-51.2-19.3-50.8-59.1-60.2c-39.9-9.4-32-46.1-32-46.1l37.2,13.5l5.7,2.1l14.9,5.4l0.3,0.1
			c20.7,7.4,37.2,23.3,45.4,43.6L708,682.9C677.3,660.3,638.4,591.8,622.9,548.2z"/>
		<path class="st13" d="M515.9,470h-0.4c-10.5,0-18.9-8.5-18.9-18.9v-45.2h38.2v45.2C534.9,461.5,526.4,470,515.9,470z"/>
		<path class="st18" d="M534.5,440.7c0.1,0,0.2,0,0.3,0v-34.9H517l-20.4,7.4C496.6,413.2,504.2,440.7,534.5,440.7z"/>
		<path class="st19" d="M560.2,378.7c0,6.8-5.5,12.3-12.3,12.3s-12.3-5.5-12.3-12.3s5.5-12.3,12.3-12.3
			C554.7,366.4,560.2,371.9,560.2,378.7z"/>
		<path class="st20" d="M550.3,390.7c1.8-7.1,2.8-16.2,3.4-22.8c-1.7-0.9-3.7-1.5-5.8-1.5c-6.8,0-12.3,5.5-12.3,12.3
			s5.5,12.3,12.3,12.3C548.8,391,549.6,390.9,550.3,390.7z"/>
		<path class="st19" d="M471.2,378.7c0,6.8,5.5,12.3,12.3,12.3s12.3-5.5,12.3-12.3s-5.5-12.3-12.3-12.3
			C476.7,366.4,471.2,371.9,471.2,378.7z"/>
		<path class="st20" d="M481.1,390.7c-1.8-7.1-2.8-16.2-3.4-22.8c1.7-0.9,3.7-1.5,5.8-1.5c6.8,0,12.3,5.5,12.3,12.3
			s-5.5,12.3-12.3,12.3C482.7,391,481.9,390.9,481.1,390.7z"/>
		<path class="st13" d="M537.3,335.7h-21.6h-21.6l-10.7,23.4l1.8,23.1c1,12.3,8.9,33.7,20.2,38.9c3.3,1.6,6.9,2.6,10.4,2.6
			s7-1,10.4-2.6c11.2-5.2,19.2-26.6,20.2-38.9l1.8-23.1L537.3,335.7z"/>
		<path class="st21" d="M526.8,365.1c0,0,7.3,2,15.5,0"/>
		<path class="st22" d="M524.5,351.8c0,0,10.6-1.8,17,1.9"/>
		<path class="st21" d="M504.6,365.1c0,0-7.3,2-15.5,0"/>
		<path class="st22" d="M507,351.8c0,0-10.6-1.8-17,1.9"/>
		<path class="st16" d="M498.5,385.2c-1.4-23.4-4.4-49.5-4.4-49.5l-10.7,23.4l0.6,7.3c-0.2,0-0.3,0-0.5,0c-6.8,0-12.3,5.5-12.3,12.3
			s5.5,12.3,12.3,12.3c1.1,0,2.1-0.2,3.1-0.4c2.9,11.9,9.8,26.4,18.8,30.6c3.3,1.6,6.9,2.6,10.4,2.6
			C515.7,423.7,499.9,408.6,498.5,385.2z"/>
		<g>
			<path class="st23" d="M589.6,832.6l-244.5-74.2c-32.5-9.8-66.6,9.3-75.2,42.1l-0.3,1.2c-8.8,33.8,13.1,68,47.5,74
				c90.4,15.8,254.2,42.7,340.4,46l36.3,24.2c5.5,3.7,12.8,3.1,17.6-1.5l0.2-0.2c5.7-5.4,6-14.3,0.7-20.1l-5.7-6.1
				c0,0-5.1-24.6-30-35.2c-25-10.5-27.3-36.3-33.2-50.4C637.6,818.5,600.1,811.5,589.6,832.6z"/>
			<path class="st7" d="M269.9,800.5c8.6-32.8,42.7-51.9,75.2-42.1l82.9,25.2c-12.5,15.6-29,47.2-29.5,105.9
				c-30.3-4.9-58.3-9.7-81.4-13.7c-34.4-6-56.3-40.2-47.5-74L269.9,800.5z"/>
			<path class="st24" d="M347.1,852.1c0,10-2.4,19.4-6.6,27.7c-8.2-1.4-16-2.8-23.3-4c-34.4-6-56.3-40.2-47.5-74l0.3-1.2
				c0.8-2.9,1.8-5.8,2.9-8.5c4.1-0.9,8.4-1.3,12.8-1.3C319.6,790.7,347.1,818.2,347.1,852.1z"/>
			<path class="st25" d="M601.3,866.6c0,0-3.5,20.5-37.5,13.2"/>
			<path class="st17" d="M622.9,857.2c0,0-52.1-2.3-162.3-22c-89.3-15.9-115.4-61.6-122.2-78.4c2.2,0.4,4.4,0.9,6.7,1.6l244.5,74.2
				c10.5-21.1,48.1-14.1,53.9,0c5.9,14.1,8.2,39.9,33.2,50.4s30,35.2,30,35.2s-25.7-16.4-41.9-19.9
				C648.6,894.7,622.9,857.2,622.9,857.2z"/>
		</g>
		<path class="st8" d="M634.2,920.4c0,0,44.9,42.9,83.2,25.3c6.4-2.9,8.4-11.1,4.2-16.7c-32.2-43.8-72.9-91.5-88.4-109.4
			c-3.9-4.5-10-6.3-15.7-4.6l-44.1,12.8L634.2,920.4z"/>
		<polygon class="st26" points="573.4,827.7 531.1,814.9 563.1,913.3 634.2,920.4 		"/>
		<path class="st13" d="M441.9,832.6l244.5-74.2c32.5-9.8,66.6,9.3,75.2,42.1l0.3,1.2c8.8,33.8-13.1,68-47.5,74
			c-90.4,15.8-254.2,42.7-340.4,46l-36.3,24.2c-5.5,3.7-12.8,3.1-17.6-1.5l-0.2-0.2c-5.7-5.4-6-14.3-0.7-20.1l5.7-6.1
			c0,0,5.1-24.6,30-35.2c25-10.5,27.3-36.3,33.2-50.4S431.3,811.5,441.9,832.6z"/>
		<path class="st7" d="M761.5,800.5c-8.6-32.8-42.7-51.9-75.2-42.1l-82.9,25.2c12.5,15.6,29,47.2,29.5,105.9
			c30.3-4.9,58.3-9.7,81.4-13.7c34.4-6,56.3-40.2,47.5-74L761.5,800.5z"/>
		<path class="st24" d="M684.4,852.1c0,10,2.4,19.4,6.6,27.7c8.2-1.4,16-2.8,23.3-4c34.4-6,56.3-40.2,47.5-74l-0.3-1.2
			c-0.8-2.9-1.8-5.8-2.9-8.5c-4.1-0.9-8.4-1.3-12.8-1.3C711.9,790.7,684.4,818.2,684.4,852.1z"/>
		<path class="st17" d="M408.6,857.2c0,0,52.1-2.3,162.3-22c89.3-15.9,115.4-61.6,122.2-78.4c-2.2,0.4-4.4,0.9-6.7,1.6l-244.5,74.2
			c-10.5-21.1-48.1-14.1-53.9,0s-8.2,39.9-33.2,50.4s-30,35.2-30,35.2s25.7-16.4,41.9-19.9C382.9,894.7,408.6,857.2,408.6,857.2z"/>
		<path class="st27" d="M354.8,883l-36.6-6.8c-33.2-5.3-55.6-36.6-50-69.8l0.2-1.3c6.2-36.1,42.8-58.4,77.7-47.4l69.2,21.9"/>
		<path class="st12" d="M503.2,384.9c-1.3,0-2.1,1.5-1.3,2.6c3.7,4.7,8.5,7.6,13.9,7.6c5.3,0,10.2-2.9,13.9-7.6c0.8-1,0-2.6-1.3-2.6
			H503.2z"/>
		<path class="st28" d="M519.4,364.6v12.7c0,0-2.9-1.7-7,0"/>
		<rect x="526.8" y="318.7" class="st13" width="3.1" height="19.9"/>
		<g>
			<path class="st13" d="M711.2,690.5l0.1,0.4c7.3,20.3-1.4,42.9-20.6,52.9l-130.5,68.4l-0.6-1.7c-11.5-29.7,0.5-63.4,28.3-79
				l58.8-33.3L711.2,690.5z"/>
			<path class="st17" d="M683.6,732.4c0,4.8,1.2,9.4,3.3,13.3l3.8-2c15.1-7.9,23.7-23.6,23.1-39.9c-0.5,0-1-0.1-1.6-0.1
				C696.4,703.8,683.6,716.6,683.6,732.4z"/>
			<line class="st29" x1="646.6" y1="698.2" x2="683.6" y2="677.2"/>
		</g>
		<g>
			<path class="st13" d="M320.7,690.5l-0.1,0.4c-7.3,20.3,1.5,42.9,20.6,52.9l130.5,68.4l0.6-1.7c11.5-29.7-0.5-63.4-28.3-79
				l-58.8-33.3L320.7,690.5z"/>
			<path class="st17" d="M348.2,732.4c0,4.8-1.2,9.4-3.3,13.3l-3.8-2c-15.1-7.9-23.7-23.6-23.1-39.9c0.5,0,1-0.1,1.6-0.1
				C335.4,703.8,348.2,716.6,348.2,732.4z"/>
			<line class="st29" x1="385.2" y1="698.2" x2="348.2" y2="677.2"/>
		</g>
		<path class="st29" d="M457.1,804.6c0,0,6.6-36.1-14.9-47.7"/>
		<path class="st29" d="M574.3,804.6c0,0-6.6-36.1,14.9-47.7"/>
		<path class="st8" d="M397.3,920.4c0,0-44.9,42.9-83.2,25.3c-6.4-2.9-8.4-11.1-4.2-16.7c32.2-43.8,72.9-91.5,88.4-109.4
			c3.9-4.5,10-6.3,15.7-4.6l44.1,12.8L397.3,920.4z"/>
		<polygon class="st30" points="458.1,827.7 500.3,814.9 468.3,913.3 397.3,920.4 		"/>
		<path class="st17" d="M440.5,854.5c12.5-1.3,28.8-3.3,48.9-6.1l10.9-33.4l-42.2,12.8L440.5,854.5z"/>
		<path class="st31" d="M410.7,890.5l-24.5,37.3c-1.5,2.3-4.3,3.6-7,3.2H379c-5.3-0.7-8-6.8-5-11.2l25.1-37c1.6-2.4,4.5-3.5,7.3-2.8
			h0.1C411.2,881.1,413.4,886.5,410.7,890.5z"/>
		<g>
			<g>
				<polygon class="st3" points="512.4,674.7 362.5,674.7 399.4,806.4 512.4,806.4 625.3,806.4 662.3,674.7 				"/>
				<rect x="399.4" y="806.4" class="st5" width="225.9" height="19.2"/>
				<ellipse class="st6" cx="512.6" cy="750.9" rx="36.7" ry="18.8"/>
				<rect x="362.5" y="666" class="st6" width="299.8" height="8.7"/>
				<rect x="411.9" y="811.9" class="st6" width="22.6" height="7.7"/>
				<rect x="444.6" y="811.9" class="st6" width="22.6" height="7.7"/>
				<line class="st32" x1="625.3" y1="816" x2="487.8" y2="816"/>
				<path class="st33" d="M362.5,674.7l37,131.6H480c47.8-55.4,76.8-131.6,76.8-131.6l-0.1-8.7H362.5V674.7z"/>
			</g>
			<line class="st34" x1="362.5" y1="674.7" x2="662.3" y2="674.7"/>
		</g>
	</g>
	<g>
		<ellipse class="st2" cx="206.7" cy="920.4" rx="54.4" ry="2.8"/>
		<g>
			<g>
				<path class="st6" d="M214.7,893.3l3.6-3.9l-1.8,1.9l1.8-1.9c-0.4-0.4-43.3-43.9,8.5-239.9l-5.1-1.3
					C168.7,848.3,212.8,891.6,214.7,893.3z"/>
				<g>
					<path class="st6" d="M198.7,652.9c19.6,17.8,16.2,38.9,16.2,38.9s-19.7-8.4-24.2-34.5C189.9,652.7,195.2,649.8,198.7,652.9z"/>
					<path class="st6" d="M247.8,665.5c-25.8,6.2-32.9,26.3-32.9,26.3s21.3,2.1,37.8-18.6C255.6,669.6,252.3,664.4,247.8,665.5z"/>
				</g>
				<g>
					<path class="st6" d="M185.2,704.2c21.3,15.8,20,37.1,20,37.1s-20.4-6.4-27.6-31.9C176.4,704.9,181.5,701.4,185.2,704.2z"/>
					<path class="st6" d="M235.4,711.8c-25,8.8-30.1,29.5-30.1,29.5s21.4,0,35.8-22.3C243.5,715.1,239.7,710.2,235.4,711.8z"/>
				</g>
				<g>
					<path class="st6" d="M176.7,749.1c22.4,14.2,22.7,35.5,22.7,35.5s-20.8-4.8-29.8-29.8C168,750.5,172.8,746.6,176.7,749.1z"/>
					<path class="st6" d="M227.3,753c-24.3,10.6-27.8,31.7-27.8,31.7s21.3-1.6,34-24.9C235.7,755.7,231.5,751.1,227.3,753z"/>
				</g>
				<path class="st6" d="M240.7,613.6c0.4,26.5-17.3,38.5-17.3,38.5S216,632,232,610.8C234.8,607.1,240.6,609,240.7,613.6z"/>
			</g>
			<rect x="176.2" y="806.4" class="st7" width="57" height="112.7"/>
			<rect x="210.4" y="806.4" class="st24" width="22.8" height="112.7"/>
		</g>
	</g>
	<g>
		<g>
			<path class="st9" d="M258.2,268.7l-20.5,5.1c-3,0.7-6-1.1-6.7-4l-2-7.9l31.3-7.8l2,7.9C263,264.9,261.1,268,258.2,268.7z"/>
			<path class="st9" d="M334.4,244.2l-177.1,44.1c-3.1,0.8-6.2-1.1-6.9-4.2l-29.2-117.5c-0.8-3.1,1.1-6.2,4.2-6.9l177.1-44.1
				c3.1-0.8,6.2,1.1,6.9,4.2l29.2,117.5C339.3,240.4,337.4,243.5,334.4,244.2z"/>
			<polygon class="st7" points="329.1,223.9 324.2,238.1 167,277.2 153.1,267.7 124.1,151.3 300.2,107.5 			"/>
			
				<rect x="137.3" y="138.9" transform="matrix(0.9704 -0.2413 0.2413 0.9704 -42.6201 49.6696)" class="st12" width="88.4" height="119.9"/>
			
				<rect x="133.5" y="148.7" transform="matrix(0.9704 -0.2413 0.2413 0.9704 -31.3749 45.4312)" class="st3" width="72.6" height="4.2"/>
			
				<rect x="136.8" y="161.7" transform="matrix(0.9704 -0.2414 0.2414 0.9704 -34.4181 46.6328)" class="st3" width="72.6" height="4.2"/>
			
				<rect x="140" y="174.7" transform="matrix(0.9704 -0.2413 0.2413 0.9704 -37.4562 47.7647)" class="st3" width="72.6" height="4.2"/>
			
				<rect x="143.3" y="187.7" transform="matrix(0.9704 -0.2413 0.2413 0.9704 -40.4925 48.9428)" class="st3" width="72.6" height="4.2"/>
			
				<rect x="146.5" y="200.8" transform="matrix(0.9704 -0.2414 0.2414 0.9704 -43.5702 50.1332)" class="st3" width="72.6" height="4.2"/>
			
				<rect x="149.7" y="213.8" transform="matrix(0.9704 -0.2413 0.2413 0.9704 -46.6052 51.2624)" class="st3" width="72.6" height="4.2"/>
			
				<rect x="153" y="226.8" transform="matrix(0.9704 -0.2413 0.2413 0.9704 -49.6415 52.4405)" class="st3" width="72.6" height="4.2"/>
			
				<rect x="156.2" y="239.8" transform="matrix(0.9704 -0.2414 0.2414 0.9704 -52.6996 53.6248)" class="st3" width="72.6" height="4.2"/>
			
				<rect x="227.6" y="116.4" transform="matrix(0.9704 -0.2414 0.2414 0.9704 -34.5267 70.8251)" class="st12" width="88.4" height="119.9"/>
			
				<rect x="223.2" y="126.4" transform="matrix(0.9704 -0.2414 0.2414 0.9704 -23.3404 66.4459)" class="st3" width="72.6" height="4.2"/>
			
				<rect x="226.4" y="139.4" transform="matrix(0.9704 -0.2413 0.2413 0.9704 -26.3858 67.5716)" class="st3" width="72.6" height="4.2"/>
			
				<rect x="229.7" y="152.4" transform="matrix(0.9704 -0.2413 0.2413 0.9704 -29.4221 68.7497)" class="st3" width="72.6" height="4.2"/>
			
				<rect x="232.9" y="165.4" transform="matrix(0.9704 -0.2414 0.2414 0.9704 -32.4698 69.9376)" class="st3" width="72.6" height="4.2"/>
			
				<rect x="236.1" y="178.5" transform="matrix(0.9704 -0.2413 0.2413 0.9704 -35.5348 71.0692)" class="st3" width="72.6" height="4.2"/>
			
				<rect x="239.4" y="191.5" transform="matrix(0.9704 -0.2413 0.2413 0.9704 -38.5711 72.2474)" class="st3" width="72.6" height="4.2"/>
			
				<rect x="242.6" y="204.5" transform="matrix(0.9704 -0.2414 0.2414 0.9704 -41.6219 73.438)" class="st3" width="72.6" height="4.2"/>
			
				<rect x="245.8" y="217.5" transform="matrix(0.9704 -0.2413 0.2413 0.9704 -44.661 74.5582)" class="st3" width="72.6" height="4.2"/>
			<path class="st7" d="M252.8,261.9l-13.6,3.4c-3,0.7-6-1.1-6.7-4l-1.2-5l24.3-6.1l1.2,5C257.6,258.1,255.8,261.1,252.8,261.9z"/>
		</g>
		<g>
			<path class="st7" d="M554,94.5c-7-6.7-15.9-11.3-25.1-14.3c-0.1,0-0.2-0.1-0.4-0.1c-8.3-2.2-17-2.2-25.3,0
				c-0.2,0.1-0.4,0.1-0.4,0.1c-9.2,3.1-18.1,7.6-25.1,14.3c-21,19.9-17.5,56.1,2.9,75.2c5.7,5.4,8.2,12.3,10,19.9
				c0.5,2.3,3.6,26.2,2.5,26.2c10.2,0,22.8,0,22.8,0s12.6,0,22.8,0c-1.1,0,2-23.9,2.5-26.2c1.8-7.6,4.3-14.5,10-19.9
				C571.6,150.6,575,114.4,554,94.5z"/>
			<path class="st16" d="M507.7,189.6c-1.8-7.6-4.3-14.5-10-19.9c-20.4-19.1-23.8-55.2-2.9-75.2c7-6.7,15.9-11.3,25.1-14.3
				c0.1,0,0.2-0.1,0.4-0.1c1.4-0.4,2.7-0.6,4.1-0.9c-7-1.2-14.3-1-21.2,0.9c-0.2,0.1-0.3,0.1-0.4,0.1c-9.2,3.1-18.1,7.6-25.1,14.3
				c-21,19.9-17.5,56.1,2.9,75.2c5.7,5.4,8.2,12.3,10,19.9c0.5,2.3,3.6,26.2,2.5,26.2c5.9,0,12.5,0,17.1,0
				C511.2,215.8,508.2,191.9,507.7,189.6z"/>
			<path class="st35" d="M515.9,215.8V160l9.8-5.7c3.2-1.9,2.6-6.7-1-7.7l-17.9-4.7c-3-0.8-3.4-5-0.5-6.3l9.6-4.3v-18.9"/>
			<path class="st8" d="M543.2,223.5c0,1.7-1.4,3.1-3.1,3.1H490c-1.7,0-3.1-1.4-3.1-3.1l0,0c0-1.7,1.4-3.1,3.1-3.1h50.2
				C541.8,220.4,543.2,221.8,543.2,223.5L543.2,223.5z"/>
			<path class="st8" d="M543.2,232.7c0,1.7-1.4,3.1-3.1,3.1H490c-1.7,0-3.1-1.4-3.1-3.1l0,0c0-1.7,1.4-3.1,3.1-3.1h50.2
				C541.8,229.6,543.2,231,543.2,232.7L543.2,232.7z"/>
			<path class="st8" d="M543.2,241.9c0,1.7-1.4,3.1-3.1,3.1H490c-1.7,0-3.1-1.4-3.1-3.1l0,0c0-1.7,1.4-3.1,3.1-3.1h50.2
				C541.8,238.8,543.2,240.2,543.2,241.9L543.2,241.9z"/>
			<path class="st8" d="M515.1,266.5c9.9,0,17.9-8,17.9-17.9h-35.8C497.1,258.4,505.2,266.5,515.1,266.5z"/>
		</g>
		<g>
			<path class="st36" d="M727.3,278.2v-14.4H721c-1.2-6.9-4-13.1-8-18.5l5.1-5.1L707.9,230l-5.2,5.2c-5.4-3.7-11.6-6.1-18.3-7.1
				v-7.5H670v7.8c-6.4,1.2-12.4,3.9-17.5,7.6l-5.1-5.1L637,241.2l5.2,5.2c-3.8,5.4-6.4,11.6-7.4,18.4h-7.2v14.4h7.3
				c1.2,6.6,3.8,12.7,7.6,17.9l-5.6,5.6l10.2,10.2l5.7-5.7c5.2,3.7,11.3,6.2,17.9,7.3v7.8h14.4v-7.8c6.5-1.1,12.6-3.6,17.8-7.3
				l4.8,4.8l10.2-10.2l-4.7-4.7c4-5.5,6.7-11.9,7.8-18.9L727.3,278.2L727.3,278.2z M677.9,296c-13.6,0-24.5-11-24.5-24.5
				c0-13.6,11-24.5,24.5-24.5c13.6,0,24.5,11,24.5,24.5C702.5,285,691.5,296,677.9,296z"/>
			<path class="st37" d="M784.8,333v-8.3h-3.7c-0.7-4-2.3-7.6-4.6-10.7l2.9-2.9l-5.9-5.9l-3,3c-3.1-2.1-6.7-3.5-10.6-4.1v-4.3h-8.3
				v4.5c-3.7,0.7-7.1,2.2-10.1,4.4l-2.9-2.9l-5.9,5.9l3,3c-2.2,3.1-3.7,6.7-4.3,10.6h-4.1v8.3h4.2c0.7,3.8,2.2,7.3,4.4,10.3
				l-3.3,3.3l5.9,5.9l3.3-3.3c3,2.1,6.5,3.6,10.3,4.2v4.5h8.3V354c3.8-0.6,7.3-2.1,10.3-4.2l2.8,2.8l5.9-5.9l-2.7-2.7
				c2.3-3.2,3.9-6.9,4.5-10.9L784.8,333L784.8,333z M756.4,343.2c-7.8,0-14.2-6.3-14.2-14.2c0-7.8,6.3-14.2,14.2-14.2
				s14.2,6.3,14.2,14.2C770.5,336.9,764.2,343.2,756.4,343.2z"/>
			<g>
				<path class="st5" d="M916,225.2v-29.6h-13.1c-2.5-14.1-8.2-27-16.4-38l10.4-10.4L876,126.3L865.1,137
					c-11-7.5-23.8-12.6-37.7-14.6V107h-29.6v16c-13.2,2.5-25.4,7.9-35.9,15.5L751.4,128l-20.9,21l10.6,10.6
					c-7.8,11-13,23.9-15.2,37.8h-14.7V227h15c2.4,13.6,7.9,26.1,15.7,36.8l-11.6,11.6l20.9,20.9l11.7-11.7
					c10.7,7.6,23.2,12.8,36.7,15v16h29.6v-16c13.4-2.2,25.9-7.4,36.6-14.9l9.8,9.8l20.9-20.9l-9.6-9.6c8.2-11.2,13.8-24.5,16.1-38.8
					H916z M814.5,261.6c-27.8,0-50.4-22.6-50.4-50.4s22.6-50.4,50.4-50.4c27.8,0,50.4,22.6,50.4,50.4S842.4,261.6,814.5,261.6z"/>
				<circle class="st36" cx="813.6" cy="211.3" r="29.6"/>
			</g>
		</g>
		<g>
			<path class="st6" d="M237.6,362.6c-63.5,3.9-112.9,41.9-110.3,85c2.6,43.1,56.2,74.9,119.8,71.1h0.1c6.3-0.4,10.6-6.4,9.1-12.5
				c-0.8-3-1.2-6-1.2-9.2c-0.3-20.6,15.6-38.2,36-40.1c14.9-1.3,28.4,5.6,36.3,17c3.9,5.6,12.1,6,16.3,0.6
				c9.6-12.3,14.6-26.3,13.7-40.9C354.7,390.6,301.1,358.7,237.6,362.6z"/>
			<g>
				<path class="st5" d="M237.1,355.6c-63.5,3.9-112.9,41.9-110.3,85c2.6,43.1,56.2,74.9,119.8,71.1h0.1c6.3-0.4,10.6-6.4,9.1-12.5
					c-0.8-3-1.2-6-1.2-9.2c-0.3-20.6,15.6-38.2,36-40.1c14.9-1.3,28.4,5.6,36.3,17c3.9,5.6,12.1,6,16.3,0.6
					c9.6-12.3,14.6-26.3,13.7-40.9C354.3,383.6,300.7,351.8,237.1,355.6z"/>
				<path class="st7" d="M214.7,477.8c0.5,7.7-5.4,14.2-13,14.7c-7.7,0.5-14.2-5.4-14.7-13c-0.5-7.7,5.4-14.2,13-14.7
					C207.7,464.4,214.2,470.2,214.7,477.8z"/>
				<path class="st7" d="M176.9,451.5c0.5,7.7-5.4,14.2-13,14.7c-7.7,0.5-14.2-5.4-14.7-13c-0.5-7.7,5.4-14.2,13-14.7
					C169.8,438.1,176.4,443.9,176.9,451.5z"/>
				<path class="st7" d="M188,405.6c0.5,7.7-5.4,14.2-13,14.7c-7.7,0.5-14.2-5.4-14.7-13c-0.5-7.7,5.4-14.2,13-14.7
					S187.5,397.9,188,405.6z"/>
				<path class="st7" d="M234.9,380.7c0.5,7.7-5.4,14.2-13,14.7c-7.7,0.5-14.2-5.4-14.7-13c-0.5-7.7,5.4-14.2,13-14.7
					S234.4,373,234.9,380.7z"/>
				<path class="st7" d="M287.7,381.4c0.5,7.7-5.4,14.2-13,14.7c-7.7,0.5-14.2-5.4-14.7-13c-0.5-7.7,5.4-14.2,13-14.7
					C280.7,367.9,287.3,373.7,287.7,381.4z"/>
				<path class="st7" d="M332.3,406.5c0.5,7.7-5.4,14.2-13,14.7c-7.7,0.5-14.2-5.4-14.7-13c-0.5-7.7,5.4-14.2,13-14.7
					C325.3,393,331.9,398.9,332.3,406.5z"/>
			</g>
			<path class="st38" d="M299,363.8l-13.1,27.4c-1.7-0.1-3.4,0.9-4.1,2.6v0.1c-0.9,2.1,0.2,4.6,2.3,5.5l1.2,0.5
				c-0.2-0.1-1.5-0.2-4.1,3.6l0,0l0,0c-0.2,0.2-0.3,0.5-0.5,0.7c0,0,0,0.1-0.1,0.1c-0.2,0.2-0.3,0.5-0.5,0.8c0,0.1-0.1,0.1-0.1,0.2
				c-0.2,0.3-0.3,0.5-0.5,0.8c0,0.1-0.1,0.2-0.1,0.3c-0.2,0.3-0.3,0.5-0.5,0.8c-0.1,0.1-0.1,0.2-0.2,0.4c-0.2,0.3-0.3,0.6-0.5,0.9
				c-0.1,0.1-0.2,0.3-0.2,0.5c-0.2,0.3-0.3,0.6-0.5,0.9c-0.1,0.2-0.2,0.4-0.3,0.6c-0.2,0.3-0.3,0.6-0.5,0.9
				c-0.1,0.2-0.2,0.5-0.3,0.7c-0.2,0.3-0.3,0.6-0.5,1c-0.1,0.3-0.2,0.5-0.4,0.8c-0.2,0.3-0.3,0.7-0.5,1c-0.1,0.3-0.3,0.6-0.4,0.9
				c-0.2,0.3-0.3,0.7-0.5,1.1c-0.2,0.3-0.3,0.7-0.5,1.1s-0.3,0.7-0.5,1.1s-0.3,0.8-0.5,1.2c-0.2,0.4-0.3,0.7-0.5,1.1
				c-0.2,0.5-0.4,0.9-0.6,1.4c-0.2,0.4-0.3,0.8-0.5,1.1c-0.2,0.5-0.4,1.1-0.6,1.6c-0.1,0.4-0.3,0.7-0.4,1.1
				c-0.3,0.7-0.5,1.4-0.8,2.1c-0.1,0.3-0.2,0.6-0.3,0.9c-0.4,1-0.8,2.1-1.1,3.2c-1,2.9-2.3,6.3-3.6,10.2c-0.2,0.4-0.3,0.9-0.5,1.3
				c-0.2,0.6-0.4,1.2-0.6,1.8c-0.2,0.5-0.3,1-0.5,1.5c-0.3,0.8-0.6,1.6-0.8,2.4c-0.1,0.4-0.3,0.7-0.4,1.1c-0.3,0.8-0.6,1.6-0.9,2.4
				c-0.1,0.4-0.3,0.8-0.4,1.3c-0.3,0.8-0.5,1.6-0.8,2.3c-0.2,0.5-0.3,1-0.5,1.5c-0.3,0.9-0.6,1.8-1,2.8c-0.1,0.4-0.2,0.7-0.4,1
				c-0.3,1-0.7,1.9-1,2.9c-0.1,0.4-0.3,0.8-0.4,1.2c-0.3,0.9-0.6,1.8-1,2.7c-0.2,0.5-0.3,0.9-0.5,1.4c-0.3,1-0.7,2-1,2.9
				c-0.1,0.4-0.3,0.8-0.4,1.3c-0.3,1-0.7,1.9-1,2.9c-0.2,0.5-0.3,1-0.5,1.5c-0.3,0.9-0.6,1.8-0.9,2.7c-0.2,0.6-0.4,1.3-0.7,1.9
				c-0.3,0.8-0.5,1.5-0.8,2.3c-0.3,0.7-0.5,1.5-0.8,2.2c-0.3,0.8-0.6,1.6-0.8,2.5c-0.1,0.4-0.3,0.9-0.4,1.3l0,0l0,0
				c-2.3,6.7-4.6,13.5-6.9,20.2c2-0.1,4-0.1,6.1-0.3h0.1c6.3-0.4,10.6-6.4,9.1-12.5c-0.8-3-1.2-6-1.2-9.2
				c-0.3-18,11.9-33.8,28.6-38.7c1.9-4,3.5-7.6,4.9-10.6c14.7-32.3,11.1-35.2,10.6-35.4l1.2,0.5c2.1,0.9,4.6-0.2,5.5-2.3v-0.1
				c0.8-2,0-4.3-1.9-5.3l9.8-28.2C308.8,367.7,304,365.6,299,363.8z M285.4,399.9L285.4,399.9l0.3,0.1L285.4,399.9z"/>
			<path class="st39" d="M185.6,403.4c0.2,3.2-2.2,6-5.4,6.2s-6-2.2-6.2-5.4c-0.2-3.2,2.2-6,5.4-6.2S185.4,400.2,185.6,403.4z"/>
			<path class="st39" d="M232.5,379.1c0.2,3.2-2.2,6-5.4,6.2s-6-2.2-6.2-5.4s2.2-6,5.4-6.2C229.6,373.4,232.3,375.9,232.5,379.1z"/>
			<path class="st39" d="M282.2,377.8c0.2,3.2-2.2,6-5.4,6.2c-3.2,0.2-6-2.2-6.2-5.4s2.2-6,5.4-6.2
				C279.3,372.2,282,374.6,282.2,377.8z"/>
			<path class="st39" d="M171,447.4c0.2,3.2-2.2,6-5.4,6.2s-6-2.2-6.2-5.4c-0.2-3.2,2.2-6,5.4-6.2
				C168.1,441.8,170.8,444.2,171,447.4z"/>
			<path class="st39" d="M212.2,473.8c0.2,3.2-2.2,6-5.4,6.2s-6-2.2-6.2-5.4c-0.2-3.2,2.2-6,5.4-6.2
				C209.2,468.2,212,470.6,212.2,473.8z"/>
			<g>
				<path class="st7" d="M349.8,355.6c0,0,19-10.4,20.2-26.4c-0.1-9.5-4.2-17.2-4.2-17.2l-2.6,9.8c0,0-1.4-15.3-12.4-22.7
					c-10.9-7.4-8.2-5.3-8.2-5.3s9.2,12.2-1,32.4c-10.2,20.2,2.7,27.2,2.7,27.2L349.8,355.6z"/>
				<path class="st9" d="M348.6,349c0,0-3.4-17.6,4.4-27c-10.2,12.9-12.3,23.3-9.7,31.7C348.6,349,348.6,349,348.6,349z"/>
				<path class="st12" d="M339.5,352.5c1.7-3.4,5.7-4.9,9.2-3.5h0.1h0.1c3.5,1.4,5.3,5.3,4.1,8.9l-12.5,38.3l-9.4-3.8l-9.4-3.8
					L339.5,352.5z"/>
				<path class="st40" d="M320.2,397.2l15.9,6.5c2.1,0.9,4.6-0.2,5.5-2.3v-0.1c0.9-2.1-0.2-4.6-2.3-5.5l-15.9-6.5
					c-2.1-0.9-4.6,0.2-5.5,2.3v0.1C317,393.8,318,396.3,320.2,397.2z"/>
				<path class="st8" d="M321.5,397.7l6.7,2.7l6.7,2.7c0,0,5.1,1.2-10.6,35.4c-11.6,25.4-41.5,89.2-58.7,123.3
					c-1.6,3.2-6.4,1.2-5.4-2.2c11.5-36.4,34.7-102.9,44.1-129.2C317,395,321.5,397.7,321.5,397.7z"/>
				<path class="st12" d="M285.9,520.2c-7.4,15.5-14.6,30.3-20.4,41.7c-1.6,3.2-6.4,1.2-5.4-2.2c3.8-12.2,9-27.8,14.5-44.1
					L285.9,520.2z"/>
				<path class="st41" d="M283.5,489.6L283.5,489.6c24.5-30.3,33.7-88.1,33.7-88.3c-2.7,4-6.9,12.2-13,29.1
					C299.7,443.3,291.8,465.7,283.5,489.6z"/>
			</g>
		</g>
		<g>
			<polygon class="st37" points="757.7,418.5 762.1,427.3 771.8,428.7 764.8,435.5 766.4,445.2 757.7,440.6 749.1,445.2 
				750.7,435.5 743.7,428.7 753.4,427.3 			"/>
			<polygon class="st36" points="882.7,406.2 888.7,418.5 902.3,420.4 892.5,430 894.8,443.5 882.7,437.1 870.6,443.5 872.9,430 
				863.1,420.4 876.6,418.5 			"/>
			<polygon class="st37" points="844.8,590.2 848.1,597 855.7,598.1 850.2,603.5 851.5,611 844.8,607.5 838,611 839.3,603.5 
				833.8,598.1 841.4,597 			"/>
			<polygon class="st36" points="724.1,543.8 730.2,556 743.7,558 733.9,567.6 736.2,581.1 724.1,574.7 712,581.1 714.3,567.6 
				704.5,558 718,556 			"/>
			<g>
				<g>
					
						<ellipse transform="matrix(0.7071 -0.7071 0.7071 0.7071 -121.9449 725.8104)" class="st7" cx="815.2" cy="510.1" rx="67.6" ry="67.6"/>
				</g>
				<g class="st42">
					<path class="st9" d="M796.9,575.1c23.9,6.7,48.3-0.4,65-16.4c-11.3,3-23.5,3.2-35.6-0.2c-35.9-10-57-47.3-46.9-83.2
						c3.4-12.1,9.8-22.5,18.3-30.5c-22.3,6-41,23.2-47.7,47.1C740,527.8,761,565.1,796.9,575.1z"/>
				</g>
				<path class="st16" d="M833.2,445c-3.4-0.9-6.7-1.6-10.1-2c-1.8,6.3-2.7,13-2.7,19.8c0,35.2,24.6,64.6,57.6,72
					c0.8-2.1,1.6-4.3,2.2-6.6C890.2,492.3,869.2,455,833.2,445z"/>
				<path class="st43" d="M747.8,504.5c-26.2-10.2-42.5-19.5-41.1-24.4c2.3-8.2,52.6-1.3,112.4,15.4c59.8,16.7,106.4,36.8,104.1,45
					c-1.4,4.9-20,4.4-47.5-0.4"/>
			</g>
		</g>
	</g>
</g>
</svg>
