<?xml version="1.0" encoding="utf-8"?>
<!-- Generator: Adobe Illustrator 26.0.0, SVG Export Plug-In . SVG Version: 6.00 Build 0)  -->
<svg version="1.1" id="Layer_1" xmlns="http://www.w3.org/2000/svg" xmlns:xlink="http://www.w3.org/1999/xlink" x="0px" y="0px"
	 viewBox="0 0 1600 1621.8" style="enable-background:new 0 0 1600 1621.8;" xml:space="preserve">
<style type="text/css">
	.st0{fill:#FF725E;}
	.st1{opacity:0.7;fill:#FFFFFF;enable-background:new    ;}
	.st2{fill:#FFFFFF;}
	.st3{opacity:0.2;enable-background:new    ;}
	.st4{fill:#E4897B;}
	.st5{fill:#263238;}
	.st6{opacity:0.4;fill:#FFFFFF;enable-background:new    ;}
	.st7{fill:#DE5753;}
</style>
<g id="freepik--speech-bubble--inject-6">
	<path class="st0" d="M1180.5,120.3H858.6c-54.7,0-99,44.3-99,99v280.1c0,54.7,44.3,99.2,99,99.2l0,0h94l-22.5,88.5l89.6-88.5h161.4
		c54.7,0,99.2-44.5,99.2-99.2l0,0V219.3c0-54.7-44.3-99-99-99C1180.8,120.3,1180.8,120.3,1180.5,120.3z"/>
	<path class="st1" d="M1180.5,120.3H858.6c-54.7,0-99,44.3-99,99v280.1c0,54.7,44.3,99.2,99,99.2l0,0h94l-22.5,88.5l89.6-88.5h161.4
		c54.7,0,99.2-44.5,99.2-99.2l0,0V219.3c0-54.7-44.3-99-99-99C1180.8,120.3,1180.8,120.3,1180.5,120.3z"/>
	<circle class="st2" cx="1019.4" cy="358.4" r="125.1"/>
	<path class="st0" d="M1019.4,198.7c-88.2,0-159.7,71.5-159.7,159.7s71.5,159.7,159.7,159.7s159.7-71.5,159.7-159.7
		C1179.4,270.1,1108,198.7,1019.4,198.7C1019.7,198.7,1019.7,198.7,1019.4,198.7z M1110.2,310.5L1014,424.1
		c-2.7,3.3-6.9,5.2-11.3,5.2s-8.5-1.9-11.3-5.2l-62.7-73.9c-5.5-6-4.9-15.4,1.1-20.6c6-5.5,15.4-4.9,20.6,1.1
		c0.3,0.3,0.5,0.5,0.5,0.8l51.4,60.7l84.9-100.1c5.5-6,14.8-6.6,20.6-1.1C1114.3,296,1115.1,304.5,1110.2,310.5z"/>
</g>
<g id="freepik--Character--inject-6">
	<path class="st0" d="M385.5,675.2c11.7-50.9,16.1-135.1,16.1-135.1s179.7-8.5,181.9,20.4c2.2,28.9-16.7,239.6-16.7,239.6
		C449,768,371.2,777.8,371.2,777.8C365.2,767.9,373.8,726.1,385.5,675.2z"/>
	<path class="st3" d="M385.5,675.2c11.7-50.9,16.1-135.1,16.1-135.1s179.7-8.5,181.9,20.4c2.2,28.9-16.7,239.6-16.7,239.6
		C449,768,371.2,777.8,371.2,777.8C365.2,767.9,373.8,726.1,385.5,675.2z"/>
	<polygon class="st4" points="617.6,1434.5 612.2,1399.2 580.5,1408.1 584.6,1434.5 592.1,1483.8 623.8,1474.9 	"/>
	<polygon class="st4" points="441.1,1434.5 441,1400.9 408.2,1405.2 408.5,1434.5 408.7,1481.9 441.4,1477.6 	"/>
	<polygon class="st3" points="408.2,1405.2 408.5,1434.5 441.1,1434.5 441,1400.9 	"/>
	<polygon class="st3" points="612.2,1399.2 580.5,1408.1 584.6,1434.5 617.6,1434.5 	"/>
	<path class="st4" d="M759.1,596.1c2.6,14.9,31.3,8.3,31.3,8.3l5.7-36l-31.6,9.3L759.1,596.1z"/>
	<polygon class="st4" points="796.1,568.4 790.4,604.4 812.1,606.1 827.5,576.8 	"/>
	<polygon class="st4" points="730.6,611.9 777.6,600.5 772.9,575.4 721.2,586.9 	"/>
	<path class="st0" d="M587.9,508.1c12.6,6.3,64.8,81.9,69.9,81.9c6.7,0,92.4-11.4,92.4-11.4l9.5,37.4c0,0-92,27.1-117.4,20.6
		c-8.9-2.2-22.4-13.6-35.7-26.5c-16.5-15.8-32.2-34.3-38.8-42l-3.1-3.6L587.9,508.1z"/>
	<path class="st3" d="M576.9,540.5c1.5,1.1,2.8,2.5,4,3.9c12.6,15.1,22.2,39.2,25.6,65.5c-16.5-15.8-32.2-34.3-38.8-42L576.9,540.5z
		"/>
	<path class="st5" d="M631.1,1472.6c21.8,14.3,38.5,13.1,64.2,19.5c5.7,1.4,1.3,14.9-12.1,14.5c-22.4-0.4-34.5,0.6-53.7,0
		c-16.3-0.3-35.2-0.3-48.1-0.3c-0.4,0-0.7,0-1.1-0.1c-2.5-0.7-4-3.3-3.5-5.8l7.6-29c0.3-1.3,1.5-2.2,2.9-2.1l36,1
		C626.1,1470.1,628.9,1471,631.1,1472.6z"/>
	<path class="st0" d="M625.8,1473.8c0-0.3,0.1-0.6,0.4-0.7c1.5-0.7,15-7.1,19-4.7c0.7,0.4,1.3,1.3,1.3,2.1c0.1,1.4-0.6,2.8-1.7,3.8
		c-3.8,3.1-13.2,1.5-18.3,0.4l0,0C626.1,1474.5,626,1474.2,625.8,1473.8z M644.3,1469.7c-2.5-1-9.7,1.7-15,3.8
		c7.2,1.4,12.6,1.3,14.7-0.6c0.7-0.6,1.1-1.5,1-2.5c0-0.4-0.1-0.7-0.6-0.8h-0.1V1469.7z"/>
	<path class="st0" d="M626.3,1474.5c-0.3-0.1-0.3-0.4-0.3-0.7c0.1-0.4,1.1-9.2,5.6-12.5c1.3-1,2.9-1.4,4.4-1.3
		c2.1,0.3,2.9,1.4,2.9,2.2c0.4,3.8-7.6,10.6-11.8,12.2h-0.6H626.3z M635.7,1461.6c-1.1-0.1-2.4,0.1-3.2,0.8c-2.6,2.8-4.3,6.3-4.7,10
		c4.2-2.4,9.7-7.8,9.5-10c0-0.1,0-0.6-0.7-0.7C636.3,1461.7,636,1461.6,635.7,1461.6z"/>
	<path class="st5" d="M447.9,1472.6c21.8,14.3,38.5,13.1,64.1,19.5c5.7,1.4,1.3,14.9-12.1,14.5c-22.4-0.4-34.5,0.6-53.7,0
		c-16.4-0.3-35.2-0.3-48.2-0.3c-0.4,0-0.8,0-1.1-0.1c-2.5-0.7-4-3.3-3.3-5.8l7.5-29c0.4-1.3,1.5-2.2,2.9-2.1l36,1
		C442.9,1470.1,445.6,1471,447.9,1472.6z"/>
	<path class="st0" d="M442.6,1473.8c0-0.3,0.1-0.7,0.4-0.7c1.5-0.7,15-7.1,18.9-4.7c0.7,0.4,1.3,1.3,1.3,2.1
		c0.1,1.4-0.6,2.8-1.7,3.8c-3.8,3.1-13.2,1.5-18.3,0.4l0,0C442.9,1474.5,442.6,1474.2,442.6,1473.8z M461,1469.7
		c-2.5-1-9.7,1.7-15,3.8c7.2,1.4,12.6,1.3,14.7-0.6c0.7-0.6,1.1-1.5,1-2.5c0-0.3-0.1-0.7-0.4-0.8H461V1469.7z"/>
	<path class="st0" d="M442.9,1474.5c-0.3-0.1-0.4-0.4-0.3-0.7c0.6-4.6,2.5-9,5.6-12.5c1.3-1,2.9-1.4,4.4-1.3
		c2.1,0.3,2.8,1.4,2.8,2.2c0.6,3.8-7.6,10.6-11.7,12.2h-0.6H442.9z M452.5,1461.6c-1.1-0.1-2.4,0.1-3.2,0.8c-2.5,2.8-4.2,6.3-4.7,10
		c4.2-2.4,9.7-7.8,9.5-10c0-0.1,0-0.6-0.7-0.7L452.5,1461.6z"/>
	<path class="st5" d="M544.7,782.1v28.8c0,0,35.4,227.7,75.6,609.2l-61.4,4.4L468.4,932l-24.6,492.4h-57.4
		c0,0-29.7-590.8-12.4-665.9L544.7,782.1z"/>
	<path class="st6" d="M544.8,810.8v-28.8L374,758.6c-17.4,75.1,12.4,665.9,12.4,665.9h57.4L468.4,932l19.3,104.8l71.2,387.6
		l61.4-4.4C580.1,1038.5,544.8,810.8,544.8,810.8z"/>
	<path class="st5" d="M449.3,480c4.6,0.3,9.5,0.6,13.9,1c24.3,1.9,48.6,5.3,72.6,10c2.9,0.7,5.8,1.4,8.6,2.1
		c13.3,3.6,26.4,8.1,39.2,13.3c0,0,23.5,101.2-38.8,275.5L374,758.4c1.4-13.1,10.7-50.6,19-100.6c3.5-21.3,6.8-44.9,9.3-69.9
		c3.6-35.7,4.4-71.7,2.8-107.7C405,480.3,426,478.9,449.3,480z"/>
	<path class="st4" d="M530.6,449.6c-8.9,16.7-11.7,31.6,0,40.2c0,0,1.4,20-18.9,18.2c-26.8-2.4-39.2-26-39.2-26
		c19.9-11.4,22.4-56.3,23.6-80.2L530.6,449.6z"/>
	<path class="st3" d="M506.6,433.6c-1.5,10.3,9.2,24.3,18.6,28.1c1.4-4.2,3.2-8.2,5.4-12.1l-20.3-28.2
		C508.4,425.1,507.1,429.3,506.6,433.6z"/>
	<path class="st5" d="M567.9,383.4c17.2,8.2,19.5-17.2,15.6-29.6C576.8,332.4,550.6,375.1,567.9,383.4z"/>
	<path class="st4" d="M499.4,351.8c11.7-21.4,38.4-29.3,59.8-17.7c29.5,16.1,28.2,63.5,17.9,91.2c-11.4,30.7-52.4,40.9-73.5,13.8
		c-13.9-18.1-11.4-36.6-9.5-68.4C494.5,364,496.3,357.6,499.4,351.8z"/>
	<path class="st5" d="M511,351.1c0,0,1.8,29.7-13.6,42.1c-28.2-16-38.1-48.6-17.1-59.1c-1.7-19.5,36.1-16.5,36.1-16.5v35.7
		C514.5,352.6,512.7,351.9,511,351.1z"/>
	<path class="st4" d="M478.4,390c1.1-7.5,8.2-12.6,15.7-11.5c10.3,1.8,14.5,15.8,14.3,24.9c-0.3,10-8.1,17.2-17,11.4
		c-6.7-4.4-11.3-11.4-12.8-19.3C478.2,393.6,478.1,391.8,478.4,390z"/>
	<path class="st5" d="M544.8,380.4c1.7,0.1,2.8,2.2,2.5,5s-1.9,4.6-3.6,4.4c-1.7-0.1-2.8-2.4-2.5-5
		C541.5,382.1,543.1,380.1,544.8,380.4z"/>
	<path class="st5" d="M574,383.6c1.7,0.1,2.8,2.2,2.5,5c-0.3,2.8-1.9,4.6-3.6,4.4c-1.7-0.1-2.8-2.4-2.5-5
		C570.8,385.5,572.3,383.4,574,383.6z"/>
	<path class="st7" d="M558.3,411.7c4,1.5,8.6,1.4,12.5-0.7c-4.3-7.1-7.6-14.7-10-22.7L558.3,411.7z"/>
	<path class="st5" d="M529.5,409.9L529.5,409.9c-0.1-0.4,0-0.8,0.4-1l0,0c0.4-0.1,0.8,0,1,0.4c3.3,5.6,9.2,9.2,15.7,9.9l0,0
		c0.4,0,0.7,0.3,0.7,0.7s-0.3,0.7-0.7,0.7c-1.1-0.1-2.2-0.3-3.3-0.7C537.6,418.7,532.6,415,529.5,409.9z"/>
	<path class="st5" d="M532.6,374L532.6,374c-0.6-0.7-0.6-1.5,0-2.1c3.3-3.6,8.2-5.4,13.1-4.9l0,0c0.8,0.1,1.4,1,1.3,1.8
		c0,0,0,0,0,0.1c-0.1,0.8-1,1.3-1.8,1.1c-3.9-0.4-7.6,1.1-10.3,4c-0.4,0.4-1,0.6-1.5,0.4C533,374.3,532.9,374.1,532.6,374z"/>
	<path class="st5" d="M583.2,378.6c-1.1-3.8-4-6.7-7.8-7.8c-0.8-0.3-1.3-1-1.1-1.8c0.3-0.8,1-1.3,1.8-1.1c4.7,1.4,8.3,5,9.9,9.7
		c0.3,0.8-0.1,1.7-1,1.9c-0.3,0.1-0.6,0.1-0.8,0C583.7,379.3,583.3,379,583.2,378.6z"/>
	<path class="st5" d="M497.8,310.3c30.6-14.3,69.2,1.4,69.2,1.4c-4.4,0-8.8,0.8-13.1,2.2c55.3,10,38.6,44.9,38.6,44.9
		c-2.2-10.8-8.9-13.3-8.9-13.3c0.8,5.6-2.1,11-7.1,13.3c-3.1-10.1-18.2-13.3-18.2-13.3c2.9,4.3,2.2,10-1.8,13.3
		c-4.2-8.1-24.5-13.3-24.5-13.3c-10.1,12.9-32.5,21.1-32.5,21.1C472.5,352.2,467.1,324.5,497.8,310.3z"/>
	<path class="st0" d="M361.8,767.9c1.1-20.6,3.3-54.1,6.5-92c2.1-23.5,4.4-48.6,7.4-73.2c2.1-18.1,4.4-36,7.1-52.7
		c3.2-22,7.8-43.8,13.8-65.2l21.7-7.4l28.1,7.4v106.5c-9.7,49.9-31.8,204.5-31.8,204.5l-53.7-7.1
		C360.8,788.6,361.2,780.8,361.8,767.9z"/>
	<path class="st0" d="M459.9,469.2c-2.5-3.6-13.6,4.2-13.6,4.2s-18.1-10.7-22.8-8.9c-4.7,1.8-5.3,12.9-5.3,12.9
		c23.5,38.8,28.1,114,28.1,114C468.4,496.6,462.4,472.8,459.9,469.2z"/>
	<path class="st1" d="M459.9,469.2c-2.5-3.6-13.6,4.2-13.6,4.2s-18.1-10.7-22.8-8.9c-4.7,1.8-5.3,12.9-5.3,12.9
		c23.5,38.8,28.1,114,28.1,114C468.4,496.6,462.4,472.8,459.9,469.2z"/>
	<path class="st0" d="M587.8,508.1l-28.1-9.6l-15.4-5.3c1.3,1.1,17.9,20.6,22.4,127.2c0.3,5.6,0.7,11.4,0.7,17.5
		c3.6,125.9-5.3,175.8-5.3,175.8l6.1-4.4C568.2,809.2,596.2,599,587.8,508.1z"/>
	<path class="st0" d="M535.8,491c4.4-13.5,19.6-1.3,19.6-1.3s16.5-11.3,21.1,14c4.6,25.2-10.8,98.3-10.8,98.3
		C556.6,505.6,535.8,491,535.8,491z"/>
	<path class="st1" d="M535.8,491c4.4-13.5,19.6-1.3,19.6-1.3s16.5-11.3,21.1,14c4.6,25.2-10.8,98.3-10.8,98.3
		C556.6,505.6,535.8,491,535.8,491z"/>
	<path class="st3" d="M382.9,549.8c8.9,2.9,17.4,5.8,18.8,6.4c0,0-3.1,33.5-25.9,46.3C377.9,584.4,380.2,566.5,382.9,549.8z"/>
	<path class="st3" d="M472.1,876.6l-3.8,55.5l19.3,104.8C498.5,972.8,472.1,876.6,472.1,876.6z"/>
	<path class="st3" d="M368.4,675.7c1.8,9.9,4.4,19.5,8.1,28.8c5.1-1,10.6,0,15,2.8l-2.8,58.5c0,0-12.4,1-26.8,1.9
		C363,747.3,365.2,713.7,368.4,675.7z"/>
	<polygon class="st4" points="336.6,693 362.9,733.4 385,720.8 357,675.7 	"/>
	<path class="st0" d="M410.7,519.5c-0.4,14.2-3.1,28.1-7.9,41.4c0,0-64.5,57.5-62.8,71.9c1.8,14.3,36.1,67,36.1,67l-33.8,19.9
		c0,0-50.6-57.3-47.1-90.3c3.5-33.1,83.7-143.2,102.6-145.2C397.8,484.1,411.7,495.3,410.7,519.5z"/>
	<path class="st0" d="M401.6,777.8c0,0-21.4,0-30-4.2c-8.6-4.2-20.7-41.8-20.7-41.8c11.7-18.2,40.4-24.3,40.4-24.3
		C403,735.6,401.6,777.8,401.6,777.8z"/>
</g>
</svg>
