<?xml version="1.0" encoding="utf-8"?>
<!-- Generator: Adobe Illustrator 26.0.1, SVG Export Plug-In . SVG Version: 6.00 Build 0)  -->
<svg version="1.1" id="Layer_1" xmlns="http://www.w3.org/2000/svg" xmlns:xlink="http://www.w3.org/1999/xlink" x="0px" y="0px"
	 viewBox="0 0 1263 1051.5" style="enable-background:new 0 0 1263 1051.5;" xml:space="preserve">
<style type="text/css">
	.st0{opacity:0.41;fill:#D5D3D3;enable-background:new    ;}
	.st1{fill:none;stroke:#FFFFFF;stroke-width:1.9456;stroke-miterlimit:10;stroke-dasharray:3.8511,3.8511;}
	.st2{opacity:0.87;fill:#5C6360;enable-background:new    ;}
	.st3{fill:#D5D3D3;}
	.st4{fill:#FEFEFE;}
	.st5{fill:#C1BFBF;}
	.st6{fill:#666C69;}
	.st7{fill:#EDA097;}
	.st8{fill:#8D8989;}
	.st9{fill:#DF5646;}
	.st10{fill:#9A3F8B;}
	.st11{fill:#5C6360;}
	.st12{fill:#FFFFFF;}
	.st13{fill:#F0D8C7;}
	.st14{fill:#F4F3F3;}
	.st15{fill:#E8E7E7;}
	.st16{opacity:0.52;fill:#FDF5F4;enable-background:new    ;}
	.st17{opacity:0.28;fill:#DDA983;enable-background:new    ;}
	.st18{fill:#DDA983;}
	.st19{fill:#E9C7AE;}
	.st20{fill:#E3B898;}
	.st21{fill:none;stroke:#8D8989;stroke-width:1.3362;stroke-linecap:round;stroke-miterlimit:10;}
	.st22{fill:none;stroke:#8D8989;stroke-width:2.6723;stroke-linecap:round;stroke-miterlimit:10;}
	.st23{fill:#E4BA9C;}
	.st24{opacity:0.67;fill:#DF5646;enable-background:new    ;}
	.st25{fill:none;stroke:#E2B696;stroke-width:1.139;stroke-miterlimit:10;}
	.st26{fill:#CFCECE;}
	.st27{opacity:0.57;fill:none;stroke:#FFFFFF;stroke-width:1.1139;stroke-miterlimit:10;enable-background:new    ;}
	.st28{fill:none;stroke:#8D8989;stroke-width:0.8212;stroke-linecap:round;stroke-miterlimit:10;}
	.st29{fill:none;stroke:#DDA983;stroke-width:1.3362;stroke-linecap:round;stroke-miterlimit:10;}
	.st30{fill:#F5F4F4;}
	.st31{fill:#FDF5F4;}
	.st32{fill:none;stroke:#050A00;stroke-miterlimit:10;}
	.st33{opacity:0.54;fill:#FFFFFF;enable-background:new    ;}
	.st34{opacity:0.57;fill:none;stroke:#050A00;stroke-miterlimit:10;enable-background:new    ;}
	.st35{fill:none;stroke:#FEFEFE;stroke-width:2.2387;stroke-linecap:round;stroke-miterlimit:10;}
	.st36{fill:#ADAAAA;}
	.st37{fill:#CCCACA;}
	.st38{opacity:0.68;fill:#8D8989;enable-background:new    ;}
	.st39{opacity:0.42;fill:#FFFFFF;enable-background:new    ;}
	.st40{fill:#E4E3E3;}
	.st41{opacity:0.75;fill:#FFFFFF;enable-background:new    ;}
	.st42{opacity:0.67;}
	.st43{fill:none;stroke:#ADAAAA;stroke-width:2;stroke-miterlimit:10;}
</style>
<g>
	<g>
		<path class="st0" d="M656.7,692.4c-8.4,0-16.8-0.4-25.1-1.1c-91.9-7.5-198.5-51.4-244.2-131.4c-40-69.9-55.7-160.4-37.5-238.3
			C367,248.3,420.1,189,494.5,166.5c83.6-25.3,176.1,5.4,258.4-29.2c119.7-50.3,270.2-10.3,354.2,85.6c74.4,85,92.4,222,69.1,328.2
			c-11.8,53.7-42.9,105.3-92.3,132.3c-39.3,21.5-86.9,25.7-131.9,20.1c-36.2-4.5-69.5-16.3-104.3-26c-27.9-7.8-50.8-3.7-79.3,1.9
			C731.6,686.7,694.3,692.6,656.7,692.4z"/>
		<path class="st1" d="M677.2,641.2c-6.8,0-13.6-0.3-20.3-0.9c-74.4-6.1-160.6-41.6-197.6-106.3c-32.4-56.5-45.1-129.8-30.4-192.8
			c13.9-59.3,56.8-107.3,117-125.5c67.7-20.5,142.5,4.4,209.1-23.6c96.9-40.8,218.8-8.4,286.7,69.2c60.2,68.8,74.8,179.6,55.9,265.5
			c-9.6,43.4-34.7,85.2-74.7,107.1c-31.8,17.4-70.3,20.8-106.7,16.3c-29.3-3.6-56.2-13.2-84.4-21c-22.6-6.3-41.1-3-64.2,1.6
			C737.9,636.5,707.6,641.3,677.2,641.2z"/>
	</g>
	<g>
		<ellipse class="st2" cx="1111.9" cy="925.2" rx="36.2" ry="2.8"/>
		<g>
			<path class="st3" d="M1116.5,821.1c0,0-31-21.1-11.1-51.7c19.9-30.6,14.9-41.3,8-49.9c16.9,19.3,13.2,41.2,3.1,55.1
				C1106.4,788.6,1104.8,807.5,1116.5,821.1z"/>
			<g>
				<polygon class="st4" points="1141.7,847.2 1082,847.2 1087.8,922.9 1135.9,922.9 				"/>
				<rect x="1075.7" y="843.3" class="st5" width="72.4" height="8.9"/>
				<path class="st6" d="M1133.8,835.3h-44c-4.4,0-7.9,3.5-7.9,7.9v0.1h59.8v-0.1C1141.7,838.9,1138.2,835.3,1133.8,835.3z"/>
				<polygon class="st7" points="1138.4,890.3 1139.8,872 1083.9,872 1085.3,890.3 				"/>
			</g>
			<path class="st3" d="M1141.7,843.3L1141.7,843.3c0-4.4-3.5-8-7.9-8h-21.7c4.4,0,7.9,3.5,7.9,7.9v0.1h6.3v8.9h-6.7l-5.4,70.7h21.8
				l5.4-70.7h6.7v-8.9H1141.7z"/>
		</g>
	</g>
	<g>
		<path class="st8" d="M820.8,372.7c0,0,12.5-39.3-5.8-50.7c-11.6-6-18,1.5-18,1.5s-5.5-27.8-43.2-18.6c-24.4,5.9-32.1-6.6-32.1-6.6
			s-0.2,34.8,16.6,45.2c12.2,10.4,7.5,38.7,7.5,38.7L820.8,372.7z"/>
		<path class="st2" d="M931.9,886.2c0,0,67.9,2,86.8,19.5c19.9,18.4,40.8,47.1-44.9,46.6c-85.8-0.6-161.8-24.2-233.7-16.7
			S609.2,956,592,953.1s105.4-61.6,105.4-61.6l227.5,8.4L931.9,886.2z"/>
		<path class="st9" d="M868.4,733.5l-85.6-8.6l-85.6,8.6c0,0-5.1,40.4-21.6,62C782.8,834,782.8,834,782.8,834s0,0,107.2-38.5
			C873.5,773.9,868.4,733.5,868.4,733.5z"/>
		<path class="st9" d="M779.4,832.8c3.4,1.2,3.4,1.2,3.4,1.2s0,0,3.4-1.2c19.7-45.4,15-96.3,13.8-106.1l-17.2-1.7l-22,2.2
			C760.4,738,759.6,787.7,779.4,832.8z"/>
		<path class="st10" d="M696.8,736.8c0,0,90,39.7,177,22.5c-3.9-14.1-5.4-25.8-5.4-25.8l-85.6-8.6l-68.7,6.9L696.8,736.8
			L696.8,736.8z"/>
		<path class="st11" d="M738.3,343.4c12.2,10.4,7.5,38.7,7.5,38.7l15.9-2c16.4-14.6,34.8-33,32.1-39.9
			c-4.7-12.2-18.3-24.3-43.3-25.7c-25-1.4-28.9-16.2-28.9-16.2S721.5,333.1,738.3,343.4z"/>
		<path class="st12" d="M779.7,442L709,467.8l-11.7,265.7c0,0,25,11.7,85.6,11.7c0-276.1,0-299.1,0-299.1L779.7,442z"/>
		<path class="st12" d="M785.9,442l70.7,25.8l11.7,265.7c0,0-25,11.7-85.6,11.7c0-276.1,0-299.1,0-299.1L785.9,442z"/>
		<path class="st13" d="M709,467.8l-0.3,0.1c-20.7,7.4-37.2,23.3-45.4,43.6l-75.9,183.8L652,703l54.7-134L709,467.8z"/>
		<path class="st13" d="M856.7,467.8l0.3,0.1c20.7,7.4,37.2,23.3,45.4,43.6l75.9,183.8l-64.6,7.7L859,569L856.7,467.8z"/>
		<path class="st14" d="M931.8,582.9l-29.5-71.4c-8.2-20.4-24.7-36.2-45.4-43.6l-0.3-0.1L859,569l15.5,37.9
			C895.2,589.7,915.9,584.1,931.8,582.9z"/>
		<path class="st14" d="M633.8,582.9l29.5-71.4c8.2-20.4,24.7-36.2,45.4-43.6l0.3-0.1L706.6,569l-15.5,38
			C670.4,589.7,649.7,584.1,633.8,582.9z"/>
		<path class="st15" d="M861.3,572.5c0,0-1.9-2.7-4.6-7.7l2.4,4.2c0,0-26.9,149.4-98.9,175.6l0,0c6.9,0.4,14.4,0.6,22.6,0.6
			c60.6,0,85.6-11.7,85.6-11.7L861.3,572.5z"/>
		<path class="st16" d="M675.7,553c18.2-51.2,19.3-50.8,59.1-60.2c39.9-9.4,32-46.1,32-46.1l-37.2,13.5l-5.7,2.1l-14.9,5.4l-0.3,0.1
			c-20.7,7.4-37.2,23.3-45.4,43.6l-72.8,176.2C621.3,665.1,660.1,596.6,675.7,553z"/>
		<path class="st17" d="M890,553c-18.2-51.2-19.3-50.8-59.1-60.2c-39.9-9.4-32-46.1-32-46.1l37.2,13.5l5.7,2.1l14.9,5.4l0.3,0.1
			c20.7,7.4,37.2,23.3,45.4,43.6l72.7,176.3C944.4,665.1,905.5,596.6,890,553z"/>
		<path class="st13" d="M783,474.8h-0.4c-10.5,0-18.9-8.5-18.9-18.9v-45.2h38.2v45.2C802,466.3,793.5,474.8,783,474.8z"/>
		<path class="st18" d="M801.6,445.5c0.1,0,0.2,0,0.3,0v-34.9h-17.8l-20.4,7.4C763.7,418,771.3,445.5,801.6,445.5z"/>
		<path class="st19" d="M827.3,383.5c0,6.8-5.5,12.3-12.3,12.3s-12.3-5.5-12.3-12.3s5.5-12.3,12.3-12.3
			C821.8,371.2,827.3,376.7,827.3,383.5z"/>
		<path class="st20" d="M817.4,395.5c1.8-7.1,2.8-16.2,3.4-22.8c-1.7-0.9-3.7-1.5-5.8-1.5c-6.8,0-12.3,5.5-12.3,12.3
			s5.5,12.3,12.3,12.3C815.9,395.8,816.7,395.7,817.4,395.5z"/>
		<path class="st19" d="M738.3,383.5c0,6.8,5.5,12.3,12.3,12.3s12.3-5.5,12.3-12.3s-5.5-12.3-12.3-12.3
			C743.8,371.2,738.3,376.7,738.3,383.5z"/>
		<path class="st20" d="M748.2,395.5c-1.8-7.1-2.8-16.2-3.4-22.8c1.7-0.9,3.7-1.5,5.8-1.5c6.8,0,12.3,5.5,12.3,12.3
			s-5.5,12.3-12.3,12.3C749.8,395.8,749,395.7,748.2,395.5z"/>
		<path class="st13" d="M804.4,340.5h-21.6h-21.6l-10.7,23.4l1.8,23.1c1,12.3,8.9,33.7,20.2,38.9c3.3,1.6,6.9,2.6,10.4,2.6
			s7-1,10.4-2.6c11.2-5.2,19.2-26.6,20.2-38.9l1.8-23.1L804.4,340.5z"/>
		<path class="st21" d="M793.9,369.9c0,0,7.3,2,15.5,0"/>
		<path class="st22" d="M791.6,356.6c0,0,10.6-1.8,17,1.9"/>
		<path class="st21" d="M771.7,369.9c0,0-7.3,2-15.5,0"/>
		<path class="st22" d="M774.1,356.6c0,0-10.6-1.8-17,1.9"/>
		<path class="st16" d="M765.6,390c-1.4-23.4-4.4-49.5-4.4-49.5l-10.7,23.4l0.6,7.3c-0.2,0-0.3,0-0.5,0c-6.8,0-12.3,5.5-12.3,12.3
			s5.5,12.3,12.3,12.3c1.1,0,2.1-0.2,3.1-0.4c2.9,11.9,9.8,26.4,18.8,30.6c3.3,1.6,6.9,2.6,10.4,2.6
			C782.8,428.5,767,413.4,765.6,390z"/>
		<g>
			<path class="st23" d="M856.7,837.4l-244.5-74.2c-32.5-9.8-66.6,9.3-75.2,42.1l-0.3,1.2c-8.8,33.8,13.1,68,47.5,74
				c90.4,15.8,254.2,42.7,340.4,46l36.3,24.2c5.5,3.7,12.8,3.1,17.6-1.5l0.2-0.2c5.7-5.4,6-14.3,0.7-20.1l-5.7-6.1
				c0,0-5.1-24.6-30-35.2c-25-10.5-27.3-36.3-33.2-50.4C904.7,823.3,867.2,816.3,856.7,837.4z"/>
			<path class="st7" d="M537,805.3c8.6-32.8,42.7-51.9,75.2-42.1l82.9,25.2c-12.5,15.6-29,47.2-29.5,105.9
				c-30.3-4.9-58.3-9.7-81.4-13.7c-34.4-6-56.3-40.2-47.5-74L537,805.3z"/>
			<path class="st24" d="M614.2,856.9c0,10-2.4,19.4-6.6,27.7c-8.2-1.4-16-2.8-23.3-4c-34.4-6-56.3-40.2-47.5-74l0.3-1.2
				c0.8-2.9,1.8-5.8,2.9-8.5c4.1-0.9,8.4-1.3,12.8-1.3C586.7,795.5,614.2,823,614.2,856.9z"/>
			<path class="st25" d="M868.4,871.4c0,0-3.5,20.5-37.5,13.2"/>
			<path class="st17" d="M890,862c0,0-52.1-2.3-162.3-22c-89.3-15.9-115.4-61.6-122.2-78.4c2.2,0.4,4.4,0.9,6.7,1.6l244.5,74.2
				c10.5-21.1,48.1-14.1,53.9,0c5.9,14.1,8.2,39.9,33.2,50.4s30,35.2,30,35.2s-25.7-16.4-41.9-19.9C915.7,899.5,890,862,890,862z"/>
		</g>
		<path class="st8" d="M901.3,925.2c0,0,44.9,42.9,83.2,25.3c6.4-2.9,8.4-11.1,4.2-16.7c-32.2-43.8-72.9-91.5-88.4-109.4
			c-3.9-4.5-10-6.3-15.7-4.6l-44.1,12.8L901.3,925.2z"/>
		<polygon class="st26" points="840.5,832.5 798.2,819.7 830.2,918.1 901.3,925.2 		"/>
		<path class="st13" d="M709,837.4l244.5-74.2c32.5-9.8,66.6,9.3,75.2,42.1l0.3,1.2c8.8,33.8-13.1,68-47.5,74
			c-90.4,15.8-254.2,42.7-340.4,46l-36.3,24.2c-5.5,3.7-12.8,3.1-17.6-1.5L587,949c-5.7-5.4-6-14.3-0.7-20.1l5.7-6.1
			c0,0,5.1-24.6,30-35.2c25-10.5,27.3-36.3,33.2-50.4S698.4,816.3,709,837.4z"/>
		<path class="st7" d="M1028.6,805.3c-8.6-32.8-42.7-51.9-75.2-42.1l-82.9,25.2c12.5,15.6,29,47.2,29.5,105.9
			c30.3-4.9,58.3-9.7,81.4-13.7c34.4-6,56.3-40.2,47.5-74L1028.6,805.3z"/>
		<path class="st24" d="M951.5,856.9c0,10,2.4,19.4,6.6,27.7c8.2-1.4,16-2.8,23.3-4c34.4-6,56.3-40.2,47.5-74l-0.3-1.2
			c-0.8-2.9-1.8-5.8-2.9-8.5c-4.1-0.9-8.4-1.3-12.8-1.3C979,795.5,951.5,823,951.5,856.9z"/>
		<path class="st17" d="M675.7,862c0,0,52.1-2.3,162.3-22c89.3-15.9,115.4-61.6,122.2-78.4c-2.2,0.4-4.4,0.9-6.7,1.6L709,837.4
			c-10.5-21.1-48.1-14.1-53.9,0s-8.2,39.9-33.2,50.4s-30,35.2-30,35.2s25.7-16.4,41.9-19.9C650,899.5,675.7,862,675.7,862z"/>
		<path class="st27" d="M621.9,887.8l-36.6-6.8c-33.2-5.3-55.6-36.6-50-69.8l0.2-1.3c6.2-36.1,42.8-58.4,77.7-47.4l69.2,21.9"/>
		<path class="st12" d="M770.3,389.7c-1.3,0-2.1,1.5-1.3,2.6c3.7,4.7,8.5,7.6,13.9,7.6c5.3,0,10.2-2.9,13.9-7.6c0.8-1,0-2.6-1.3-2.6
			H770.3z"/>
		<path class="st28" d="M786.5,369.4v12.7c0,0-2.9-1.7-7,0"/>
		<rect x="793.9" y="323.5" class="st13" width="3.1" height="19.9"/>
		<g>
			<path class="st13" d="M978.3,695.3l0.1,0.4c7.3,20.3-1.4,42.9-20.6,52.9L827.3,817l-0.6-1.7c-11.5-29.7,0.5-63.4,28.3-79
				l58.8-33.3L978.3,695.3z"/>
			<path class="st17" d="M950.7,737.2c0,4.8,1.2,9.4,3.3,13.3l3.8-2c15.1-7.9,23.7-23.6,23.1-39.9c-0.5,0-1-0.1-1.6-0.1
				C963.5,708.6,950.7,721.4,950.7,737.2z"/>
			<line class="st29" x1="913.7" y1="703" x2="950.7" y2="682"/>
		</g>
		<g>
			<path class="st13" d="M587.8,695.3l-0.1,0.4c-7.3,20.3,1.5,42.9,20.6,52.9L738.8,817l0.6-1.7c11.5-29.7-0.5-63.4-28.3-79
				L652.3,703L587.8,695.3z"/>
			<path class="st17" d="M615.3,737.2c0,4.8-1.2,9.4-3.3,13.3l-3.8-2c-15.1-7.9-23.7-23.6-23.1-39.9c0.5,0,1-0.1,1.6-0.1
				C602.5,708.6,615.3,721.4,615.3,737.2z"/>
			<line class="st29" x1="652.3" y1="703" x2="615.3" y2="682"/>
		</g>
		<path class="st29" d="M724.2,809.4c0,0,6.6-36.1-14.9-47.7"/>
		<path class="st29" d="M841.4,809.4c0,0-6.6-36.1,14.9-47.7"/>
		<path class="st8" d="M664.4,925.2c0,0-44.9,42.9-83.2,25.3c-6.4-2.9-8.4-11.1-4.2-16.7c32.2-43.8,72.9-91.5,88.4-109.4
			c3.9-4.5,10-6.3,15.7-4.6l44.1,12.8L664.4,925.2z"/>
		<polygon class="st30" points="725.2,832.5 767.4,819.7 735.4,918.1 664.4,925.2 		"/>
		<path class="st17" d="M707.6,859.3c12.5-1.3,28.8-3.3,48.9-6.1l10.9-33.4l-42.2,12.8L707.6,859.3z"/>
		<path class="st31" d="M677.8,895.3l-24.5,37.3c-1.5,2.3-4.3,3.6-7,3.2h-0.2c-5.3-0.7-8-6.8-5-11.2l25.1-37
			c1.6-2.4,4.5-3.5,7.3-2.8h0.1C678.3,885.9,680.5,891.3,677.8,895.3z"/>
		<g>
			<g>
				<polygon class="st3" points="779.5,679.5 629.6,679.5 666.5,811.2 779.5,811.2 892.4,811.2 929.4,679.5 				"/>
				<rect x="666.5" y="811.2" class="st5" width="225.9" height="19.2"/>
				<ellipse class="st6" cx="779.7" cy="755.7" rx="36.7" ry="18.8"/>
				<rect x="629.6" y="670.8" class="st6" width="299.8" height="8.7"/>
				<rect x="679" y="816.7" class="st6" width="22.6" height="7.7"/>
				<rect x="711.7" y="816.7" class="st6" width="22.6" height="7.7"/>
				<line class="st32" x1="892.4" y1="820.8" x2="754.9" y2="820.8"/>
				<path class="st33" d="M629.6,679.5l37,131.6h80.5c47.8-55.4,76.8-131.6,76.8-131.6l-0.1-8.7H629.6V679.5z"/>
			</g>
			<line class="st34" x1="629.6" y1="679.5" x2="929.4" y2="679.5"/>
		</g>
	</g>
	<g>
		<ellipse class="st2" cx="473.8" cy="925.2" rx="54.4" ry="2.8"/>
		<g>
			<g>
				<path class="st6" d="M481.8,898.1l3.6-3.9l-1.8,1.9l1.8-1.9c-0.4-0.4-43.3-43.9,8.5-239.9l-5.1-1.3
					C435.8,853.1,479.9,896.4,481.8,898.1z"/>
				<g>
					<path class="st6" d="M465.8,657.7c19.6,17.8,16.2,38.9,16.2,38.9s-19.7-8.4-24.2-34.5C457,657.5,462.3,654.6,465.8,657.7z"/>
					<path class="st6" d="M514.9,670.3c-25.8,6.2-32.9,26.3-32.9,26.3s21.3,2.1,37.8-18.6C522.7,674.4,519.4,669.2,514.9,670.3z"/>
				</g>
				<g>
					<path class="st6" d="M452.3,709c21.3,15.8,20,37.1,20,37.1s-20.4-6.4-27.6-31.9C443.5,709.7,448.6,706.2,452.3,709z"/>
					<path class="st6" d="M502.5,716.6c-25,8.8-30.1,29.5-30.1,29.5s21.4,0,35.8-22.3C510.6,719.9,506.8,715,502.5,716.6z"/>
				</g>
				<g>
					<path class="st6" d="M443.8,753.9c22.4,14.2,22.7,35.5,22.7,35.5s-20.8-4.8-29.8-29.8C435.1,755.3,439.9,751.4,443.8,753.9z"/>
					<path class="st6" d="M494.4,757.8c-24.3,10.6-27.8,31.7-27.8,31.7s21.3-1.6,34-24.9C502.8,760.5,498.6,755.9,494.4,757.8z"/>
				</g>
				<path class="st6" d="M507.8,618.4c0.4,26.5-17.3,38.5-17.3,38.5s-7.4-20.1,8.6-41.3C501.9,611.9,507.7,613.8,507.8,618.4z"/>
			</g>
			<rect x="443.3" y="811.2" class="st7" width="57" height="112.7"/>
			<rect x="477.5" y="811.2" class="st24" width="22.8" height="112.7"/>
		</g>
	</g>
	<g>
		<g>
			<path class="st9" d="M525.3,273.5l-20.5,5.1c-3,0.7-6-1.1-6.7-4l-2-7.9l31.3-7.8l2,7.9C530.1,269.7,528.2,272.8,525.3,273.5z"/>
			<path class="st9" d="M601.5,249l-177.1,44.1c-3.1,0.8-6.2-1.1-6.9-4.2l-29.2-117.5c-0.8-3.1,1.1-6.2,4.2-6.9l177.1-44.1
				c3.1-0.8,6.2,1.1,6.9,4.2l29.2,117.5C606.4,245.2,604.5,248.3,601.5,249z"/>
			<polygon class="st7" points="596.2,228.7 591.3,242.9 434.1,282 420.2,272.5 391.2,156.1 567.3,112.3 			"/>
			
				<rect x="404.4" y="143.7" transform="matrix(0.9704 -0.2413 0.2413 0.9704 -35.8853 114.2791)" class="st12" width="88.4" height="119.9"/>
			
				<rect x="400.6" y="153.5" transform="matrix(0.9704 -0.2413 0.2413 0.9704 -24.6378 110.0352)" class="st3" width="72.6" height="4.2"/>
			
				<rect x="403.9" y="166.5" transform="matrix(0.9704 -0.2414 0.2414 0.9704 -27.6833 111.2642)" class="st3" width="72.6" height="4.2"/>
			
				<rect x="407.1" y="179.5" transform="matrix(0.9704 -0.2413 0.2413 0.9704 -30.7187 112.372)" class="st3" width="72.6" height="4.2"/>
			
				<rect x="410.4" y="192.5" transform="matrix(0.9704 -0.2413 0.2413 0.9704 -33.7575 113.5531)" class="st3" width="72.6" height="4.2"/>
			
				<rect x="413.6" y="205.6" transform="matrix(0.9704 -0.2414 0.2414 0.9704 -36.8358 114.7622)" class="st3" width="72.6" height="4.2"/>
			
				<rect x="416.8" y="218.6" transform="matrix(0.9704 -0.2413 0.2413 0.9704 -39.8673 115.8679)" class="st3" width="72.6" height="4.2"/>
			
				<rect x="420.1" y="231.6" transform="matrix(0.9704 -0.2413 0.2413 0.9704 -42.9061 117.049)" class="st3" width="72.6" height="4.2"/>
			
				<rect x="423.3" y="244.6" transform="matrix(0.9704 -0.2414 0.2414 0.9704 -45.9627 118.2567)" class="st3" width="72.6" height="4.2"/>
			
				<rect x="494.7" y="121.2" transform="matrix(0.9704 -0.2414 0.2414 0.9704 -27.7926 135.4619)" class="st12" width="88.4" height="119.9"/>
			
				<rect x="490.3" y="131.2" transform="matrix(0.9704 -0.2414 0.2414 0.9704 -16.6066 131.0774)" class="st3" width="72.6" height="4.2"/>
			
				<rect x="493.5" y="144.2" transform="matrix(0.9704 -0.2413 0.2413 0.9704 -19.6481 132.177)" class="st3" width="72.6" height="4.2"/>
			
				<rect x="496.8" y="157.2" transform="matrix(0.9704 -0.2413 0.2413 0.9704 -22.6868 133.3582)" class="st3" width="72.6" height="4.2"/>
			
				<rect x="500" y="170.2" transform="matrix(0.9704 -0.2414 0.2414 0.9704 -25.7336 134.5719)" class="st3" width="72.6" height="4.2"/>
			
				<rect x="503.2" y="183.3" transform="matrix(0.9704 -0.2413 0.2413 0.9704 -28.7967 135.6729)" class="st3" width="72.6" height="4.2"/>
			
				<rect x="506.5" y="196.3" transform="matrix(0.9704 -0.2413 0.2413 0.9704 -31.8354 136.8541)" class="st3" width="72.6" height="4.2"/>
			
				<rect x="509.7" y="209.3" transform="matrix(0.9704 -0.2414 0.2414 0.9704 -34.8861 138.0699)" class="st3" width="72.6" height="4.2"/>
			
				<rect x="512.9" y="222.3" transform="matrix(0.9704 -0.2413 0.2413 0.9704 -37.9198 139.1654)" class="st3" width="72.6" height="4.2"/>
			<path class="st7" d="M519.9,266.7l-13.6,3.4c-3,0.7-6-1.1-6.7-4l-1.2-5l24.3-6.1l1.2,5C524.7,262.9,522.9,265.9,519.9,266.7z"/>
		</g>
		<g>
			<path class="st7" d="M821.1,99.3c-7-6.7-15.9-11.3-25.1-14.3c-0.1,0-0.2-0.1-0.4-0.1c-8.3-2.2-17-2.2-25.3,0
				c-0.2,0.1-0.4,0.1-0.4,0.1c-9.2,3.1-18.1,7.6-25.1,14.3c-21,19.9-17.5,56.1,2.9,75.2c5.7,5.4,8.2,12.3,10,19.9
				c0.5,2.3,3.6,26.2,2.5,26.2c10.2,0,22.8,0,22.8,0s12.6,0,22.8,0c-1.1,0,2-23.9,2.5-26.2c1.8-7.6,4.3-14.5,10-19.9
				C838.7,155.4,842.1,119.2,821.1,99.3z"/>
			<path class="st16" d="M774.8,194.4c-1.8-7.6-4.3-14.5-10-19.9c-20.4-19.1-23.8-55.2-2.9-75.2c7-6.7,15.9-11.3,25.1-14.3
				c0.1,0,0.2-0.1,0.4-0.1c1.4-0.4,2.7-0.6,4.1-0.9c-7-1.2-14.3-1-21.2,0.9c-0.2,0.1-0.3,0.1-0.4,0.1c-9.2,3.1-18.1,7.6-25.1,14.3
				c-21,19.9-17.5,56.1,2.9,75.2c5.7,5.4,8.2,12.3,10,19.9c0.5,2.3,3.6,26.2,2.5,26.2c5.9,0,12.5,0,17.1,0
				C778.3,220.6,775.3,196.7,774.8,194.4z"/>
			<path class="st35" d="M783,220.6v-55.8l9.8-5.7c3.2-1.9,2.6-6.7-1-7.7l-17.9-4.7c-3-0.8-3.4-5-0.5-6.3l9.6-4.3v-18.9"/>
			<path class="st8" d="M810.3,228.3c0,1.7-1.4,3.1-3.1,3.1h-50.1c-1.7,0-3.1-1.4-3.1-3.1l0,0c0-1.7,1.4-3.1,3.1-3.1h50.2
				C808.9,225.2,810.3,226.6,810.3,228.3L810.3,228.3z"/>
			<path class="st8" d="M810.3,237.5c0,1.7-1.4,3.1-3.1,3.1h-50.1c-1.7,0-3.1-1.4-3.1-3.1l0,0c0-1.7,1.4-3.1,3.1-3.1h50.2
				C808.9,234.4,810.3,235.8,810.3,237.5L810.3,237.5z"/>
			<path class="st8" d="M810.3,246.7c0,1.7-1.4,3.1-3.1,3.1h-50.1c-1.7,0-3.1-1.4-3.1-3.1l0,0c0-1.7,1.4-3.1,3.1-3.1h50.2
				C808.9,243.6,810.3,245,810.3,246.7L810.3,246.7z"/>
			<path class="st8" d="M782.2,271.3c9.9,0,17.9-8,17.9-17.9h-35.8C764.2,263.2,772.3,271.3,782.2,271.3z"/>
		</g>
		<g>
			<path class="st36" d="M994.4,283v-14.4h-6.3c-1.2-6.9-4-13.1-8-18.5l5.1-5.1L975,234.8l-5.2,5.2c-5.4-3.7-11.6-6.1-18.3-7.1v-7.5
				h-14.4v7.8c-6.4,1.2-12.4,3.9-17.5,7.6l-5.1-5.1L904.1,246l5.2,5.2c-3.8,5.4-6.4,11.6-7.4,18.4h-7.2V284h7.3
				c1.2,6.6,3.8,12.7,7.6,17.9l-5.6,5.6l10.2,10.2l5.7-5.7c5.2,3.7,11.3,6.2,17.9,7.3v7.8h14.4v-7.8c6.5-1.1,12.6-3.6,17.8-7.3
				l4.8,4.8l10.2-10.2l-4.7-4.7c4-5.5,6.7-11.9,7.8-18.9L994.4,283L994.4,283z M945,300.8c-13.6,0-24.5-11-24.5-24.5
				c0-13.6,11-24.5,24.5-24.5c13.6,0,24.5,11,24.5,24.5C969.6,289.8,958.6,300.8,945,300.8z"/>
			<path class="st37" d="M1051.9,337.8v-8.3h-3.7c-0.7-4-2.3-7.6-4.6-10.7l2.9-2.9l-5.9-5.9l-3,3c-3.1-2.1-6.7-3.5-10.6-4.1v-4.3
				h-8.3v4.5c-3.7,0.7-7.1,2.2-10.1,4.4l-2.9-2.9l-5.9,5.9l3,3c-2.2,3.1-3.7,6.7-4.3,10.6h-4.1v8.3h4.2c0.7,3.8,2.2,7.3,4.4,10.3
				l-3.3,3.3l5.9,5.9l3.3-3.3c3,2.1,6.5,3.6,10.3,4.2v4.5h8.3v-4.5c3.8-0.6,7.3-2.1,10.3-4.2l2.8,2.8l5.9-5.9l-2.7-2.7
				c2.3-3.2,3.9-6.9,4.5-10.9L1051.9,337.8L1051.9,337.8z M1023.5,348c-7.8,0-14.2-6.3-14.2-14.2c0-7.8,6.3-14.2,14.2-14.2
				c7.9,0,14.2,6.3,14.2,14.2C1037.6,341.7,1031.3,348,1023.5,348z"/>
			<g>
				<path class="st5" d="M1183.1,230v-29.6H1170c-2.5-14.1-8.2-27-16.4-38L1164,152l-20.9-20.9l-10.9,10.7
					c-11-7.5-23.8-12.6-37.7-14.6v-15.4h-29.6v16c-13.2,2.5-25.4,7.9-35.9,15.5l-10.5-10.5l-20.9,21l10.6,10.6
					c-7.8,11-13,23.9-15.2,37.8h-14.7v29.6h15c2.4,13.6,7.9,26.1,15.7,36.8l-11.6,11.6l20.9,20.9l11.7-11.7
					c10.7,7.6,23.2,12.8,36.7,15v16h29.6v-16c13.4-2.2,25.9-7.4,36.6-14.9l9.8,9.8l20.9-20.9l-9.6-9.6c8.2-11.2,13.8-24.5,16.1-38.8
					L1183.1,230L1183.1,230z M1081.6,266.4c-27.8,0-50.4-22.6-50.4-50.4s22.6-50.4,50.4-50.4c27.8,0,50.4,22.6,50.4,50.4
					S1109.5,266.4,1081.6,266.4z"/>
				<circle class="st36" cx="1080.7" cy="216.1" r="29.6"/>
			</g>
		</g>
		<g>
			<path class="st6" d="M504.7,367.4c-63.5,3.9-112.9,41.9-110.3,85s56.2,74.9,119.8,71.1h0.1c6.3-0.4,10.6-6.4,9.1-12.5
				c-0.8-3-1.2-6-1.2-9.2c-0.3-20.6,15.6-38.2,36-40.1c14.9-1.3,28.4,5.6,36.3,17c3.9,5.6,12.1,6,16.3,0.6
				c9.6-12.3,14.6-26.3,13.7-40.9C621.8,395.4,568.2,363.5,504.7,367.4z"/>
			<g>
				<path class="st5" d="M504.2,360.4c-63.5,3.9-112.9,41.9-110.3,85s56.2,74.9,119.8,71.1h0.1c6.3-0.4,10.6-6.4,9.1-12.5
					c-0.8-3-1.2-6-1.2-9.2c-0.3-20.6,15.6-38.2,36-40.1c14.9-1.3,28.4,5.6,36.3,17c3.9,5.6,12.1,6,16.3,0.6
					c9.6-12.3,14.6-26.3,13.7-40.9C621.4,388.4,567.8,356.6,504.2,360.4z"/>
				<path class="st7" d="M481.8,482.6c0.5,7.7-5.4,14.2-13,14.7c-7.7,0.5-14.2-5.4-14.7-13c-0.5-7.7,5.4-14.2,13-14.7
					C474.8,469.2,481.3,475,481.8,482.6z"/>
				<path class="st7" d="M444,456.3c0.5,7.7-5.4,14.2-13,14.7c-7.7,0.5-14.2-5.4-14.7-13c-0.5-7.7,5.4-14.2,13-14.7
					C436.9,442.9,443.5,448.7,444,456.3z"/>
				<path class="st7" d="M455.1,410.4c0.5,7.7-5.4,14.2-13,14.7c-7.7,0.5-14.2-5.4-14.7-13c-0.5-7.7,5.4-14.2,13-14.7
					S454.6,402.7,455.1,410.4z"/>
				<path class="st7" d="M502,385.5c0.5,7.7-5.4,14.2-13,14.7c-7.7,0.5-14.2-5.4-14.7-13c-0.5-7.7,5.4-14.2,13-14.7
					S501.5,377.8,502,385.5z"/>
				<path class="st7" d="M554.8,386.2c0.5,7.7-5.4,14.2-13,14.7c-7.7,0.5-14.2-5.4-14.7-13c-0.5-7.7,5.4-14.2,13-14.7
					C547.8,372.7,554.4,378.5,554.8,386.2z"/>
				<path class="st7" d="M599.4,411.3c0.5,7.7-5.4,14.2-13,14.7c-7.7,0.5-14.2-5.4-14.7-13c-0.5-7.7,5.4-14.2,13-14.7
					C592.4,397.8,599,403.7,599.4,411.3z"/>
			</g>
			<path class="st38" d="M566.1,368.6L553,396c-1.7-0.1-3.4,0.9-4.1,2.6v0.1c-0.9,2.1,0.2,4.6,2.3,5.5l1.2,0.5
				c-0.2-0.1-1.5-0.2-4.1,3.6l0,0l0,0c-0.2,0.2-0.3,0.5-0.5,0.7c0,0,0,0.1-0.1,0.1c-0.2,0.2-0.3,0.5-0.5,0.8c0,0.1-0.1,0.1-0.1,0.2
				c-0.2,0.3-0.3,0.5-0.5,0.8c0,0.1-0.1,0.2-0.1,0.3c-0.2,0.3-0.3,0.5-0.5,0.8c-0.1,0.1-0.1,0.2-0.2,0.4c-0.2,0.3-0.3,0.6-0.5,0.9
				c-0.1,0.1-0.2,0.3-0.2,0.5c-0.2,0.3-0.3,0.6-0.5,0.9c-0.1,0.2-0.2,0.4-0.3,0.6c-0.2,0.3-0.3,0.6-0.5,0.9
				c-0.1,0.2-0.2,0.5-0.3,0.7c-0.2,0.3-0.3,0.6-0.5,1c-0.1,0.3-0.2,0.5-0.4,0.8c-0.2,0.3-0.3,0.7-0.5,1c-0.1,0.3-0.3,0.6-0.4,0.9
				c-0.2,0.3-0.3,0.7-0.5,1.1c-0.2,0.3-0.3,0.7-0.5,1.1s-0.3,0.7-0.5,1.1s-0.3,0.8-0.5,1.2c-0.2,0.4-0.3,0.7-0.5,1.1
				c-0.2,0.5-0.4,0.9-0.6,1.4c-0.2,0.4-0.3,0.8-0.5,1.1c-0.2,0.5-0.4,1.1-0.6,1.6c-0.1,0.4-0.3,0.7-0.4,1.1
				c-0.3,0.7-0.5,1.4-0.8,2.1c-0.1,0.3-0.2,0.6-0.3,0.9c-0.4,1-0.8,2.1-1.1,3.2c-1,2.9-2.3,6.3-3.6,10.2c-0.2,0.4-0.3,0.9-0.5,1.3
				c-0.2,0.6-0.4,1.2-0.6,1.8c-0.2,0.5-0.3,1-0.5,1.5c-0.3,0.8-0.6,1.6-0.8,2.4c-0.1,0.4-0.3,0.7-0.4,1.1c-0.3,0.8-0.6,1.6-0.9,2.4
				c-0.1,0.4-0.3,0.8-0.4,1.3c-0.3,0.8-0.5,1.6-0.8,2.3c-0.2,0.5-0.3,1-0.5,1.5c-0.3,0.9-0.6,1.8-1,2.8c-0.1,0.4-0.2,0.7-0.4,1
				c-0.3,1-0.7,1.9-1,2.9c-0.1,0.4-0.3,0.8-0.4,1.2c-0.3,0.9-0.6,1.8-1,2.7c-0.2,0.5-0.3,0.9-0.5,1.4c-0.3,1-0.7,2-1,2.9
				c-0.1,0.4-0.3,0.8-0.4,1.3c-0.3,1-0.7,1.9-1,2.9c-0.2,0.5-0.3,1-0.5,1.5c-0.3,0.9-0.6,1.8-0.9,2.7c-0.2,0.6-0.4,1.3-0.7,1.9
				c-0.3,0.8-0.5,1.5-0.8,2.3c-0.3,0.7-0.5,1.5-0.8,2.2c-0.3,0.8-0.6,1.6-0.8,2.5c-0.1,0.4-0.3,0.9-0.4,1.3l0,0l0,0
				c-2.3,6.7-4.6,13.5-6.9,20.2c2-0.1,4-0.1,6.1-0.3h0.1c6.3-0.4,10.6-6.4,9.1-12.5c-0.8-3-1.2-6-1.2-9.2
				c-0.3-18,11.9-33.8,28.6-38.7c1.9-4,3.5-7.6,4.9-10.6c14.7-32.3,11.1-35.2,10.6-35.4l1.2,0.5c2.1,0.9,4.6-0.2,5.5-2.3v-0.1
				c0.8-2,0-4.3-1.9-5.3l9.8-28.2C575.9,372.5,571.1,370.4,566.1,368.6z M552.5,404.7L552.5,404.7l0.3,0.1L552.5,404.7z"/>
			<path class="st39" d="M452.7,408.2c0.2,3.2-2.2,6-5.4,6.2c-3.2,0.2-6-2.2-6.2-5.4c-0.2-3.2,2.2-6,5.4-6.2
				C449.7,402.6,452.5,405,452.7,408.2z"/>
			<path class="st39" d="M499.6,383.9c0.2,3.2-2.2,6-5.4,6.2c-3.2,0.2-6-2.2-6.2-5.4c-0.2-3.2,2.2-6,5.4-6.2
				C496.7,378.2,499.4,380.7,499.6,383.9z"/>
			<path class="st39" d="M549.3,382.6c0.2,3.2-2.2,6-5.4,6.2c-3.2,0.2-6-2.2-6.2-5.4s2.2-6,5.4-6.2
				C546.4,377,549.1,379.4,549.3,382.6z"/>
			<path class="st39" d="M438.1,452.2c0.2,3.2-2.2,6-5.4,6.2c-3.2,0.2-6-2.2-6.2-5.4c-0.2-3.2,2.2-6,5.4-6.2
				C435.2,446.6,437.9,449,438.1,452.2z"/>
			<path class="st39" d="M479.3,478.6c0.2,3.2-2.2,6-5.4,6.2c-3.2,0.2-6-2.2-6.2-5.4c-0.2-3.2,2.2-6,5.4-6.2
				C476.3,473,479.1,475.4,479.3,478.6z"/>
			<g>
				<path class="st7" d="M616.9,360.4c0,0,19-10.4,20.2-26.4c-0.1-9.5-4.2-17.2-4.2-17.2l-2.6,9.8c0,0-1.4-15.3-12.4-22.7
					c-10.9-7.4-8.2-5.3-8.2-5.3s9.2,12.2-1,32.4c-10.2,20.2,2.7,27.2,2.7,27.2L616.9,360.4z"/>
				<path class="st9" d="M615.7,353.8c0,0-3.4-17.6,4.4-27c-10.2,12.9-12.3,23.3-9.7,31.7C615.7,353.8,615.7,353.8,615.7,353.8z"/>
				<path class="st12" d="M606.6,357.3c1.7-3.4,5.7-4.9,9.2-3.5h0.1h0.1c3.5,1.4,5.3,5.3,4.1,8.9L607.6,401l-9.4-3.8l-9.4-3.8
					L606.6,357.3z"/>
				<path class="st40" d="M587.3,402l15.9,6.5c2.1,0.9,4.6-0.2,5.5-2.3v-0.1c0.9-2.1-0.2-4.6-2.3-5.5l-15.9-6.5
					c-2.1-0.9-4.6,0.2-5.5,2.3v0.1C584.1,398.6,585.1,401.1,587.3,402z"/>
				<path class="st8" d="M588.6,402.5l6.7,2.7l6.7,2.7c0,0,5.1,1.2-10.6,35.4c-11.6,25.4-41.5,89.2-58.7,123.3
					c-1.6,3.2-6.4,1.2-5.4-2.2c11.5-36.4,34.7-102.9,44.1-129.2C584.1,399.8,588.6,402.5,588.6,402.5z"/>
				<path class="st12" d="M553,525c-7.4,15.5-14.6,30.3-20.4,41.7c-1.6,3.2-6.4,1.2-5.4-2.2c3.8-12.2,9-27.8,14.5-44.1L553,525z"/>
				<path class="st41" d="M550.6,494.4L550.6,494.4c24.5-30.3,33.7-88.1,33.7-88.3c-2.7,4-6.9,12.2-13,29.1
					C566.8,448.1,558.9,470.5,550.6,494.4z"/>
			</g>
		</g>
		<g>
			<polygon class="st37" points="1024.8,423.3 1029.2,432.1 1038.9,433.5 1031.9,440.3 1033.5,450 1024.8,445.4 1016.2,450 
				1017.8,440.3 1010.8,433.5 1020.5,432.1 			"/>
			<polygon class="st36" points="1149.8,411 1155.8,423.3 1169.4,425.2 1159.6,434.8 1161.9,448.3 1149.8,441.9 1137.7,448.3 
				1140,434.8 1130.2,425.2 1143.7,423.3 			"/>
			<polygon class="st37" points="1111.9,595 1115.2,601.8 1122.8,602.9 1117.3,608.3 1118.6,615.8 1111.9,612.3 1105.1,615.8 
				1106.4,608.3 1100.9,602.9 1108.5,601.8 			"/>
			<polygon class="st36" points="991.2,548.6 997.3,560.8 1010.8,562.8 1001,572.4 1003.3,585.9 991.2,579.5 979.1,585.9 
				981.4,572.4 971.6,562.8 985.1,560.8 			"/>
			<g>
				<g>
					
						<ellipse transform="matrix(0.7071 -0.7071 0.7071 0.7071 -47.077 916.122)" class="st7" cx="1082.3" cy="514.9" rx="67.6" ry="67.6"/>
				</g>
				<g class="st42">
					<path class="st9" d="M1064,579.9c23.9,6.7,48.3-0.4,65-16.4c-11.3,3-23.5,3.2-35.6-0.2c-35.9-10-57-47.3-46.9-83.2
						c3.4-12.1,9.8-22.5,18.3-30.5c-22.3,6-41,23.2-47.7,47.1C1007.1,532.6,1028.1,569.9,1064,579.9z"/>
				</g>
				<path class="st16" d="M1100.3,449.8c-3.4-0.9-6.7-1.6-10.1-2c-1.8,6.3-2.7,13-2.7,19.8c0,35.2,24.6,64.6,57.6,72
					c0.8-2.1,1.6-4.3,2.2-6.6C1157.3,497.1,1136.3,459.8,1100.3,449.8z"/>
				<path class="st43" d="M1014.9,509.3c-26.2-10.2-42.5-19.5-41.1-24.4c2.3-8.2,52.6-1.3,112.4,15.4s106.4,36.8,104.1,45
					c-1.4,4.9-20,4.4-47.5-0.4"/>
			</g>
		</g>
	</g>
</g>
</svg>
