<?xml version="1.0" encoding="utf-8"?>
<!-- Generator: Adobe Illustrator 26.0.1, SVG Export Plug-In . SVG Version: 6.00 Build 0)  -->
<svg version="1.1" id="Layer_1" xmlns="http://www.w3.org/2000/svg" xmlns:xlink="http://www.w3.org/1999/xlink" x="0px" y="0px"
	 viewBox="0 0 1263 1051.5" style="enable-background:new 0 0 1263 1051.5;" xml:space="preserve">
<style type="text/css">
	.st0{opacity:0.41;fill:#D5D3D3;enable-background:new    ;}
	.st1{fill:none;stroke:#FFFFFF;stroke-width:1.9456;stroke-miterlimit:10;stroke-dasharray:3.8511,3.8511;}
	.st2{opacity:0.87;fill:#5C6360;enable-background:new    ;}
	.st3{fill:#D5D3D3;}
	.st4{fill:#FEFEFE;}
	.st5{fill:#C1BFBF;}
	.st6{fill:#666C69;}
	.st7{fill:#EDA097;}
	.st8{fill:#8D8989;}
	.st9{fill:#DF5646;}
	.st10{fill:#9A3F8B;}
	.st11{fill:#5C6360;}
	.st12{fill:#FFFFFF;}
	.st13{fill:#F0D8C7;}
	.st14{fill:#F4F3F3;}
	.st15{fill:#E8E7E7;}
	.st16{opacity:0.52;fill:#FDF5F4;enable-background:new    ;}
	.st17{opacity:0.28;fill:#DDA983;enable-background:new    ;}
	.st18{fill:#DDA983;}
	.st19{fill:#E9C7AE;}
	.st20{fill:#E3B898;}
	.st21{fill:none;stroke:#8D8989;stroke-width:1.3362;stroke-linecap:round;stroke-miterlimit:10;}
	.st22{fill:none;stroke:#8D8989;stroke-width:2.6723;stroke-linecap:round;stroke-miterlimit:10;}
	.st23{fill:#E4BA9C;}
	.st24{opacity:0.67;fill:#DF5646;enable-background:new    ;}
	.st25{fill:none;stroke:#E2B696;stroke-width:1.139;stroke-miterlimit:10;}
	.st26{fill:#CFCECE;}
	.st27{opacity:0.57;fill:none;stroke:#FFFFFF;stroke-width:1.1139;stroke-miterlimit:10;enable-background:new    ;}
	.st28{fill:none;stroke:#8D8989;stroke-width:0.8212;stroke-linecap:round;stroke-miterlimit:10;}
	.st29{fill:none;stroke:#DDA983;stroke-width:1.3362;stroke-linecap:round;stroke-miterlimit:10;}
	.st30{fill:#F5F4F4;}
	.st31{fill:#FDF5F4;}
	.st32{fill:none;stroke:#050A00;stroke-miterlimit:10;}
	.st33{opacity:0.54;fill:#FFFFFF;enable-background:new    ;}
	.st34{opacity:0.57;fill:none;stroke:#050A00;stroke-miterlimit:10;enable-background:new    ;}
	.st35{fill:none;stroke:#FEFEFE;stroke-width:2.2387;stroke-linecap:round;stroke-miterlimit:10;}
	.st36{fill:#ADAAAA;}
	.st37{fill:#CCCACA;}
	.st38{opacity:0.68;fill:#8D8989;enable-background:new    ;}
	.st39{opacity:0.42;fill:#FFFFFF;enable-background:new    ;}
	.st40{fill:#E4E3E3;}
	.st41{opacity:0.75;fill:#FFFFFF;enable-background:new    ;}
	.st42{opacity:0.67;}
	.st43{fill:none;stroke:#ADAAAA;stroke-width:2;stroke-miterlimit:10;}
</style>
<g>
	<g>
		<path class="st0" d="M521.8,692.4c-8.4,0-16.8-0.4-25.1-1.1c-91.9-7.5-198.5-51.4-244.2-131.4c-40-69.9-55.7-160.4-37.5-238.3
			c17.1-73.3,70.2-132.6,144.6-155.1c83.6-25.3,176.1,5.4,258.4-29.2C737.7,87,888.2,127,972.2,222.9c74.4,85,92.4,222,69.1,328.2
			c-11.8,53.7-42.9,105.3-92.3,132.3c-39.3,21.5-86.9,25.7-131.9,20.1c-36.2-4.5-69.5-16.3-104.3-26c-27.9-7.8-50.8-3.7-79.3,1.9
			C596.7,686.7,559.4,692.6,521.8,692.4z"/>
		<path class="st1" d="M542.3,641.2c-6.8,0-13.6-0.3-20.3-0.9c-74.4-6.1-160.6-41.6-197.6-106.3C292,477.5,279.3,404.2,294,341.2
			c13.9-59.3,56.8-107.3,117-125.5c67.7-20.5,142.5,4.4,209.1-23.6c96.9-40.8,218.8-8.4,286.7,69.2c60.2,68.8,74.8,179.6,55.9,265.5
			C953.1,570.2,928,612,888,633.9c-31.8,17.4-70.3,20.8-106.7,16.3c-29.3-3.6-56.2-13.2-84.4-21c-22.6-6.3-41.1-3-64.2,1.6
			C603,636.5,572.7,641.3,542.3,641.2z"/>
	</g>
	<g>
		<ellipse class="st2" cx="977" cy="925.2" rx="36.2" ry="2.8"/>
		<g>
			<path class="st3" d="M981.6,821.1c0,0-31-21.1-11.1-51.7c19.9-30.6,14.9-41.3,8-49.9c16.9,19.3,13.2,41.2,3.1,55.1
				C971.5,788.6,969.9,807.5,981.6,821.1z"/>
			<g>
				<polygon class="st4" points="1006.8,847.2 947.1,847.2 952.9,922.9 1001,922.9 				"/>
				<rect x="940.8" y="843.3" class="st5" width="72.4" height="8.9"/>
				<path class="st6" d="M998.9,835.3h-44c-4.4,0-7.9,3.5-7.9,7.9v0.1h59.8v-0.1C1006.8,838.9,1003.3,835.3,998.9,835.3z"/>
				<polygon class="st7" points="1003.5,890.3 1004.9,872 949,872 950.4,890.3 				"/>
			</g>
			<path class="st3" d="M1006.8,843.3L1006.8,843.3c0-4.4-3.5-8-7.9-8h-21.7c4.4,0,7.9,3.5,7.9,7.9v0.1h6.3v8.9h-6.7l-5.4,70.7h21.8
				l5.4-70.7h6.7v-8.9H1006.8z"/>
		</g>
	</g>
	<g>
		<path class="st8" d="M685.9,372.7c0,0,12.5-39.3-5.8-50.7c-11.6-6-18,1.5-18,1.5s-5.5-27.8-43.2-18.6c-24.4,5.9-32.1-6.6-32.1-6.6
			s-0.2,34.8,16.6,45.2c12.2,10.4,7.5,38.7,7.5,38.7L685.9,372.7z"/>
		<path class="st2" d="M797,886.2c0,0,67.9,2,86.8,19.5c19.9,18.4,40.8,47.1-44.9,46.6c-85.8-0.6-161.8-24.2-233.7-16.7
			S474.3,956,457.1,953.1s105.4-61.6,105.4-61.6l227.5,8.4L797,886.2z"/>
		<path class="st9" d="M733.5,733.5l-85.6-8.6l-85.6,8.6c0,0-5.1,40.4-21.6,62C647.9,834,647.9,834,647.9,834s0,0,107.2-38.5
			C738.6,773.9,733.5,733.5,733.5,733.5z"/>
		<path class="st9" d="M644.5,832.8c3.4,1.2,3.4,1.2,3.4,1.2s0,0,3.4-1.2c19.7-45.4,15-96.3,13.8-106.1l-17.2-1.7l-22,2.2
			C625.5,738,624.7,787.7,644.5,832.8z"/>
		<path class="st10" d="M561.9,736.8c0,0,90,39.7,177,22.5c-3.9-14.1-5.4-25.8-5.4-25.8l-85.6-8.6l-68.7,6.9L561.9,736.8
			L561.9,736.8z"/>
		<path class="st11" d="M603.4,343.4c12.2,10.4,7.5,38.7,7.5,38.7l15.9-2c16.4-14.6,34.8-33,32.1-39.9
			c-4.7-12.2-18.3-24.3-43.3-25.7c-25-1.4-28.9-16.2-28.9-16.2S586.6,333.1,603.4,343.4z"/>
		<path class="st12" d="M644.8,442l-70.7,25.8l-11.7,265.7c0,0,25,11.7,85.6,11.7c0-276.1,0-299.1,0-299.1L644.8,442z"/>
		<path class="st12" d="M651,442l70.7,25.8l11.7,265.7c0,0-25,11.7-85.6,11.7c0-276.1,0-299.1,0-299.1L651,442z"/>
		<path class="st13" d="M574.1,467.8l-0.3,0.1c-20.7,7.4-37.2,23.3-45.4,43.6l-75.9,183.8l64.6,7.7l54.7-134L574.1,467.8z"/>
		<path class="st13" d="M721.8,467.8l0.3,0.1c20.7,7.4,37.2,23.3,45.4,43.6l75.9,183.8l-64.6,7.7l-54.7-134L721.8,467.8z"/>
		<path class="st14" d="M796.9,582.9l-29.5-71.4c-8.2-20.4-24.7-36.2-45.4-43.6l-0.3-0.1l2.4,101.2l15.5,37.9
			C760.3,589.7,781,584.1,796.9,582.9z"/>
		<path class="st14" d="M498.9,582.9l29.5-71.4c8.2-20.4,24.7-36.2,45.4-43.6l0.3-0.1L571.7,569l-15.5,38
			C535.5,589.7,514.8,584.1,498.9,582.9z"/>
		<path class="st15" d="M726.4,572.5c0,0-1.9-2.7-4.6-7.7l2.4,4.2c0,0-26.9,149.4-98.9,175.6l0,0c6.9,0.4,14.4,0.6,22.6,0.6
			c60.6,0,85.6-11.7,85.6-11.7L726.4,572.5z"/>
		<path class="st16" d="M540.8,553c18.2-51.2,19.3-50.8,59.1-60.2c39.9-9.4,32-46.1,32-46.1l-37.2,13.5l-5.7,2.1l-14.9,5.4l-0.3,0.1
			c-20.7,7.4-37.2,23.3-45.4,43.6l-72.8,176.2C486.4,665.1,525.2,596.6,540.8,553z"/>
		<path class="st17" d="M755.1,553c-18.2-51.2-19.3-50.8-59.1-60.2c-39.9-9.4-32-46.1-32-46.1l37.2,13.5l5.7,2.1l14.9,5.4l0.3,0.1
			c20.7,7.4,37.2,23.3,45.4,43.6l72.7,176.3C809.5,665.1,770.6,596.6,755.1,553z"/>
		<path class="st13" d="M648.1,474.8h-0.4c-10.5,0-18.9-8.5-18.9-18.9v-45.2H667v45.2C667.1,466.3,658.6,474.8,648.1,474.8z"/>
		<path class="st18" d="M666.7,445.5c0.1,0,0.2,0,0.3,0v-34.9h-17.8l-20.4,7.4C628.8,418,636.4,445.5,666.7,445.5z"/>
		<path class="st19" d="M692.4,383.5c0,6.8-5.5,12.3-12.3,12.3s-12.3-5.5-12.3-12.3s5.5-12.3,12.3-12.3S692.4,376.7,692.4,383.5z"/>
		<path class="st20" d="M682.5,395.5c1.8-7.1,2.8-16.2,3.4-22.8c-1.7-0.9-3.7-1.5-5.8-1.5c-6.8,0-12.3,5.5-12.3,12.3
			s5.5,12.3,12.3,12.3C681,395.8,681.8,395.7,682.5,395.5z"/>
		<path class="st19" d="M603.4,383.5c0,6.8,5.5,12.3,12.3,12.3s12.3-5.5,12.3-12.3s-5.5-12.3-12.3-12.3S603.4,376.7,603.4,383.5z"/>
		<path class="st20" d="M613.3,395.5c-1.8-7.1-2.8-16.2-3.4-22.8c1.7-0.9,3.7-1.5,5.8-1.5c6.8,0,12.3,5.5,12.3,12.3
			s-5.5,12.3-12.3,12.3C614.9,395.8,614.1,395.7,613.3,395.5z"/>
		<path class="st13" d="M669.5,340.5h-21.6h-21.6l-10.7,23.4l1.8,23.1c1,12.3,8.9,33.7,20.2,38.9c3.3,1.6,6.9,2.6,10.4,2.6
			s7-1,10.4-2.6c11.2-5.2,19.2-26.6,20.2-38.9l1.8-23.1L669.5,340.5z"/>
		<path class="st21" d="M659,369.9c0,0,7.3,2,15.5,0"/>
		<path class="st22" d="M656.7,356.6c0,0,10.6-1.8,17,1.9"/>
		<path class="st21" d="M636.8,369.9c0,0-7.3,2-15.5,0"/>
		<path class="st22" d="M639.2,356.6c0,0-10.6-1.8-17,1.9"/>
		<path class="st16" d="M630.7,390c-1.4-23.4-4.4-49.5-4.4-49.5l-10.7,23.4l0.6,7.3c-0.2,0-0.3,0-0.5,0c-6.8,0-12.3,5.5-12.3,12.3
			s5.5,12.3,12.3,12.3c1.1,0,2.1-0.2,3.1-0.4c2.9,11.9,9.8,26.4,18.8,30.6c3.3,1.6,6.9,2.6,10.4,2.6
			C647.9,428.5,632.1,413.4,630.7,390z"/>
		<g>
			<path class="st23" d="M721.8,837.4l-244.5-74.2c-32.5-9.8-66.6,9.3-75.2,42.1l-0.3,1.2c-8.8,33.8,13.1,68,47.5,74
				c90.4,15.8,254.2,42.7,340.4,46l36.3,24.2c5.5,3.7,12.8,3.1,17.6-1.5l0.2-0.2c5.7-5.4,6-14.3,0.7-20.1l-5.7-6.1
				c0,0-5.1-24.6-30-35.2c-25-10.5-27.3-36.3-33.2-50.4C769.8,823.3,732.3,816.3,721.8,837.4z"/>
			<path class="st7" d="M402.1,805.3c8.6-32.8,42.7-51.9,75.2-42.1l82.9,25.2c-12.5,15.6-29,47.2-29.5,105.9
				c-30.3-4.9-58.3-9.7-81.4-13.7c-34.4-6-56.3-40.2-47.5-74L402.1,805.3z"/>
			<path class="st24" d="M479.3,856.9c0,10-2.4,19.4-6.6,27.7c-8.2-1.4-16-2.8-23.3-4c-34.4-6-56.3-40.2-47.5-74l0.3-1.2
				c0.8-2.9,1.8-5.8,2.9-8.5c4.1-0.9,8.4-1.3,12.8-1.3C451.8,795.5,479.3,823,479.3,856.9z"/>
			<path class="st25" d="M733.5,871.4c0,0-3.5,20.5-37.5,13.2"/>
			<path class="st17" d="M755.1,862c0,0-52.1-2.3-162.3-22c-89.3-15.9-115.4-61.6-122.2-78.4c2.2,0.4,4.4,0.9,6.7,1.6l244.5,74.2
				c10.5-21.1,48.1-14.1,53.9,0c5.9,14.1,8.2,39.9,33.2,50.4s30,35.2,30,35.2s-25.7-16.4-41.9-19.9C780.8,899.5,755.1,862,755.1,862
				z"/>
		</g>
		<path class="st8" d="M766.4,925.2c0,0,44.9,42.9,83.2,25.3c6.4-2.9,8.4-11.1,4.2-16.7c-32.2-43.8-72.9-91.5-88.4-109.4
			c-3.9-4.5-10-6.3-15.7-4.6l-44.1,12.8L766.4,925.2z"/>
		<polygon class="st26" points="705.6,832.5 663.3,819.7 695.3,918.1 766.4,925.2 		"/>
		<path class="st13" d="M574.1,837.4l244.5-74.2c32.5-9.8,66.6,9.3,75.2,42.1l0.3,1.2c8.8,33.8-13.1,68-47.5,74
			c-90.4,15.8-254.2,42.7-340.4,46l-36.3,24.2c-5.5,3.7-12.8,3.1-17.6-1.5l-0.2-0.2c-5.7-5.4-6-14.3-0.7-20.1l5.7-6.1
			c0,0,5.1-24.6,30-35.2c25-10.5,27.3-36.3,33.2-50.4S563.5,816.3,574.1,837.4z"/>
		<path class="st7" d="M893.7,805.3c-8.6-32.8-42.7-51.9-75.2-42.1l-82.9,25.2c12.5,15.6,29,47.2,29.5,105.9
			c30.3-4.9,58.3-9.7,81.4-13.7c34.4-6,56.3-40.2,47.5-74L893.7,805.3z"/>
		<path class="st24" d="M816.6,856.9c0,10,2.4,19.4,6.6,27.7c8.2-1.4,16-2.8,23.3-4c34.4-6,56.3-40.2,47.5-74l-0.3-1.2
			c-0.8-2.9-1.8-5.8-2.9-8.5c-4.1-0.9-8.4-1.3-12.8-1.3C844.1,795.5,816.6,823,816.6,856.9z"/>
		<path class="st17" d="M540.8,862c0,0,52.1-2.3,162.3-22c89.3-15.9,115.4-61.6,122.2-78.4c-2.2,0.4-4.4,0.9-6.7,1.6l-244.5,74.2
			c-10.5-21.1-48.1-14.1-53.9,0s-8.2,39.9-33.2,50.4c-25,10.5-30,35.2-30,35.2s25.7-16.4,41.9-19.9C515.1,899.5,540.8,862,540.8,862
			z"/>
		<path class="st27" d="M487,887.8l-36.6-6.8c-33.2-5.3-55.6-36.6-50-69.8l0.2-1.3c6.2-36.1,42.8-58.4,77.7-47.4l69.2,21.9"/>
		<path class="st12" d="M635.4,389.7c-1.3,0-2.1,1.5-1.3,2.6c3.7,4.7,8.5,7.6,13.9,7.6c5.3,0,10.2-2.9,13.9-7.6c0.8-1,0-2.6-1.3-2.6
			H635.4z"/>
		<path class="st28" d="M651.6,369.4v12.7c0,0-2.9-1.7-7,0"/>
		<rect x="659" y="323.5" class="st13" width="3.1" height="19.9"/>
		<g>
			<path class="st13" d="M843.4,695.3l0.1,0.4c7.3,20.3-1.4,42.9-20.6,52.9L692.4,817l-0.6-1.7c-11.5-29.7,0.5-63.4,28.3-79
				l58.8-33.3L843.4,695.3z"/>
			<path class="st17" d="M815.8,737.2c0,4.8,1.2,9.4,3.3,13.3l3.8-2c15.1-7.9,23.7-23.6,23.1-39.9c-0.5,0-1-0.1-1.6-0.1
				C828.6,708.6,815.8,721.4,815.8,737.2z"/>
			<line class="st29" x1="778.8" y1="703" x2="815.8" y2="682"/>
		</g>
		<g>
			<path class="st13" d="M452.9,695.3l-0.1,0.4c-7.3,20.3,1.5,42.9,20.6,52.9L603.9,817l0.6-1.7c11.5-29.7-0.5-63.4-28.3-79
				L517.4,703L452.9,695.3z"/>
			<path class="st17" d="M480.4,737.2c0,4.8-1.2,9.4-3.3,13.3l-3.8-2c-15.1-7.9-23.7-23.6-23.1-39.9c0.5,0,1-0.1,1.6-0.1
				C467.6,708.6,480.4,721.4,480.4,737.2z"/>
			<line class="st29" x1="517.4" y1="703" x2="480.4" y2="682"/>
		</g>
		<path class="st29" d="M589.3,809.4c0,0,6.6-36.1-14.9-47.7"/>
		<path class="st29" d="M706.5,809.4c0,0-6.6-36.1,14.9-47.7"/>
		<path class="st8" d="M529.5,925.2c0,0-44.9,42.9-83.2,25.3c-6.4-2.9-8.4-11.1-4.2-16.7c32.2-43.8,72.9-91.5,88.4-109.4
			c3.9-4.5,10-6.3,15.7-4.6l44.1,12.8L529.5,925.2z"/>
		<polygon class="st30" points="590.3,832.5 632.5,819.7 600.5,918.1 529.5,925.2 		"/>
		<path class="st17" d="M572.7,859.3c12.5-1.3,28.8-3.3,48.9-6.1l10.9-33.4l-42.2,12.8L572.7,859.3z"/>
		<path class="st31" d="M542.9,895.3l-24.5,37.3c-1.5,2.3-4.3,3.6-7,3.2h-0.2c-5.3-0.7-8-6.8-5-11.2l25.1-37
			c1.6-2.4,4.5-3.5,7.3-2.8h0.1C543.4,885.9,545.6,891.3,542.9,895.3z"/>
		<g>
			<g>
				<polygon class="st3" points="644.6,679.5 494.7,679.5 531.6,811.2 644.6,811.2 757.5,811.2 794.5,679.5 				"/>
				<rect x="531.6" y="811.2" class="st5" width="225.9" height="19.2"/>
				<ellipse class="st6" cx="644.8" cy="755.7" rx="36.7" ry="18.8"/>
				<rect x="494.7" y="670.8" class="st6" width="299.8" height="8.7"/>
				<rect x="544.1" y="816.7" class="st6" width="22.6" height="7.7"/>
				<rect x="576.8" y="816.7" class="st6" width="22.6" height="7.7"/>
				<line class="st32" x1="757.5" y1="820.8" x2="620" y2="820.8"/>
				<path class="st33" d="M494.7,679.5l37,131.6h80.5C660,755.7,689,679.5,689,679.5l-0.1-8.7H494.7V679.5z"/>
			</g>
			<line class="st34" x1="494.7" y1="679.5" x2="794.5" y2="679.5"/>
		</g>
	</g>
	<g>
		<ellipse class="st2" cx="338.9" cy="925.2" rx="54.4" ry="2.8"/>
		<g>
			<g>
				<path class="st6" d="M346.9,898.1l3.6-3.9l-1.8,1.9l1.8-1.9c-0.4-0.4-43.3-43.9,8.5-239.9l-5.1-1.3
					C300.9,853.1,345,896.4,346.9,898.1z"/>
				<g>
					<path class="st6" d="M330.9,657.7c19.6,17.8,16.2,38.9,16.2,38.9s-19.7-8.4-24.2-34.5C322.1,657.5,327.4,654.6,330.9,657.7z"/>
					<path class="st6" d="M380,670.3c-25.8,6.2-32.9,26.3-32.9,26.3s21.3,2.1,37.8-18.6C387.8,674.4,384.5,669.2,380,670.3z"/>
				</g>
				<g>
					<path class="st6" d="M317.4,709c21.3,15.8,20,37.1,20,37.1s-20.4-6.4-27.6-31.9C308.6,709.7,313.7,706.2,317.4,709z"/>
					<path class="st6" d="M367.6,716.6c-25,8.8-30.1,29.5-30.1,29.5s21.4,0,35.8-22.3C375.7,719.9,371.9,715,367.6,716.6z"/>
				</g>
				<g>
					<path class="st6" d="M308.9,753.9c22.4,14.2,22.7,35.5,22.7,35.5s-20.8-4.8-29.8-29.8C300.2,755.3,305,751.4,308.9,753.9z"/>
					<path class="st6" d="M359.5,757.8c-24.3,10.6-27.8,31.7-27.8,31.7s21.3-1.6,34-24.9C367.9,760.5,363.7,755.9,359.5,757.8z"/>
				</g>
				<path class="st6" d="M372.9,618.4c0.4,26.5-17.3,38.5-17.3,38.5s-7.4-20.1,8.6-41.3C367,611.9,372.8,613.8,372.9,618.4z"/>
			</g>
			<rect x="308.4" y="811.2" class="st7" width="57" height="112.7"/>
			<rect x="342.6" y="811.2" class="st24" width="22.8" height="112.7"/>
		</g>
	</g>
	<g>
		<g>
			<path class="st9" d="M390.4,273.5l-20.5,5.1c-3,0.7-6-1.1-6.7-4l-2-7.9l31.3-7.8l2,7.9C395.2,269.7,393.3,272.8,390.4,273.5z"/>
			<path class="st9" d="M466.6,249l-177.1,44.1c-3.1,0.8-6.2-1.1-6.9-4.2l-29.2-117.5c-0.8-3.1,1.1-6.2,4.2-6.9l177.1-44.1
				c3.1-0.8,6.2,1.1,6.9,4.2l29.2,117.5C471.5,245.2,469.6,248.3,466.6,249z"/>
			<polygon class="st7" points="461.3,228.7 456.4,242.9 299.2,282 285.3,272.5 256.3,156.1 432.4,112.3 			"/>
			
				<rect x="269.5" y="143.7" transform="matrix(0.9704 -0.2413 0.2413 0.9704 -39.8736 81.7177)" class="st12" width="88.4" height="119.9"/>
			
				<rect x="265.7" y="153.5" transform="matrix(0.9704 -0.2413 0.2413 0.9704 -28.6247 77.4742)" class="st3" width="72.6" height="4.2"/>
			
				<rect x="269" y="166.5" transform="matrix(0.9704 -0.2414 0.2414 0.9704 -31.6736 78.6901)" class="st3" width="72.6" height="4.2"/>
			
				<rect x="272.2" y="179.5" transform="matrix(0.9704 -0.2413 0.2413 0.9704 -34.7064 79.8112)" class="st3" width="72.6" height="4.2"/>
			
				<rect x="275.5" y="192.5" transform="matrix(0.9704 -0.2413 0.2413 0.9704 -37.7459 80.9918)" class="st3" width="72.6" height="4.2"/>
			
				<rect x="278.7" y="205.6" transform="matrix(0.9704 -0.2414 0.2414 0.9704 -40.8255 82.1879)" class="st3" width="72.6" height="4.2"/>
			
				<rect x="281.9" y="218.6" transform="matrix(0.9704 -0.2413 0.2413 0.9704 -43.8545 83.3072)" class="st3" width="72.6" height="4.2"/>
			
				<rect x="285.2" y="231.6" transform="matrix(0.9704 -0.2413 0.2413 0.9704 -46.8941 84.4878)" class="st3" width="72.6" height="4.2"/>
			
				<rect x="288.4" y="244.6" transform="matrix(0.9704 -0.2414 0.2414 0.9704 -49.953 85.6831)" class="st3" width="72.6" height="4.2"/>
			
				<rect x="359.8" y="121.2" transform="matrix(0.9704 -0.2414 0.2414 0.9704 -31.7841 102.8878)" class="st12" width="88.4" height="119.9"/>
			
				<rect x="355.4" y="131.2" transform="matrix(0.9704 -0.2414 0.2414 0.9704 -20.5969 98.5031)" class="st3" width="72.6" height="4.2"/>
			
				<rect x="358.6" y="144.2" transform="matrix(0.9704 -0.2413 0.2413 0.9704 -23.6353 99.6163)" class="st3" width="72.6" height="4.2"/>
			
				<rect x="361.9" y="157.2" transform="matrix(0.9704 -0.2413 0.2413 0.9704 -26.6748 100.7969)" class="st3" width="72.6" height="4.2"/>
			
				<rect x="365.1" y="170.2" transform="matrix(0.9704 -0.2414 0.2414 0.9704 -29.7245 101.9983)" class="st3" width="72.6" height="4.2"/>
			
				<rect x="368.3" y="183.3" transform="matrix(0.9704 -0.2413 0.2413 0.9704 -32.7834 103.1122)" class="st3" width="72.6" height="4.2"/>
			
				<rect x="371.6" y="196.3" transform="matrix(0.9704 -0.2413 0.2413 0.9704 -35.823 104.2928)" class="st3" width="72.6" height="4.2"/>
			
				<rect x="374.8" y="209.3" transform="matrix(0.9704 -0.2414 0.2414 0.9704 -38.8764 105.4961)" class="st3" width="72.6" height="4.2"/>
			
				<rect x="378" y="222.3" transform="matrix(0.9704 -0.2413 0.2413 0.9704 -41.9073 106.6055)" class="st3" width="72.6" height="4.2"/>
			<path class="st7" d="M385,266.7l-13.6,3.4c-3,0.7-6-1.1-6.7-4l-1.2-5l24.3-6.1l1.2,5C389.8,262.9,388,265.9,385,266.7z"/>
		</g>
		<g>
			<path class="st7" d="M686.2,99.3c-7-6.7-15.9-11.3-25.1-14.3c-0.1,0-0.2-0.1-0.4-0.1c-8.3-2.2-17-2.2-25.3,0
				C635.2,85,635,85,635,85c-9.2,3.1-18.1,7.6-25.1,14.3c-21,19.9-17.5,56.1,2.9,75.2c5.7,5.4,8.2,12.3,10,19.9
				c0.5,2.3,3.6,26.2,2.5,26.2c10.2,0,22.8,0,22.8,0s12.6,0,22.8,0c-1.1,0,2-23.9,2.5-26.2c1.8-7.6,4.3-14.5,10-19.9
				C703.8,155.4,707.2,119.2,686.2,99.3z"/>
			<path class="st16" d="M639.9,194.4c-1.8-7.6-4.3-14.5-10-19.9c-20.4-19.1-23.8-55.2-2.9-75.2c7-6.7,15.9-11.3,25.1-14.3
				c0.1,0,0.2-0.1,0.4-0.1c1.4-0.4,2.7-0.6,4.1-0.9c-7-1.2-14.3-1-21.2,0.9c-0.2,0.1-0.3,0.1-0.4,0.1c-9.2,3.1-18.1,7.6-25.1,14.3
				c-21,19.9-17.5,56.1,2.9,75.2c5.7,5.4,8.2,12.3,10,19.9c0.5,2.3,3.6,26.2,2.5,26.2c5.9,0,12.5,0,17.1,0
				C643.4,220.6,640.4,196.7,639.9,194.4z"/>
			<path class="st35" d="M648.1,220.6v-55.8l9.8-5.7c3.2-1.9,2.6-6.7-1-7.7l-17.9-4.7c-3-0.8-3.4-5-0.5-6.3l9.6-4.3v-18.9"/>
			<path class="st8" d="M675.4,228.3c0,1.7-1.4,3.1-3.1,3.1h-50.1c-1.7,0-3.1-1.4-3.1-3.1l0,0c0-1.7,1.4-3.1,3.1-3.1h50.2
				C674,225.2,675.4,226.6,675.4,228.3L675.4,228.3z"/>
			<path class="st8" d="M675.4,237.5c0,1.7-1.4,3.1-3.1,3.1h-50.1c-1.7,0-3.1-1.4-3.1-3.1l0,0c0-1.7,1.4-3.1,3.1-3.1h50.2
				C674,234.4,675.4,235.8,675.4,237.5L675.4,237.5z"/>
			<path class="st8" d="M675.4,246.7c0,1.7-1.4,3.1-3.1,3.1h-50.1c-1.7,0-3.1-1.4-3.1-3.1l0,0c0-1.7,1.4-3.1,3.1-3.1h50.2
				C674,243.6,675.4,245,675.4,246.7L675.4,246.7z"/>
			<path class="st8" d="M647.3,271.3c9.9,0,17.9-8,17.9-17.9h-35.8C629.3,263.2,637.4,271.3,647.3,271.3z"/>
		</g>
		<g>
			<path class="st36" d="M859.5,283v-14.4h-6.3c-1.2-6.9-4-13.1-8-18.5l5.1-5.1l-10.2-10.2l-5.2,5.2c-5.4-3.7-11.6-6.1-18.3-7.1
				v-7.5h-14.4v7.8c-6.4,1.2-12.4,3.9-17.5,7.6l-5.1-5.1L769.2,246l5.2,5.2c-3.8,5.4-6.4,11.6-7.4,18.4h-7.2V284h7.3
				c1.2,6.6,3.8,12.7,7.6,17.9l-5.6,5.6l10.2,10.2l5.7-5.7c5.2,3.7,11.3,6.2,17.9,7.3v7.8h14.4v-7.8c6.5-1.1,12.6-3.6,17.8-7.3
				l4.8,4.8l10.2-10.2l-4.7-4.7c4-5.5,6.7-11.9,7.8-18.9L859.5,283L859.5,283z M810.1,300.8c-13.6,0-24.5-11-24.5-24.5
				c0-13.6,11-24.5,24.5-24.5c13.6,0,24.5,11,24.5,24.5C834.7,289.8,823.7,300.8,810.1,300.8z"/>
			<path class="st37" d="M917,337.8v-8.3h-3.7c-0.7-4-2.3-7.6-4.6-10.7l2.9-2.9l-5.9-5.9l-3,3c-3.1-2.1-6.7-3.5-10.6-4.1v-4.3h-8.3
				v4.5c-3.7,0.7-7.1,2.2-10.1,4.4l-2.9-2.9l-5.9,5.9l3,3c-2.2,3.1-3.7,6.7-4.3,10.6h-4.1v8.3h4.2c0.7,3.8,2.2,7.3,4.4,10.3
				l-3.3,3.3l5.9,5.9l3.3-3.3c3,2.1,6.5,3.6,10.3,4.2v4.5h8.3v-4.5c3.8-0.6,7.3-2.1,10.3-4.2l2.8,2.8l5.9-5.9l-2.7-2.7
				c2.3-3.2,3.9-6.9,4.5-10.9L917,337.8L917,337.8z M888.6,348c-7.8,0-14.2-6.3-14.2-14.2c0-7.8,6.3-14.2,14.2-14.2
				s14.2,6.3,14.2,14.2C902.7,341.7,896.4,348,888.6,348z"/>
			<g>
				<path class="st5" d="M1048.2,230v-29.6h-13.1c-2.5-14.1-8.2-27-16.4-38l10.4-10.4l-20.9-20.9l-10.9,10.7
					c-11-7.5-23.8-12.6-37.7-14.6v-15.4H930v16c-13.2,2.5-25.4,7.9-35.9,15.5l-10.5-10.5l-20.9,21l10.6,10.6
					c-7.8,11-13,23.9-15.2,37.8h-14.7v29.6h15c2.4,13.6,7.9,26.1,15.7,36.8l-11.6,11.6l20.9,20.9l11.7-11.7
					c10.7,7.6,23.2,12.8,36.7,15v16h29.6v-16c13.4-2.2,25.9-7.4,36.6-14.9l9.8,9.8l20.9-20.9l-9.6-9.6c8.2-11.2,13.8-24.5,16.1-38.8
					L1048.2,230L1048.2,230z M946.7,266.4c-27.8,0-50.4-22.6-50.4-50.4s22.6-50.4,50.4-50.4s50.4,22.6,50.4,50.4
					S974.6,266.4,946.7,266.4z"/>
				<circle class="st36" cx="945.8" cy="216.1" r="29.6"/>
			</g>
		</g>
		<g>
			<path class="st6" d="M369.8,367.4c-63.5,3.9-112.9,41.9-110.3,85s56.2,74.9,119.8,71.1h0.1c6.3-0.4,10.6-6.4,9.1-12.5
				c-0.8-3-1.2-6-1.2-9.2c-0.3-20.6,15.6-38.2,36-40.1c14.9-1.3,28.4,5.6,36.3,17c3.9,5.6,12.1,6,16.3,0.6
				c9.6-12.3,14.6-26.3,13.7-40.9C486.9,395.4,433.3,363.5,369.8,367.4z"/>
			<g>
				<path class="st5" d="M369.3,360.4c-63.5,3.9-112.9,41.9-110.3,85s56.2,74.9,119.8,71.1h0.1c6.3-0.4,10.6-6.4,9.1-12.5
					c-0.8-3-1.2-6-1.2-9.2c-0.3-20.6,15.6-38.2,36-40.1c14.9-1.3,28.4,5.6,36.3,17c3.9,5.6,12.1,6,16.3,0.6
					C485,460,490,446,489.1,431.4C486.5,388.4,432.9,356.6,369.3,360.4z"/>
				<path class="st7" d="M346.9,482.6c0.5,7.7-5.4,14.2-13,14.7c-7.7,0.5-14.2-5.4-14.7-13c-0.5-7.7,5.4-14.2,13-14.7
					C339.9,469.2,346.4,475,346.9,482.6z"/>
				<path class="st7" d="M309.1,456.3c0.5,7.7-5.4,14.2-13,14.7c-7.7,0.5-14.2-5.4-14.7-13c-0.5-7.7,5.4-14.2,13-14.7
					C302,442.9,308.6,448.7,309.1,456.3z"/>
				<path class="st7" d="M320.2,410.4c0.5,7.7-5.4,14.2-13,14.7c-7.7,0.5-14.2-5.4-14.7-13c-0.5-7.7,5.4-14.2,13-14.7
					S319.7,402.7,320.2,410.4z"/>
				<path class="st7" d="M367.1,385.5c0.5,7.7-5.4,14.2-13,14.7c-7.7,0.5-14.2-5.4-14.7-13c-0.5-7.7,5.4-14.2,13-14.7
					S366.6,377.8,367.1,385.5z"/>
				<path class="st7" d="M419.9,386.2c0.5,7.7-5.4,14.2-13,14.7c-7.7,0.5-14.2-5.4-14.7-13c-0.5-7.7,5.4-14.2,13-14.7
					C412.9,372.7,419.5,378.5,419.9,386.2z"/>
				<path class="st7" d="M464.5,411.3c0.5,7.7-5.4,14.2-13,14.7c-7.7,0.5-14.2-5.4-14.7-13c-0.5-7.7,5.4-14.2,13-14.7
					C457.5,397.8,464.1,403.7,464.5,411.3z"/>
			</g>
			<path class="st38" d="M431.2,368.6L418.1,396c-1.7-0.1-3.4,0.9-4.1,2.6v0.1c-0.9,2.1,0.2,4.6,2.3,5.5l1.2,0.5
				c-0.2-0.1-1.5-0.2-4.1,3.6l0,0l0,0c-0.2,0.2-0.3,0.5-0.5,0.7c0,0,0,0.1-0.1,0.1c-0.2,0.2-0.3,0.5-0.5,0.8c0,0.1-0.1,0.1-0.1,0.2
				c-0.2,0.3-0.3,0.5-0.5,0.8c0,0.1-0.1,0.2-0.1,0.3c-0.2,0.3-0.3,0.5-0.5,0.8c-0.1,0.1-0.1,0.2-0.2,0.4c-0.2,0.3-0.3,0.6-0.5,0.9
				c-0.1,0.1-0.2,0.3-0.2,0.5c-0.2,0.3-0.3,0.6-0.5,0.9c-0.1,0.2-0.2,0.4-0.3,0.6c-0.2,0.3-0.3,0.6-0.5,0.9
				c-0.1,0.2-0.2,0.5-0.3,0.7c-0.2,0.3-0.3,0.6-0.5,1c-0.1,0.3-0.2,0.5-0.4,0.8s-0.3,0.7-0.5,1c-0.1,0.3-0.3,0.6-0.4,0.9
				c-0.2,0.3-0.3,0.7-0.5,1.1c-0.2,0.3-0.3,0.7-0.5,1.1s-0.3,0.7-0.5,1.1s-0.3,0.8-0.5,1.2c-0.2,0.4-0.3,0.7-0.5,1.1
				c-0.2,0.5-0.4,0.9-0.6,1.4c-0.2,0.4-0.3,0.8-0.5,1.1c-0.2,0.5-0.4,1.1-0.6,1.6c-0.1,0.4-0.3,0.7-0.4,1.1
				c-0.3,0.7-0.5,1.4-0.8,2.1c-0.1,0.3-0.2,0.6-0.3,0.9c-0.4,1-0.8,2.1-1.1,3.2c-1,2.9-2.3,6.3-3.6,10.2c-0.2,0.4-0.3,0.9-0.5,1.3
				c-0.2,0.6-0.4,1.2-0.6,1.8c-0.2,0.5-0.3,1-0.5,1.5c-0.3,0.8-0.6,1.6-0.8,2.4c-0.1,0.4-0.3,0.7-0.4,1.1c-0.3,0.8-0.6,1.6-0.9,2.4
				c-0.1,0.4-0.3,0.8-0.4,1.3c-0.3,0.8-0.5,1.6-0.8,2.3c-0.2,0.5-0.3,1-0.5,1.5c-0.3,0.9-0.6,1.8-1,2.8c-0.1,0.4-0.2,0.7-0.4,1
				c-0.3,1-0.7,1.9-1,2.9c-0.1,0.4-0.3,0.8-0.4,1.2c-0.3,0.9-0.6,1.8-1,2.7c-0.2,0.5-0.3,0.9-0.5,1.4c-0.3,1-0.7,2-1,2.9
				c-0.1,0.4-0.3,0.8-0.4,1.3c-0.3,1-0.7,1.9-1,2.9c-0.2,0.5-0.3,1-0.5,1.5c-0.3,0.9-0.6,1.8-0.9,2.7c-0.2,0.6-0.4,1.3-0.7,1.9
				c-0.3,0.8-0.5,1.5-0.8,2.3c-0.3,0.7-0.5,1.5-0.8,2.2c-0.3,0.8-0.6,1.6-0.8,2.5c-0.1,0.4-0.3,0.9-0.4,1.3l0,0l0,0
				c-2.3,6.7-4.6,13.5-6.9,20.2c2-0.1,4-0.1,6.1-0.3h0.1c6.3-0.4,10.6-6.4,9.1-12.5c-0.8-3-1.2-6-1.2-9.2
				c-0.3-18,11.9-33.8,28.6-38.7c1.9-4,3.5-7.6,4.9-10.6c14.7-32.3,11.1-35.2,10.6-35.4l1.2,0.5c2.1,0.9,4.6-0.2,5.5-2.3v-0.1
				c0.8-2,0-4.3-1.9-5.3l9.8-28.2C441,372.5,436.2,370.4,431.2,368.6z M417.6,404.7L417.6,404.7l0.3,0.1L417.6,404.7z"/>
			<path class="st39" d="M317.8,408.2c0.2,3.2-2.2,6-5.4,6.2c-3.2,0.2-6-2.2-6.2-5.4c-0.2-3.2,2.2-6,5.4-6.2
				C314.8,402.6,317.6,405,317.8,408.2z"/>
			<path class="st39" d="M364.7,383.9c0.2,3.2-2.2,6-5.4,6.2c-3.2,0.2-6-2.2-6.2-5.4c-0.2-3.2,2.2-6,5.4-6.2
				C361.8,378.2,364.5,380.7,364.7,383.9z"/>
			<path class="st39" d="M414.4,382.6c0.2,3.2-2.2,6-5.4,6.2s-6-2.2-6.2-5.4s2.2-6,5.4-6.2C411.5,377,414.2,379.4,414.4,382.6z"/>
			<path class="st39" d="M303.2,452.2c0.2,3.2-2.2,6-5.4,6.2c-3.2,0.2-6-2.2-6.2-5.4c-0.2-3.2,2.2-6,5.4-6.2
				C300.3,446.6,303,449,303.2,452.2z"/>
			<path class="st39" d="M344.4,478.6c0.2,3.2-2.2,6-5.4,6.2c-3.2,0.2-6-2.2-6.2-5.4c-0.2-3.2,2.2-6,5.4-6.2
				C341.4,473,344.2,475.4,344.4,478.6z"/>
			<g>
				<path class="st7" d="M482,360.4c0,0,19-10.4,20.2-26.4c-0.1-9.5-4.2-17.2-4.2-17.2l-2.6,9.8c0,0-1.4-15.3-12.4-22.7
					c-10.9-7.4-8.2-5.3-8.2-5.3s9.2,12.2-1,32.4c-10.2,20.2,2.7,27.2,2.7,27.2L482,360.4z"/>
				<path class="st9" d="M480.8,353.8c0,0-3.4-17.6,4.4-27c-10.2,12.9-12.3,23.3-9.7,31.7C480.8,353.8,480.8,353.8,480.8,353.8z"/>
				<path class="st12" d="M471.7,357.3c1.7-3.4,5.7-4.9,9.2-3.5h0.1h0.1c3.5,1.4,5.3,5.3,4.1,8.9L472.7,401l-9.4-3.8l-9.4-3.8
					L471.7,357.3z"/>
				<path class="st40" d="M452.4,402l15.9,6.5c2.1,0.9,4.6-0.2,5.5-2.3v-0.1c0.9-2.1-0.2-4.6-2.3-5.5l-15.9-6.5
					c-2.1-0.9-4.6,0.2-5.5,2.3v0.1C449.2,398.6,450.2,401.1,452.4,402z"/>
				<path class="st8" d="M453.7,402.5l6.7,2.7l6.7,2.7c0,0,5.1,1.2-10.6,35.4c-11.6,25.4-41.5,89.2-58.7,123.3
					c-1.6,3.2-6.4,1.2-5.4-2.2c11.5-36.4,34.7-102.9,44.1-129.2C449.2,399.8,453.7,402.5,453.7,402.5z"/>
				<path class="st12" d="M418.1,525c-7.4,15.5-14.6,30.3-20.4,41.7c-1.6,3.2-6.4,1.2-5.4-2.2c3.8-12.2,9-27.8,14.5-44.1L418.1,525z
					"/>
				<path class="st41" d="M415.7,494.4L415.7,494.4c24.5-30.3,33.7-88.1,33.7-88.3c-2.7,4-6.9,12.2-13,29.1
					C431.9,448.1,424,470.5,415.7,494.4z"/>
			</g>
		</g>
		<g>
			<polygon class="st37" points="889.9,423.3 894.3,432.1 904,433.5 897,440.3 898.6,450 889.9,445.4 881.3,450 882.9,440.3 
				875.9,433.5 885.6,432.1 			"/>
			<polygon class="st36" points="1014.9,411 1020.9,423.3 1034.5,425.2 1024.7,434.8 1027,448.3 1014.9,441.9 1002.8,448.3 
				1005.1,434.8 995.3,425.2 1008.8,423.3 			"/>
			<polygon class="st37" points="977,595 980.3,601.8 987.9,602.9 982.4,608.3 983.7,615.8 977,612.3 970.2,615.8 971.5,608.3 
				966,602.9 973.6,601.8 			"/>
			<polygon class="st36" points="856.3,548.6 862.4,560.8 875.9,562.8 866.1,572.4 868.4,585.9 856.3,579.5 844.2,585.9 
				846.5,572.4 836.7,562.8 850.2,560.8 			"/>
			<g>
				<g>
					<ellipse class="st7" cx="947.4" cy="514.9" rx="67.6" ry="67.6"/>
				</g>
				<g class="st42">
					<path class="st9" d="M929.1,579.9c23.9,6.7,48.3-0.4,65-16.4c-11.3,3-23.5,3.2-35.6-0.2c-35.9-10-57-47.3-46.9-83.2
						c3.4-12.1,9.8-22.5,18.3-30.5c-22.3,6-41,23.2-47.7,47.1C872.2,532.6,893.2,569.9,929.1,579.9z"/>
				</g>
				<path class="st16" d="M965.4,449.8c-3.4-0.9-6.7-1.6-10.1-2c-1.8,6.3-2.7,13-2.7,19.8c0,35.2,24.6,64.6,57.6,72
					c0.8-2.1,1.6-4.3,2.2-6.6C1022.4,497.1,1001.4,459.8,965.4,449.8z"/>
				<path class="st43" d="M880,509.3c-26.2-10.2-42.5-19.5-41.1-24.4c2.3-8.2,52.6-1.3,112.4,15.4c59.8,16.7,106.4,36.8,104.1,45
					c-1.4,4.9-20,4.4-47.5-0.4"/>
			</g>
		</g>
	</g>
</g>
</svg>
