<?xml version="1.0" encoding="utf-8"?>
<!-- Generator: Adobe Illustrator 26.0.1, SVG Export Plug-In . SVG Version: 6.00 Build 0)  -->
<svg version="1.1" id="Layer_1" xmlns="http://www.w3.org/2000/svg" xmlns:xlink="http://www.w3.org/1999/xlink" x="0px" y="0px"
	 viewBox="0 0 1600 1402" style="enable-background:new 0 0 1600 1402;" xml:space="preserve">
<style type="text/css">
	.st0{fill:#F5F5F5;}
	.st1{fill:#E6E6E6;}
	.st2{fill:#37474F;}
	.st3{fill:#455A64;}
	.st4{fill:#FF725E;}
	.st5{opacity:0.6;}
	.st6{fill:#FFFFFF;}
	.st7{fill:#E0E0E0;}
	.st8{fill:#EBEBEB;}
	.st9{opacity:0.15;}
	.st10{opacity:0.2;fill:#FFFFFF;enable-background:new    ;}
	.st11{fill:#F0F0F0;}
	.st12{opacity:0.2;enable-background:new    ;}
	.st13{opacity:0.3;fill:#FFFFFF;enable-background:new    ;}
	.st14{opacity:0.3;enable-background:new    ;}
	.st15{opacity:0.39;}
	.st16{opacity:0.3;}
	.st17{opacity:0.5;}
	.st18{fill:#263238;}
	.st19{fill:none;}
	.st20{opacity:0.4;enable-background:new    ;}
	.st21{fill:#FFC3C2;}
	.st22{opacity:0.6;fill:#FFFFFF;enable-background:new    ;}
	.st23{fill:#FFA8A7;}
</style>
<g>
	<g id="freepik--Floor--inject-16">
		<path class="st0" d="M1203.4,711.4C968.6,576,589.1,576,355.9,711.4s-232.1,355.3,2.6,490.9s614.2,135.6,847.5,0
			S1438.1,847,1203.4,711.4z"/>
	</g>
	<g id="freepik--Shadows--inject-16">
		<path class="st1" d="M1299.6,965c21.1-12.2,55.1-12.2,75.9,0c21,12.2,20.8,31.8-0.2,43.9c-21.1,12.1-55.1,12.2-75.9,0
			C1278.5,996.9,1278.7,977.1,1299.6,965z"/>
		<polygon class="st1" points="584.4,746.6 1239.5,1122.1 1273.1,1102.6 617.9,727.2 		"/>
	</g>
	<g id="freepik--light-bulb--inject-16">
		<g id="freepik--freepik--light-bulb--inject-77--inject-16">
			<g id="freepik--freepik--Idea--inject-77--inject-16">
				<g id="freepik--freepik--light--inject-77--inject-16">
					<path class="st2" d="M485.7,320.4c2.5,6.2-0.5,13.1-6.6,15.6c-6.2,2.5-13.1-0.5-15.6-6.6c-2.5-6.2,0.4-13,6.5-15.6
						s13.1,0.2,15.7,6.4l0,0V320.4z"/>
					<path class="st3" d="M461.4,331.5c-9.1-1.1-12.1-8.1-6.5-15.4c6.5-7.8,16.5-12,26.5-11.2c9.1,1.1,12.1,8.1,6.5,15.3
						C481.4,328.1,471.6,332.2,461.4,331.5z"/>
					<path class="st2" d="M459.4,327.7c-9.5-1.2-12.4-8.3-6.7-16c6.7-8.1,16.9-12.3,27.5-11.7c9.5,1.2,12.4,8.3,6.6,16
						C480,324.2,469.8,328.4,459.4,327.7z"/>
					<path class="st3" d="M457.2,323.8c-9.7-1.2-12.8-8.4-6.7-16c6.9-8.3,17.3-12.7,28.1-12.1c9.7,1.2,12.8,8.4,7,16.2
						C478.4,320.3,468,324.6,457.2,323.8z"/>
					<path class="st2" d="M454.9,319.7c-9.9-1.2-13.1-8.8-7.1-16.7c7.2-8.5,18-13.1,29.2-12.4c9.9,1.2,13.1,8.8,7.1,16.8
						C476.9,315.9,466,320.5,454.9,319.7z"/>
					<path class="st3" d="M452.6,315.4c-10.4-1.4-13.5-8.9-7.3-17.2c7.3-8.6,18.4-13.4,29.7-12.5c10.2,1.2,13.5,8.9,7.2,17.2
						C475,311.6,464,316.2,452.6,315.4z"/>
					<path class="st4" d="M412.8,180c-29.1,12.3-42.7,45.8-30.5,74.9v0.2c17.6,41.9,55.2,34.2,62.5,51c1.7,3.1,5,5.1,8.5,5.2
						c9.8,0.7,19.4-3.4,25.7-10.9c2.4-2.6,3.2-6.3,2.1-9.6l0,0c-7.2-16.9,24.4-38.5,6.6-80.4C475.7,181.3,442.1,167.5,412.8,180
						C413,179.8,413,179.8,412.8,180L412.8,180z"/>
					<g class="st5">
						<path class="st6" d="M412.8,180c-29.1,12.3-42.7,45.8-30.5,74.9v0.2c17.6,41.9,55.2,34.2,62.5,51c1.7,3.1,5,5.1,8.5,5.2
							c9.8,0.7,19.4-3.4,25.7-10.9c2.4-2.6,3.2-6.3,2.1-9.6l0,0c-7.2-16.9,24.4-38.5,6.6-80.4C475.7,181.3,442.1,167.5,412.8,180
							C413,179.8,413,179.8,412.8,180L412.8,180z"/>
					</g>
					<path class="st4" d="M455.6,307.8c-6.5-0.9-8.8-5.8-4.9-11c4.9-5.6,12.1-8.6,19.4-8.1c6.5,0.9,8.8,5.8,4.7,11.1
						C470,305.5,462.9,308.4,455.6,307.8z"/>
					<path class="st6" d="M469.3,293.9c-0.9,0.4-2,0-2.5-0.9c-4.3-10.2-7.3-20.8-9.1-31.7c-0.5-3.2-0.8-6.3-0.8-9.5
						c-1.9,0.1-3.7,0-5.6-0.4c-3.3-0.5-6.5-1.5-9.6-3.1c-1.1,3.2-2.6,6.2-4.5,8.9c-1.1,1.4-2.4,2.8-3.7,4c2.2,2.2,4.3,4.7,6.2,7.2
						c6.6,8.9,12.2,18.5,16.5,28.7c0.4,0.9-0.1,2.1-1.1,2.5l0,0c-0.9,0.4-2.1-0.1-2.5-1.1c-4.3-9.8-9.6-19.1-16-27.7
						c-1.9-2.6-3.9-5-6.2-7.2c-3.3,2.2-7.6,2.7-11.2,1.3c-2.8-1.1-4.6-4-4-7.1c0.5-2,2-3.6,4-4c4.4-0.1,8.5,1.7,11.4,4.9
						c1.2-1.1,2.4-2.4,3.3-3.8c1.9-2.6,3.3-5.6,4.3-8.6c-3.4-1.9-5.9-5.1-6.9-8.9c-0.2-3.1,2-5.7,5.1-5.9c1.8-0.1,3.4,0.6,4.5,1.9
						c2.1,3.3,2.7,7.3,1.7,11.1c2.8,1.4,5.9,2.5,9.1,3c1.7,0.2,3.3,0.2,5,0c-0.2-4.3,1.3-8.5,4.5-11.5c1.8-1.2,4-1.2,5.8,0
						c2.6,1.7,3.6,4.9,2.4,7.7c-1.5,3.7-4.9,6.4-8.8,7.2c0.1,3.2,0.4,6.3,0.8,9.5c1.8,10.5,4.7,20.8,8.8,30.8c0.5,0.9,0,2.1-0.9,2.6
						v0.2H469.3z M419.8,257.7c-0.4,0.2-0.7,0.6-0.7,1.1c-0.4,1.5,1.2,2.5,1.7,2.6c2.1,0.8,4.5,0.6,6.5-0.6c-1.9-2-4.5-3.1-7.2-3.3
						L419.8,257.7z M461,246.9c2.2-0.7,4-2.2,5-4.4c0-0.5,0.7-2.2-0.7-3.1c-0.5-0.4-1.1-0.4-1.5,0
						C462.5,240.1,461.3,242.6,461,246.9z M436.4,235.5c-0.7,0.2-1.1,0.8-0.9,1.5l0,0c0.6,2.2,2,4,4,5.3c0.4-2.2,0-4.5-1.1-6.5
						c-0.4-0.6-1.2-0.8-1.8-0.5L436.4,235.5z"/>
				</g>
				<path class="st7" d="M404.6,159.8c-0.2,0.2-0.5,0.5-0.8,0.6c-1.9,0.8-4.1-0.1-5-2l-7.7-18c-0.8-1.9,0-4,1.8-4.9l0,0
					c1.9-0.8,4.1,0.1,5,2l7.7,17.9C406.1,157,405.7,158.6,404.6,159.8z"/>
				<path class="st7" d="M370.7,186.6c-1.3,1.1-3.2,1.1-4.5,0L350.6,175c-1.5-1.3-1.8-3.8-0.4-5.3c1.2-1.4,3.3-1.7,4.9-0.7
					l15.6,11.6c1.7,1.3,2,3.6,0.7,5.2C371.3,186.1,371.1,186.4,370.7,186.6z"/>
				<path class="st7" d="M355,226.7c-0.8,0.6-1.8,0.9-2.8,0.8l-19.4-2.2c-2-0.2-3.4-2-3.3-4c0.4-1.9,2-3.3,4-3.3l19.4,2.2
					c2,0.2,3.4,2,3.3,4C356.1,225.1,355.7,226,355,226.7z"/>
				<path class="st7" d="M361.1,269.3c-0.2,0.2-0.5,0.5-0.7,0.7l-17.9,7.8c-1.9,0.8-4,0-4.9-1.8l0,0l0,0c-0.8-1.9,0-4,1.9-5l0,0
					l17.9-8.1c1.8-1.1,4.1-0.4,5.1,1.4c0.9,1.7,0.5,3.9-1.2,5L361.1,269.3z"/>
				<path class="st7" d="M532.1,195.5c-0.2,0.2-0.5,0.5-0.7,0.7l-18.2,7.6c-1.9,0.8-4,0-5-1.8c-0.8-1.9,0-4,1.8-5
					c0.1,0,0.1,0,0.2-0.1l17.9-7.8c1.9-0.7,4,0.2,4.9,2.1l0,0c0.6,1.5,0.1,3.2-1.1,4.3H532.1z"/>
				<path class="st7" d="M487.3,169.5c-1.7,1.3-4,0.9-5.3-0.7c-0.9-1.3-1.1-3.2,0-4.5l11.7-15.6c1.2-1.7,3.4-2,5.1-0.8l0,0l0,0
					c1.7,1.2,2,3.6,0.8,5.2l0,0l-11.7,15.6C487.8,169.1,487.6,169.3,487.3,169.5z"/>
				<path class="st7" d="M447.3,153.6c-1.7,1.2-3.9,0.9-5.3-0.6c-0.6-0.8-0.8-1.8-0.8-2.7l2.5-19.2c0.2-2,2.1-3.6,4.1-3.3
					c2,0.2,3.6,2.1,3.3,4.1l0,0l-2.2,19.4C448.6,152.1,448,153,447.3,153.6z"/>
			</g>
		</g>
	</g>
	<g id="freepik--Plant--inject-16">
		<path class="st6" d="M1287.4,905.4l50.9,1.5l50.9-1.5c2.1,34.3-4.5,69.5-13.7,86.5l0,0c-2.1,4.4-5.7,8.1-10.1,10.3
			c-15,8.6-39.3,8.6-54.2,0c-4.5-2.4-8.1-6-10.1-10.7C1291.8,974.5,1285.2,939.6,1287.4,905.4z"/>
		<path class="st8" d="M1302.5,884.5c-20,11.5-20.1,30.2-0.2,41.7c19.9,11.5,52.1,11.5,72,0c19.9-11.5,20-30.2,0.2-41.7
			C1354.6,873,1322.3,873,1302.5,884.5z"/>
		<path class="st7" d="M1310.3,889.1c-15.5,9-15.6,23.6-0.2,32.6c15.5,9,40.6,9,56.1,0c15.5-9,15.6-23.6,0.2-32.6
			C1351,880.1,1325.9,880.1,1310.3,889.1z"/>
		<g class="st9">
			<path d="M1310.3,889.1c-15.5,9-15.6,23.6-0.2,32.6c15.5,9,40.6,9,56.1,0c15.5-9,15.6-23.6,0.2-32.6
				C1351,880.1,1325.9,880.1,1310.3,889.1z"/>
		</g>
		<path class="st3" d="M1364.3,801.2c8.3-10.3,17.9-19.5,25.5-30.3c5.2-7.3,9.5-16.5,7.3-25.1c-2.5-8.2-9.4-14.3-17.9-15.7
			c-8.4-1.3-16.8,0.6-23.9,5.3c-7,4.6-13.1,10.5-18.1,17.2c-28.7,36.3-42.3,82.3-37.9,128.3c0.5,5.3,1.4,10.7,4.7,14.7
			c3.7,4.4,9.7,6.3,15.3,4.6c13.9-4.1,12.1-22.9,14.3-33.9c3.1-15.2,8.5-29.7,16-43.2C1353.8,815.4,1358.8,808,1364.3,801.2z"/>
		<path class="st10" d="M1364.3,801.2c8.3-10.3,17.9-19.5,25.5-30.3c5.2-7.3,9.5-16.5,7.3-25.1c-2.5-8.2-9.4-14.3-17.9-15.7
			c-8.4-1.3-16.8,0.6-23.9,5.3c-7,4.6-13.1,10.5-18.1,17.2c-28.7,36.3-42.3,82.3-37.9,128.3c0.5,5.3,1.4,10.7,4.7,14.7
			c3.7,4.4,9.7,6.3,15.3,4.6c13.9-4.1,12.1-22.9,14.3-33.9c3.1-15.2,8.5-29.7,16-43.2C1353.8,815.4,1358.8,808,1364.3,801.2z"/>
		<path class="st11" d="M1318.4,886.4c0.6-0.1,0.9-0.6,0.9-1.2c0.9-22.3,8.2-98.3,60.6-141.4c0.5-0.5,0.6-1.2,0.1-1.7
			c-0.5-0.5-1.2-0.6-1.7-0.1l0,0c-53.2,43.8-60.5,120.6-61.4,143.1c0,0.7,0.5,1.2,1.2,1.3l0,0h0.2V886.4z"/>
		<path class="st3" d="M1310.9,888.7c1.5,8.8,9.1,19.5,17,23.6c8.1,3.8,16.9,5.3,25.7,4.4c8.9-1.1,17.8-3.2,26.2-6.3
			c4.1-1.4,8.9-3.3,9.4-8.5c0.1-2.7-0.9-5.4-3-7.3c-0.8-0.8-1.8-1.7-2.6-2.4c-1.2-0.8-1.5-2.5-0.7-3.7c0.5-0.7,1.3-1.1,2.1-1.2
			c2.5-0.1,5-0.5,7.5-0.9c5.8-0.9,11.1-3.3,15.6-7.1c3.3-2.8,5.8-6.5,7.2-10.7c1.3-3.4,1.7-7.9-1.1-10.5c-1.7-1.4-3.7-2.2-5.8-2.5
			c-1.9-0.4-3.7-0.7-5.6-1.1c-1.3-0.1-2.4-1.4-2.1-2.7c0.1-0.9,0.7-1.7,1.5-2l7.9-3.3c2.2-0.7,4.4-2,6-3.8c2.1-3.2,2.6-7.2,1.5-10.9
			c-0.9-5-2.6-9.7-3.8-14.7c-1.4-4.9-1.5-9.9-0.5-14.9c-14.8-1.7-29.8-0.6-44.3,3c-4.4,0.9-8.5,2.7-12.1,5.3
			c-4.9,3.9-6.2,9.8-5.7,16.3c0,0.6-0.5,1.2-1.1,1.2c-0.5,0-0.8-0.2-1.1-0.6l-5.1-9.4c-1.5-2.8-5.1-3.9-7.9-2.5
			c-4.4,2.2-8.3,5.3-11.5,9c-3.6,4-5.3,9.4-5,14.8c0.6,7.3,1.8,14.6,3.7,21.7c0.2,1.1-0.4,2.1-1.4,2.5c-0.6,0.1-1.2,0-1.8-0.4
			l-0.2-0.1c-1.3-1.1-3.1-1.5-4.7-1.4c-4.5,0.6-5.6,5.1-5.9,8.9C1309.1,876.8,1309.6,882.9,1310.9,888.7z"/>
		<path class="st12" d="M1310.9,888.7c1.5,8.8,9.1,19.5,17,23.6c8.1,3.8,16.9,5.3,25.7,4.4c8.9-1.1,17.8-3.2,26.2-6.3
			c4.1-1.4,8.9-3.3,9.4-8.5c0.1-2.7-0.9-5.4-3-7.3c-0.8-0.8-1.8-1.7-2.6-2.4c-1.2-0.8-1.5-2.5-0.7-3.7c0.5-0.7,1.3-1.1,2.1-1.2
			c2.5-0.1,5-0.5,7.5-0.9c5.8-0.9,11.1-3.3,15.6-7.1c3.3-2.8,5.8-6.5,7.2-10.7c1.3-3.4,1.7-7.9-1.1-10.5c-1.7-1.4-3.7-2.2-5.8-2.5
			c-1.9-0.4-3.7-0.7-5.6-1.1c-1.3-0.1-2.4-1.4-2.1-2.7c0.1-0.9,0.7-1.7,1.5-2l7.9-3.3c2.2-0.7,4.4-2,6-3.8c2.1-3.2,2.6-7.2,1.5-10.9
			c-0.9-5-2.6-9.7-3.8-14.7c-1.4-4.9-1.5-9.9-0.5-14.9c-14.8-1.7-29.8-0.6-44.3,3c-4.4,0.9-8.5,2.7-12.1,5.3
			c-4.9,3.9-6.2,9.8-5.7,16.3c0,0.6-0.5,1.2-1.1,1.2c-0.5,0-0.8-0.2-1.1-0.6l-5.1-9.4c-1.5-2.8-5.1-3.9-7.9-2.5
			c-4.4,2.2-8.3,5.3-11.5,9c-3.6,4-5.3,9.4-5,14.8c0.6,7.3,1.8,14.6,3.7,21.7c0.2,1.1-0.4,2.1-1.4,2.5c-0.6,0.1-1.2,0-1.8-0.4
			l-0.2-0.1c-1.3-1.1-3.1-1.5-4.7-1.4c-4.5,0.6-5.6,5.1-5.9,8.9C1309.1,876.8,1309.6,882.9,1310.9,888.7z"/>
		<path class="st10" d="M1310.9,888.7c1.5,8.8,9.1,19.5,17,23.6c8.1,3.8,16.9,5.3,25.7,4.4c8.9-1.1,17.8-3.2,26.2-6.3
			c4.1-1.4,8.9-3.3,9.4-8.5c0.1-2.7-0.9-5.4-3-7.3c-0.8-0.8-1.8-1.7-2.6-2.4c-1.2-0.8-1.5-2.5-0.7-3.7c0.5-0.7,1.3-1.1,2.1-1.2
			c2.5-0.1,5-0.5,7.5-0.9c5.8-0.9,11.1-3.3,15.6-7.1c3.3-2.8,5.8-6.5,7.2-10.7c1.3-3.4,1.7-7.9-1.1-10.5c-1.7-1.4-3.7-2.2-5.8-2.5
			c-1.9-0.4-3.7-0.7-5.6-1.1c-1.3-0.1-2.4-1.4-2.1-2.7c0.1-0.9,0.7-1.7,1.5-2l7.9-3.3c2.2-0.7,4.4-2,6-3.8c2.1-3.2,2.6-7.2,1.5-10.9
			c-0.9-5-2.6-9.7-3.8-14.7c-1.4-4.9-1.5-9.9-0.5-14.9c-14.8-1.7-29.8-0.6-44.3,3c-4.4,0.9-8.5,2.7-12.1,5.3
			c-4.9,3.9-6.2,9.8-5.7,16.3c0,0.6-0.5,1.2-1.1,1.2c-0.5,0-0.8-0.2-1.1-0.6l-5.1-9.4c-1.5-2.8-5.1-3.9-7.9-2.5
			c-4.4,2.2-8.3,5.3-11.5,9c-3.6,4-5.3,9.4-5,14.8c0.6,7.3,1.8,14.6,3.7,21.7c0.2,1.1-0.4,2.1-1.4,2.5c-0.6,0.1-1.2,0-1.8-0.4
			l-0.2-0.1c-1.3-1.1-3.1-1.5-4.7-1.4c-4.5,0.6-5.6,5.1-5.9,8.9C1309.1,876.8,1309.6,882.9,1310.9,888.7z"/>
		<path class="st11" d="M1334.3,911c2.7-11.8,6.7-23.4,11.8-34.6c0-0.4,0.1-0.7,0.5-0.9c0.2-0.6,0.5-1.2,0.8-1.8
			c-1.4-13.7-5.4-27.1-11.8-39.4c-0.4-0.6-0.1-1.3,0.5-1.7c0.6-0.4,1.3-0.1,1.7,0.5c5.9,11.5,9.9,23.9,11.6,36.7
			c10.1-20.1,26.2-43.8,50.9-61.1c0.5-0.4,1.3-0.2,1.7,0.2l0,0c0.4,0.6,0.2,1.3-0.4,1.7l0,0c-25.6,17.8-41.8,42.5-51.5,63
			c13.3-5.9,27.8-7.9,42.1-5.7c0.7,0.1,1.1,0.7,0.9,1.4c-0.1,0.5-0.5,0.8-0.9,0.9h-0.5c-0.2,0-23.4-4.3-43.5,7
			c-5.1,10.9-9,22.4-11.8,34.1c-0.1,0.5-0.5,0.8-0.9,0.9c-0.1,0-0.4,0-0.5,0C1334.7,912.3,1334.2,911.8,1334.3,911z"/>
	</g>
	<g id="freepik--Screen--inject-16">
		<path class="st4" d="M1234.7,985.3l0.8-491.8c-0.6-12.1-7-23.2-17.2-29.8L608.3,112.1c-4.7-2.6-9-3.1-12.2-1.3l18.1-10.4l0,0
			c3.1-2,7.6-1.8,12.5,1.1l610.1,351.3c10.2,6.6,16.6,17.6,17.2,29.8l-0.7,492c0.4,4.1-1.4,8.2-4.6,10.8l0,0l-0.9,0.6l-17.9,10.4
			C1232.8,994.4,1234.7,990.6,1234.7,985.3z"/>
		<path class="st13" d="M614.2,100.4L614.2,100.4c3.1-2,7.6-1.8,12.5,1.1l610.1,351.3c5.7,3.6,10.3,8.6,13.3,14.7l-18.5,10.7
			c-3-6-7.5-11.1-13.1-14.7L608.3,112.1c-4.7-2.6-9-3.1-12.2-1.3L614.2,100.4z"/>
		<path class="st10" d="M1254,482.6l-0.7,492c0.4,4.1-1.4,8.2-4.6,10.8l0,0l-0.9,0.6l-17.9,10.4c3.1-1.8,5-5.7,5-11l0.7-491.8
			c-0.1-5.3-1.5-10.5-4-15.2l18.5-10.7C1252.5,472.3,1253.9,477.4,1254,482.6z"/>
		<path class="st4" d="M1235.6,515.6l-0.8,469.7c0,5.3-1.9,9.2-5,11l-0.2,0.1h-0.1c-3.1,1.7-7.3,1.3-12-1.3L607.4,643.8
			c-10.2-6.6-16.6-17.6-17.2-29.8l0.8-470.3L1235.6,515.6z"/>
		<path class="st12" d="M1235.6,515.6l-0.8,469.7c0,5.3-1.9,9.2-5,11l-0.2,0.1h-0.1c-3.1,1.7-7.3,1.3-12-1.3L607.4,643.8
			c-10.2-6.6-16.6-17.6-17.2-29.8l0.8-470.3L1235.6,515.6z"/>
		<polygon class="st6" points="666.8,629.1 667.5,238.9 1192.2,540.6 1191.5,930.3 		"/>
		<polygon class="st3" points="884.1,596.2 884.4,394.4 1117.1,528.2 1116.7,729.7 		"/>
		<path class="st4" d="M591,121.9c0-5.3,1.9-9.1,5-11l0,0l0,0c3.1-1.8,7.5-1.4,12.2,1.3l610.3,351.2c10.2,6.6,16.6,17.8,17.2,30
			v22.4L591,144V121.9z"/>
		<path class="st14" d="M591,121.9c0-5.3,1.9-9.1,5-11l0,0l0,0c3.1-1.8,7.5-1.4,12.2,1.3l610.3,351.2c10.2,6.6,16.6,17.8,17.2,30
			v22.4L591,144V121.9z"/>
		<g class="st15">
			<path class="st6" d="M636.7,145.7c-2.6-1.5-4.7-0.2-4.7,2.6c0.1,3.3,1.9,6.3,4.6,8.2c2.6,1.5,4.7,0.2,4.7-2.6
				C641.2,150.6,639.5,147.5,636.7,145.7z"/>
			<path class="st6" d="M623.9,138.4c-2.6-1.5-4.7-0.4-4.7,2.6c0.1,3.3,1.9,6.4,4.7,8.2c2.6,1.5,4.7,0.2,4.7-2.6
				C628.4,143.1,626.7,140.2,623.9,138.4z"/>
			<path class="st6" d="M610.9,130.9c-2.6-1.5-4.7-0.2-4.7,2.6c0.1,3.3,1.9,6.3,4.6,8.2c2.6,1.5,4.7,0.4,4.7-2.6
				C615.5,135.8,613.8,132.7,610.9,130.9z"/>
		</g>
		<path class="st6" d="M634.7,306.2v24.5V306.2z"/>
		<polygon class="st6" points="634.7,340.1 613.3,327.8 613.3,327.8 634.7,340.1 634.6,364.7 634.6,364.7 		"/>
		<rect x="623.9" y="355.5" class="st6" width="0" height="24.6"/>
		<rect x="623.6" y="478.9" class="st6" width="0" height="24.6"/>
		<path class="st6" d="M613.5,250.5l21.4,12.3L613.5,250.5z"/>
		<polygon class="st6" points="622.5,265.1 634.8,272.3 634.8,296.8 634.8,272.3 		"/>
		<path class="st6" d="M613.5,284.4l21.3,12.4L613.5,284.4z"/>
		<path class="st6" d="M613.4,318.4l21.3,12.3L613.4,318.4z"/>
		<polygon class="st6" points="621.8,524.1 634.1,531.2 634,555.7 634,555.7 634.1,531.2 		"/>
		<rect x="623.7" y="411.1" class="st6" width="0" height="24.6"/>
		<rect x="623.7" y="444.9" class="st6" width="0" height="24.6"/>
		<polygon class="st6" points="613.4,293.9 634.7,306.2 634.7,330.7 613.4,318.4 		"/>
		<polygon class="st6" points="634.6,364.7 613.3,352.3 613.3,327.8 634.7,340.1 		"/>
		<polygon class="st6" points="612.9,451.1 634.4,463.5 634.2,488 612.9,475.7 		"/>
		<polygon class="st6" points="634.1,521.9 612.8,509.6 612.9,485.1 634.2,497.4 		"/>
		<polygon class="st6" points="613.1,417.2 634.4,429.5 634.4,454 613.1,441.7 		"/>
		<path class="st4" d="M605.7,581.3l35,20.2l0.5-175.9l-35-20.2L605.7,581.3z M612.9,485.1l21.2,12.3l0,0v24.5l-21.2-12.3V485.1z
			 M634.4,454l-21.3-12.3v-24.5l0,0l21.2,12.3l0,0V454H634.4z M634.4,488l-21.2-12.3v-24.5l0,0l21.2,12.3l0,0V488z M634.1,555.7
			L634.1,555.7l-21.2-12.3v-24.5l9,5.3l12.3,7.1v24.5L634.1,555.7z M612.7,577.4v-24.5l21.2,12.3v24.5L612.7,577.4z"/>
		<path class="st4" d="M606.3,390.1l35,20.2l0.5-175.9l-35-20.2L606.3,390.1z M635,262.8l-21.2-12.3l0,0V226l21.2,12.3V262.8z
			 M635,296.8l-21.2-12.3l0,0V260l9,5.3l12.3,7.1L635,296.8z M635,330.7l-21.2-12.3l0,0v-24.5l21.2,12.3l0,0V330.7z M635,364.7
			L635,364.7l-21.2-12.3v-24.5l0,0l21.2,12.3V364.7z M635,398.5l-21.2-12.3v-24.5l0,0L635,374l0,0V398.5z"/>
		<path class="st3" d="M605.7,581.3l35,20.2l0.5-175.9l-35-20.2L605.7,581.3z M612.9,485.1l21.2,12.3l0,0v24.5l-21.2-12.3V485.1z
			 M634.4,454l-21.3-12.3v-24.5l0,0l21.2,12.3l0,0V454H634.4z M634.4,488l-21.2-12.3v-24.5l0,0l21.2,12.3l0,0V488z M634.1,555.7
			L634.1,555.7l-21.2-12.3v-24.5l9,5.3l12.3,7.1v24.5L634.1,555.7z M612.7,577.4v-24.5l21.2,12.3v24.5L612.7,577.4z"/>
		<path class="st3" d="M606.3,390.1l35,20.2l0.5-175.9l-35-20.2L606.3,390.1z M635,262.8l-21.2-12.3l0,0V226l21.2,12.3V262.8z
			 M635,296.8l-21.2-12.3l0,0V260l9,5.3l12.3,7.1L635,296.8z M635,330.7l-21.2-12.3l0,0v-24.5l21.2,12.3l0,0V330.7z M635,364.7
			L635,364.7l-21.2-12.3v-24.5l0,0l21.2,12.3V364.7z M635,398.5l-21.2-12.3v-24.5l0,0L635,374l0,0V398.5z"/>
		<polygon class="st6" points="613.5,284.4 613.5,259.9 622.5,265.1 634.8,272.3 634.8,296.8 		"/>
		<polygon class="st6" points="606.8,214.2 606.8,200.4 641.9,220.7 641.8,234.4 		"/>
		<polygon class="st6" points="613.5,250.5 613.6,226 635,238.3 635,262.8 		"/>
		<polygon class="st6" points="613.2,361.7 613.2,361.7 634.6,374 634.6,374 634.5,398.5 613.2,386.2 		"/>
		<polygon class="st6" points="612.7,543.4 612.8,518.9 621.8,524.1 634.1,531.2 634,555.7 634,555.7 		"/>
		<polygon class="st6" points="634,565.2 634,589.7 612.7,577.4 612.7,552.9 		"/>
		<polygon class="st2" points="1063.1,737 1063.1,748.1 883.5,642.9 883.5,631.8 		"/>
		
			<ellipse transform="matrix(0.8646 -0.5024 0.5024 0.8646 -205.1125 445.6649)" class="st7" cx="724.4" cy="603.5" rx="17.5" ry="30.3"/>
		<path class="st7" d="M724.8,516.1c11.8,6.9,21.4,23.4,21.4,37.2s-9.7,19.2-21.5,12.3c-11.8-6.9-21.4-23.4-21.4-37.2
			C703.4,514.7,712.9,509.3,724.8,516.1z"/>
		<path class="st7" d="M783.3,549.8c11.8,6.9,21.4,23.4,21.4,37.2s-9.7,19.2-21.5,12.3c-11.8-6.9-21.4-23.4-21.4-37.2
			S771.2,543,783.3,549.8z"/>
		<path class="st7" d="M841.4,646.2c11.8,6.9,21.4,23.4,21.4,37.2c0,13.7-9.7,19.2-21.5,12.3c-11.8-6.9-21.4-23.4-21.4-37.2
			C819.8,644.8,829.5,639.3,841.4,646.2z"/>
		
			<ellipse transform="matrix(0.8646 -0.5024 0.5024 0.8646 -191.7257 505.0952)" class="st7" cx="841.4" cy="608.3" rx="17.5" ry="30.3"/>
		
			<ellipse transform="matrix(0.8646 -0.5024 0.5024 0.8646 -214.1732 479.5606)" class="st7" cx="782.8" cy="637.2" rx="17.5" ry="30.3"/>
		<path class="st4" d="M1297.5,379.5l-230-132.8c-1.3-0.9-3.2-1.2-4.6-0.5l0,0l-17.2,12.3l0,0c1.5-0.7,3.3-0.5,4.6,0.5l230.2,133
			c3.8,2.5,6.2,6.7,6.4,11.2l-0.9,205.5c0.1,1.7-0.6,3.2-1.8,4.1l0,0l17.4-12.4l0,0c1.2-0.9,1.8-2.5,1.7-4l0.9-205.5
			C1303.8,386.1,1301.4,381.9,1297.5,379.5z"/>
		<path class="st3" d="M1285.9,608.8l0.9-205.7c-0.2-4.6-2.7-8.9-6.5-11.4l-230.2-132.8c-1.3-0.9-3.1-1.2-4.6-0.5
			c-1.4,0.9-2.1,2.6-2,4.3l-0.9,205.5c0.2,4.6,2.7,8.9,6.5,11.4l230.2,132.8c1.4,1.1,3.2,1.2,4.7,0.4
			C1285.3,611.9,1286,610.3,1285.9,608.8z"/>
		<g class="st16">
			<polygon points="1078.5,409.5 1078.3,433.9 1057.1,421.6 1057.3,397.2 			"/>
		</g>
		<g class="st16">
			<polygon points="1078.5,455.1 1078.3,479.5 1057.1,467.2 1057.3,442.9 			"/>
		</g>
		<polygon class="st6" points="1099.6,467.3 1099.5,491.7 1078.3,479.5 1078.5,455.1 		"/>
		<g class="st17">
			<polygon class="st6" points="1217.2,497 1217.1,506.5 1090.9,433.7 1091,424.2 			"/>
		</g>
		<g class="st16">
			<polygon points="1078.6,372.1 1078.5,396.5 1057.3,384.2 1057.4,359.9 			"/>
		</g>
		<g class="st17">
			<polygon class="st6" points="1217.3,422.3 1217.3,431.8 1091.1,359 1091.1,349.4 			"/>
		</g>
		<g class="st17">
			<polygon class="st6" points="1217.2,459.6 1217.2,469.2 1091,396.4 1091,386.8 			"/>
		</g>
		<g class="st16">
			<polygon points="1078.7,334.7 1078.6,359.1 1057.4,346.9 1057.5,322.5 			"/>
		</g>
		<polygon class="st6" points="1272.1,446.5 1272.1,470.9 1228.6,445.8 1228.6,421.4 		"/>
		<polygon class="st6" points="1271.9,521.3 1271.9,545.6 1228.3,520.5 1228.5,496.1 		"/>
		<polygon class="st6" points="1272,483.9 1272,508.3 1228.5,483 1228.6,458.7 		"/>
		<g class="st16">
			<path d="M1280.2,391.8c3.9,2.5,6.3,6.7,6.5,11.2v19.8l-141.6-81.7v-27.2L1280.2,391.8z"/>
		</g>
		<polygon class="st6" points="1132.4,318.7 1053.6,273.1 1053.5,282.1 1132.4,327.7 		"/>
		<polygon class="st6" points="1260.8,387.4 1260.8,389.9 1276.6,399.1 1276.6,396.6 		"/>
		<polygon class="st6" points="1260.7,403 1276.6,412.1 1276.6,409.6 1260.7,400.4 		"/>
		<polygon class="st6" points="1260.8,394.3 1276.6,403.5 1276.6,400.9 1260.8,391.8 		"/>
		<polygon class="st6" points="1260.7,398.6 1276.6,407.7 1276.6,405.3 1260.7,396 		"/>
		<path class="st2" d="M1297.5,379.5l-230-132.8c-1.3-0.9-3.2-1.2-4.6-0.5l0,0l-17.2,12.3l0,0c1.5-0.7,3.3-0.5,4.6,0.5l230.2,133
			c2.1,1.4,3.9,3.3,5,5.7l18.1-10.4C1302.5,384,1300.3,381.2,1297.5,379.5z"/>
		<path class="st18" d="M1285.2,397.4c0.9,1.8,1.4,3.8,1.5,5.7l-0.9,205.5c0.1,1.7-0.6,3.2-1.8,4.1l0,0l17.4-12.4l0,0
			c1.2-0.9,1.8-2.5,1.7-4l0.9-205.5c0-1.3-0.2-2.6-0.7-3.8L1285.2,397.4z"/>
		<path class="st4" d="M941.9,231.7L711.8,99c-1.3-0.9-3.2-1.2-4.6-0.5l0,0l-17.3,12.3l0,0c1.5-0.7,3.3-0.5,4.6,0.5l230.2,133
			c3.9,2.5,6.3,6.7,6.5,11.4l-0.9,94c0.1,1.7-0.5,3.2-1.8,4.1l0,0l17.4-12.4l0,0c1.2-0.9,1.8-2.5,1.7-4l0.9-94
			C948.3,238.6,945.9,234.3,941.9,231.7z"/>
		<path class="st3" d="M930.3,349.5l0.9-94c-0.2-4.6-2.7-8.9-6.5-11.4L694.5,111.3c-1.3-0.9-3.1-1.2-4.6-0.5c-1.4,0.9-2.1,2.6-2,4.3
			l-0.9,94c0.2,4.6,2.7,8.9,6.5,11.4l230.2,132.8c1.4,1.1,3.2,1.2,4.7,0.4C929.9,352.7,930.6,351,930.3,349.5z"/>
		<g class="st17">
			<polygon class="st6" points="731.4,186.7 731.3,220.2 702.1,203.4 702.2,169.8 			"/>
		</g>
		<g class="st17">
			<polygon class="st6" points="777,211.9 776.9,245.5 747.7,228.6 747.8,195 			"/>
		</g>
		<g class="st17">
			<polygon class="st6" points="822.5,237.1 822.5,270.8 793.2,253.8 793.4,220.2 			"/>
		</g>
		<g class="st17">
			<polygon class="st6" points="868.1,262.4 868.1,296 838.8,279.1 838.8,245.5 			"/>
		</g>
		<g class="st17">
			<polygon class="st6" points="913.7,287.6 913.5,321.2 884.3,304.4 884.4,270.8 			"/>
		</g>
		<g class="st16">
			<path d="M924.7,244.1c3.9,2.5,6.3,6.7,6.5,11.4v19.7l-141.6-81.8v-27.2L924.7,244.1z"/>
		</g>
		<polygon class="st6" points="777,171 698.1,125.4 698.1,134.4 776.9,180 		"/>
		<polygon class="st6" points="905.2,239.6 905.2,242.2 921.1,251.4 921.1,248.9 		"/>
		<polygon class="st6" points="905.2,255.3 921.1,264.4 921.1,261.9 905.2,252.7 		"/>
		<polygon class="st6" points="905.2,246.5 921.1,255.7 921.1,253.1 905.2,244 		"/>
		<polygon class="st6" points="905.2,250.9 921.1,260 921.1,257.5 905.2,248.4 		"/>
		<path class="st2" d="M941.9,231.7L711.8,99c-1.3-0.9-3.2-1.2-4.6-0.5l0,0l-17.3,12.3l0,0c1.5-0.7,3.3-0.5,4.6,0.5l230.2,133
			c2.1,1.4,3.9,3.3,5,5.7l18.2-10.5C946.9,236.2,944.8,233.5,941.9,231.7z"/>
		<path class="st18" d="M929.8,249.7c0.9,1.8,1.4,3.8,1.5,5.7l-0.9,94c0.1,1.7-0.5,3.2-1.8,4.1l0,0l17.4-12.4l0,0
			c1.2-0.9,1.8-2.5,1.7-4l0.9-94c0-1.3-0.2-2.6-0.7-3.8L929.8,249.7z"/>
		<path class="st4" d="M1297.5,646l-230.2-132.8c-1.3-0.9-3.2-1.2-4.6-0.5l0,0l-17.2,12.3l0,0c1.5-0.7,3.3-0.5,4.6,0.5l230.2,133
			c3.9,2.5,6.3,6.7,6.5,11.4l-0.9,314.5c0.1,1.7-0.6,3.2-1.8,4.1l0,0l17.4-12.4l0,0c1.2-0.9,1.8-2.5,1.7-4l0.9-314.5
			C1303.9,652.8,1301.4,648.6,1297.5,646z"/>
		<path class="st4" d="M1285.9,984.2l0.9-314.5c-0.2-4.6-2.7-8.9-6.5-11.4l-230.2-133c-1.3-0.9-3.1-1.2-4.6-0.5
			c-1.4,0.9-2.1,2.6-2,4.3l-0.9,314.5c0.2,4.6,2.7,8.9,6.5,11.4l230.2,132.8c1.4,1.1,3.2,1.2,4.7,0.4
			C1285.3,987.3,1286,985.7,1285.9,984.2z"/>
		<g class="st16">
			<path d="M1280.2,658.4c3.9,2.5,6.3,6.7,6.5,11.4v19.7l-141.6-81.8v-27.2L1280.2,658.4z"/>
		</g>
		<polygon class="st19" points="1269.7,872 1269.7,872 1268.1,869.4 1265.3,871 1268.1,869.4 		"/>
		<polygon class="st19" points="1269.9,803.3 1269.9,803.3 1268.4,800.6 1265.4,802.2 1268.4,800.6 		"/>
		<path class="st19" d="M1262.6,769.4l-1.5,0.9L1262.6,769.4z"/>
		<polygon class="st19" points="1140.3,774.7 1135.8,767 1137.3,766 1135.8,767 		"/>
		<polygon class="st19" points="1263.2,950.1 1262.1,948.2 1260.5,949.2 1262.1,948.2 		"/>
		<polygon class="st19" points="1265.3,871 1262.3,865.9 1260.8,866.9 1262.3,865.9 		"/>
		<polygon class="st19" points="1137.3,793.8 1140.1,798.8 1143.1,797.1 1144.6,799.9 1144.6,799.9 1143.1,797.1 1140.1,798.8 
			1137.3,793.8 1135.8,794.7 1135.8,794.7 		"/>
		<rect x="1136.7" y="724.6" class="st19" width="0" height="1.8"/>
		<polygon class="st19" points="1144.4,882 1144.4,882 1142.9,879.4 1139.9,881.1 1142.9,879.4 		"/>
		<polygon class="st19" points="1135.5,876.9 1137.1,876 1137.1,876 1135.5,876.9 1138.4,881.8 		"/>
		<polygon class="st19" points="1267.9,951.7 1269.4,954.3 1267.9,951.5 1264.9,953.3 1264.9,953.3 		"/>
		<polygon class="st19" points="1261,798.2 1261,798.2 1262.6,797.3 		"/>
		<path class="st19" d="M1268.5,736.9l-2.8,1.7L1268.5,736.9z"/>
		<polygon class="st6" points="1069.1,747.7 1053,738.3 1053,758 1069.1,767.3 		"/>
		<polygon class="st6" points="1069.2,719.8 1053.1,710.6 1053,730.1 1069.2,739.5 		"/>
		<polygon class="st6" points="1132.4,585.2 1053.6,539.6 1053.5,548.6 1132.4,594.2 		"/>
		<polygon class="st6" points="1270,739.5 1268.5,736.9 1265.6,738.5 1262.7,733.6 1261.1,734.4 1265.6,742.1 		"/>
		<polygon class="st6" points="1069.3,678.9 1053.2,669.6 1053.1,689.2 1069.3,698.5 		"/>
		<polygon class="st6" points="1069.5,651.2 1053.2,641.8 1053.2,661.5 1069.3,670.8 		"/>
		<polygon class="st4" points="1053.4,605.8 1053.4,625.5 1254.7,741.7 1254.7,722.1 		"/>
		<path class="st4" d="M1254.7,741.7l21.7,12.5v-19.7l-21.7-12.5V741.7z M1262.7,733.6l2.8,5l3-1.7l0,0l1.5,2.6l-4.5,2.6l-4.5-7.7
			L1262.7,733.6z"/>
		<polygon class="st4" points="1053.5,576.6 1053.4,596.2 1254.9,712.5 1254.9,692.8 		"/>
		<polygon class="st6" points="1270.1,710.2 1268.6,707.6 1265.6,709.3 1262.8,704.2 1261.3,705.2 1265.6,712.9 		"/>
		<path class="st4" d="M1254.9,712.5l21.7,12.5v-19.7l-21.7-12.5V712.5z M1262.8,704.2l2.8,5l3-1.7l1.5,2.6l-4.5,2.6l-4.4-7.8
			L1262.8,704.2z"/>
		<polygon class="st6" points="1144.9,703.4 1143.3,700.7 1140.4,702.3 1137.5,697.3 1136,698.2 1140.4,705.9 		"/>
		<path class="st4" d="M1151.3,718.1v-19.7l-21.7-12.5v19.7L1151.3,718.1z M1137.5,697.3l2.8,5l3-1.7l1.5,2.6l-4.5,2.6l-4.5-7.7
			L1137.5,697.3z"/>
		<polygon class="st4" points="1077.5,703.3 1129.5,733.3 1129.5,733.3 1129.5,733.3 1129.6,713.7 1077.6,683.7 		"/>
		<polygon class="st4" points="1129.6,685.9 1077.6,655.9 1077.6,675.6 1129.6,705.5 		"/>
		<polygon class="st6" points="1140.4,733.7 1144.8,731.1 1143.2,728.4 1140.4,730 1137.4,725 1135.9,726 		"/>
		<path class="st4" d="M1129.5,733.3l21.7,12.5v-19.7l-21.7-12.4l0,0v19.7V733.3z M1137.4,725L1137.4,725l2.8,5l3-1.7l1.5,2.6
			l-4.5,2.6l-4.4-7.7l0,0L1137.4,725z"/>
		<path class="st4" d="M1254.5,805.6l21.7,12.5v-19.7l-21.7-12.5V805.6z M1261,798.2l1.5-0.9l2.8,5l3-1.7l1.5,2.6l0,0l-4.5,2.6
			L1261,798.2L1261,798.2z"/>
		<path class="st4" d="M1254.4,846.6l21.7,12.5v-19.7l-21.7-12.5V846.6z M1262.4,838.3l2.8,5l2.8-1.7l1.5,2.6l-4.5,2.6l-4.5-7.7
			L1262.4,838.3z"/>
		<path class="st4" d="M1254.4,874.2l21.7,12.5v-19.7l-21.7-12.5V874.2z M1262.3,865.9l2.8,5l3-1.7l1.5,2.6l0,0l-4.5,2.6l-4.5-7.7
			L1262.3,865.9z"/>
		<polygon class="st4" points="1202.4,824.6 1202.4,844.3 1254.4,874.2 1254.4,874.2 1254.4,854.6 		"/>
		<polygon class="st4" points="1202.5,796.8 1202.4,816.4 1254.4,846.5 1254.5,826.9 		"/>
		<polygon class="st4" points="1202.7,755.8 1202.5,775.5 1254.5,805.6 1254.6,785.9 		"/>
		<polygon class="st4" points="1202.7,728.1 1202.7,747.8 1254.6,777.7 1254.6,758.1 		"/>
		<polygon class="st6" points="1269.9,775.5 1268.4,772.9 1265.5,774.5 1262.6,769.4 1261,770.4 1265.5,778.1 		"/>
		<path class="st4" d="M1254.6,758.1v19.7l21.7,12.5v-19.7L1254.6,758.1z M1262.7,769.4L1262.7,769.4l2.8,5.1l3-1.7l1.5,2.6
			l-4.5,2.6l-4.5-7.7L1262.7,769.4z"/>
		<polygon class="st6" points="1178.1,761.4 1194.4,770.7 1194.4,751.1 1178.3,741.9 		"/>
		<polygon class="st6" points="1194.5,723.4 1178.4,714 1178.3,733.7 1194.4,743 		"/>
		<polygon class="st6" points="1265.4,805.9 1269.9,803.3 1269.9,803.3 1268.4,800.6 1265.4,802.2 1262.6,797.3 1261,798.2 
			1261,798.2 		"/>
		<polygon class="st4" points="1077.4,744.2 1129.4,774.3 1129.4,774.3 1129.4,774.3 1129.5,754.6 1077.5,724.6 		"/>
		<path class="st4" d="M1129.4,774.3l21.7,12.5v-19.7l-21.7-12.5V774.3z M1137.3,766l2.8,5l2.8-1.7l1.5,2.6l-4.5,2.6l0,0l-4.5-7.7
			L1137.3,766z"/>
		<polygon class="st6" points="1140.3,774.7 1140.3,774.7 1144.8,772 1143.1,769.3 1140.3,771.1 1137.3,766 1135.8,767 		"/>
		<polygon class="st6" points="1140.1,798.8 1137.3,793.8 1135.8,794.7 1140.1,802.4 1144.6,799.9 1143.1,797.1 		"/>
		<path class="st4" d="M1129.2,802L1129.2,802l21.7,12.5v-19.7l-21.7-12.5l0,0V802z M1137.3,793.8l2.8,5.1l3-1.7l1.5,2.6l0,0
			l-4.5,2.6l-4.5-7.7l0,0L1137.3,793.8z"/>
		<polygon class="st6" points="1097.3,822.6 1097.3,802.9 1081.2,793.7 1081.1,813.2 		"/>
		<polygon class="st4" points="1077.4,772 1129.2,802 1129.2,802 1129.4,782.5 1129.4,782.5 1077.4,752.4 		"/>
		<polygon class="st4" points="1129.1,864.6 1129.1,864.6 1052.8,820.6 1052.8,840.2 1129,884.3 		"/>
		<polygon class="st6" points="1138.4,881.8 1139.9,884.6 1144.4,882 1142.9,879.4 1139.9,881.1 1137.1,876 1135.5,876.9 		"/>
		<path class="st4" d="M1129.1,864.6v19.7l0,0l21.7,12.5v-19.7L1129.1,864.6z M1137.1,876L1137.1,876l2.8,5.1l3-1.7l1.5,2.6l0,0
			l-4.5,2.6l-1.7-2.8l-2.8-4.9L1137.1,876z"/>
		<polygon class="st4" points="1254.2,936.9 1177.8,892.8 1177.8,912.5 1254.2,956.5 1254.2,956.5 1254.2,956.5 		"/>
		<polygon class="st14" points="1053.4,605.8 1053.4,625.5 1254.7,741.7 1254.7,722.1 		"/>
		<polygon class="st14" points="1053.5,576.6 1053.4,596.2 1254.9,712.5 1254.9,692.8 		"/>
		<polygon class="st14" points="1077.5,703.3 1129.5,733.3 1129.5,733.3 1129.5,733.3 1129.6,713.7 1077.6,683.7 		"/>
		<polygon class="st14" points="1129.6,685.9 1077.6,655.9 1077.6,675.6 1129.6,705.5 		"/>
		<polygon class="st14" points="1202.4,824.6 1202.4,844.3 1254.4,874.2 1254.4,874.2 1254.4,854.6 		"/>
		<polygon class="st14" points="1202.5,796.8 1202.4,816.4 1254.4,846.5 1254.5,826.9 		"/>
		<polygon class="st14" points="1202.7,755.8 1202.5,775.5 1254.5,805.6 1254.6,785.9 		"/>
		<polygon class="st14" points="1202.7,728.1 1202.7,747.8 1254.6,777.7 1254.6,758.1 		"/>
		<polygon class="st14" points="1077.4,744.2 1129.4,774.3 1129.4,774.3 1129.4,774.3 1129.5,754.6 1077.5,724.6 		"/>
		<polygon class="st14" points="1077.4,772 1129.2,802 1129.2,802 1129.4,782.5 1129.4,782.5 1077.4,752.4 		"/>
		<polygon class="st14" points="1129.1,864.6 1129.1,864.6 1052.8,820.6 1052.8,840.2 1129,884.3 		"/>
		<polygon class="st14" points="1254.2,936.9 1177.8,892.8 1177.8,912.5 1254.2,956.5 1254.2,956.5 1254.2,956.5 		"/>
		<path class="st4" d="M1254.2,936.9v19.7l0,0l21.7,12.5v-19.7L1254.2,936.9z M1262.1,948.2l1.1,1.8l1.8,3.2l3-1.7l1.5,2.6l-4.5,2.6
			l-4.5-7.7L1262.1,948.2z"/>
		<path class="st20" d="M1254.7,741.7l21.7,12.5v-19.7l-21.7-12.5V741.7z M1262.7,733.6l2.8,5l3-1.7l0,0l1.5,2.6l-4.5,2.6l-4.5-7.7
			L1262.7,733.6z"/>
		<path class="st20" d="M1254.9,712.5l21.7,12.5v-19.7l-21.7-12.5V712.5z M1262.8,704.2l2.8,5l3-1.7l1.5,2.6l-4.5,2.6l-4.4-7.8
			L1262.8,704.2z"/>
		<path class="st20" d="M1151.3,718.1v-19.7l-21.7-12.5v19.7L1151.3,718.1z M1137.5,697.3l2.8,5l3-1.7l1.5,2.6l-4.5,2.6l-4.5-7.7
			L1137.5,697.3z"/>
		<path class="st20" d="M1129.5,733.3l21.7,12.5v-19.7l-21.7-12.4l0,0v19.7V733.3z M1137.4,725L1137.4,725l2.8,5l3-1.7l1.5,2.6
			l-4.5,2.6l-4.4-7.7l0,0L1137.4,725z"/>
		<path class="st20" d="M1254.5,805.6l21.7,12.5v-19.7l-21.7-12.5V805.6z M1261,798.2l1.5-0.9l2.8,5l3-1.7l1.5,2.6l0,0l-4.5,2.6
			L1261,798.2L1261,798.2z"/>
		<path class="st20" d="M1254.4,846.6l21.7,12.5v-19.7l-21.7-12.5V846.6z M1262.4,838.3l2.8,5l2.8-1.7l1.5,2.6l-4.5,2.6l-4.5-7.7
			L1262.4,838.3z"/>
		<path class="st20" d="M1254.4,874.2l21.7,12.5v-19.7l-21.7-12.5V874.2z M1262.3,865.9l2.8,5l3-1.7l1.5,2.6l0,0l-4.5,2.6l-4.5-7.7
			L1262.3,865.9z"/>
		<path class="st20" d="M1254.6,758.1v19.7l21.7,12.5v-19.7L1254.6,758.1z M1262.7,769.4L1262.7,769.4l2.8,5.1l3-1.7l1.5,2.6
			l-4.5,2.6l-4.5-7.7L1262.7,769.4z"/>
		<path class="st20" d="M1129.4,774.3l21.7,12.5v-19.7l-21.7-12.5V774.3z M1137.3,766l2.8,5l2.8-1.7l1.5,2.6l-4.5,2.6l0,0l-4.5-7.7
			L1137.3,766z"/>
		<path class="st20" d="M1129.2,802L1129.2,802l21.7,12.5v-19.7l-21.7-12.5l0,0V802z M1137.3,793.8l2.8,5.1l3-1.7l1.5,2.6l0,0
			l-4.5,2.6l-4.5-7.7l0,0L1137.3,793.8z"/>
		<path class="st20" d="M1129.1,864.6v19.7l0,0l21.7,12.5v-19.7L1129.1,864.6z M1137.1,876L1137.1,876l2.8,5.1l3-1.7l1.5,2.6l0,0
			l-4.5,2.6l-1.7-2.8l-2.8-4.9L1137.1,876z"/>
		<path class="st20" d="M1254.2,936.9v19.7l0,0l21.7,12.5v-19.7L1254.2,936.9z M1262.1,948.2l1.1,1.8l1.8,3.2l3-1.7l1.5,2.6
			l-4.5,2.6l-4.5-7.7L1262.1,948.2z"/>
		<polygon class="st6" points="1269.4,954.3 1267.9,951.7 1264.9,953.3 1264.9,953.3 1263.2,950.1 1262.1,948.2 1260.5,949.2 
			1264.9,956.9 		"/>
		<polygon class="st6" points="1178,830.2 1194.1,839.5 1194.2,819.9 1178,810.5 		"/>
		<polygon class="st6" points="1178.1,802.4 1194.2,811.7 1194.2,792.1 1178.1,782.7 		"/>
		<polygon class="st6" points="1269.8,844.3 1268.2,841.5 1265.3,843.2 1262.4,838.2 1260.8,839.1 1265.3,846.8 		"/>
		<polygon class="st6" points="1269.7,872 1269.7,872 1268.1,869.4 1265.3,871 1262.3,865.9 1260.8,866.9 1265.3,874.6 		"/>
		<polygon class="st6" points="1069.1,786.7 1052.9,777.4 1052.8,797 1069,806.3 		"/>
		<polygon class="st6" points="1144.6,850 1160.9,859.3 1160.9,839.7 1144.8,830.4 		"/>
		<polygon class="st6" points="1172.8,866.3 1189,875.6 1189,856 1172.9,846.6 		"/>
		<polygon class="st6" points="1231.5,880.5 1231.5,900.1 1247.6,909.5 1247.8,889.8 		"/>
		<polygon class="st6" points="1259.7,916.5 1275.9,925.8 1275.9,906.2 1259.8,896.8 		"/>
		<polygon class="st6" points="1260.8,653.9 1260.8,656.5 1276.6,665.6 1276.6,663.1 		"/>
		<polygon class="st6" points="1260.7,669.5 1276.6,678.6 1276.6,676.1 1260.7,666.9 		"/>
		<polygon class="st6" points="1260.8,660.8 1276.6,670 1276.6,667.4 1260.8,658.3 		"/>
		<polygon class="st6" points="1260.7,665.1 1276.6,674.3 1276.6,671.8 1260.7,662.7 		"/>
		<path class="st13" d="M1297.5,646l-230.2-132.8c-1.3-0.9-3.2-1.2-4.6-0.5l0,0l-17.2,12.3l0,0c1.5-0.7,3.3-0.5,4.6,0.5l230.2,133
			c2.1,1.4,3.9,3.3,5,5.7l18.1-10.4C1302.3,650.6,1300.3,647.9,1297.5,646z"/>
		<path class="st10" d="M1285.2,664c0.9,1.8,1.4,3.8,1.5,5.7l-0.9,314.5c0.1,1.7-0.6,3.2-1.8,4.1l0,0l17.4-12.4l0,0
			c1.2-0.9,1.8-2.5,1.7-4l0.9-314.5c0-1.3-0.2-2.6-0.7-3.8L1285.2,664z"/>
		<polygon class="st2" points="1008.8,777.1 1008.8,788.4 883.2,714.3 883.2,703.1 		"/>
		<polygon class="st2" points="977.2,721.6 977.2,732.7 883.3,677.1 883.3,665.8 		"/>
		<polygon class="st2" points="1062.9,791.2 1062.9,802.5 883.2,697.2 883.3,686 		"/>
		<polygon class="st2" points="1063.1,754.1 1062.9,765.2 883.3,659.9 883.5,648.8 		"/>
	</g>
	<g id="freepik--character-2--inject-16">
		<path class="st4" d="M666.9,280.6c-3.9-2.2-7.2-0.5-7.2,4.1l-1.3,147.5c0.2,5.1,3,9.7,7.2,12.4l177.6,102.5
			c3.9,2.4,7.2,0.5,7.2-4.1l1.3-147.5c-0.2-5.1-3-9.7-7.2-12.4L666.9,280.6z"/>
		<polygon class="st6" points="723.2,355.7 675,393.7 674.9,430.8 835.3,523.4 835.4,486.4 804.8,425.6 777.4,446.9 787.1,477 
			773,450.3 		"/>
		<path class="st6" d="M775.8,374.4c-7.6-4.4-13.7-0.8-13.7,7.8c0.5,9.6,5.6,18.4,13.6,23.6c7.6,4.4,13.7,0.8,13.7-7.8
			C789,388.5,783.9,379.6,775.8,374.4z"/>
	</g>
	<g id="freepik--character-1--inject-16">
		<path class="st21" d="M559.7,541.7c0,0,1.9-7.9-3.1-9.1c0,0,4.4-9.1-1.2-10.9c-5.4-1.8-12.4,16.5-20.4,23.9
			c-1.4,1.7-10.9,10.1-12.1,7.3l0,0l-12.9,5c-0.5,3.7-1.7,7.2-3.7,10.3c-13.9,21.1-29.6,31.1-41.3,46.2l-11.4-11.1L432,633.4
			l21.2,16c10.7,7.8,25.6,5.7,33.4-5c0.2-0.2,0.4-0.6,0.6-0.8l39.3-58.4c1.7-2.5,3.9-4.6,6.5-6.2c6.3-3.7,18.2-11.1,22.7-16.7
			C561.9,555,562.6,546.9,559.7,541.7z"/>
		<path class="st4" d="M387.2,551.8c21.8-0.9,51.3,34.3,67.8,50.9c-1.3,20.4-23.2,33.7-23.2,33.7c-15.6-10.8-30.5-22.4-44.8-34.9
			v-49.7H387.2z"/>
		<path class="st13" d="M387.2,551.8c21.8-0.9,51.3,34.3,67.8,50.9c-1.3,20.4-23.2,33.7-23.2,33.7c-15.6-10.8-30.5-22.4-44.8-34.9
			v-49.7H387.2z"/>
		<path class="st21" d="M398.5,1014.6c-0.4,9.2,0,20.1,0,20.1l-5.3,0.2c-5.2,0.2-9.7,3.7-11.5,8.5v0.4c-0.9,2.5-3.7,3.9-6.3,3.1l0,0
			c-1.3-0.5-2.5-1.4-3.1-2.6l-2.6-23.2L398.5,1014.6z"/>
		<path class="st2" d="M406.3,1095.1c14.1,6,35.6,7.2,44.5-7.2v3.9c-9,14.3-30.5,13.3-44.5,7.2s-11-16-23.6-21.2
			c-4.6-1.7-8.9-4.4-12.3-7.8c0-1.2-0.2-2.6-0.5-4.3c3.8,3.4,8.1,6.2,12.8,8.1C395.3,1079.3,392.2,1089.1,406.3,1095.1z"/>
		<path class="st4" d="M370,1053.1c0.6-2.7,0.6-5.6,0-8.3c-0.4-1.3-0.1-2.6,0.6-3.7l1.1-1.1l0.5,4.3c1.2,2.5,4.1,3.6,6.7,2.4
			c1.2-0.6,2.1-1.7,2.6-2.8v-0.4c1.8-4.9,6.3-8.3,11.5-8.5l5.3-0.2c1.7-0.1,3.2,0.8,3.9,2.4c5.7,13.5,19.8,28.7,30.7,35.5
			c7.9-0.2,17.9,6.5,17.9,14.6v0.8c-9,14.3-30.5,13.3-44.5,7.2c-14.1-6.2-11-16-23.6-21.1c-4.7-1.9-9-4.6-12.8-8.1
			C369.3,1061.8,369.4,1057.4,370,1053.1z"/>
		<path class="st6" d="M397.2,1064.2c-0.8,0.6-1.9,0.4-2.5-0.5c-0.4-0.5-0.5-1.2-0.2-1.7c4.3-5.7,11.2-8.6,18.4-7.9
			c0.7,0.9,1.5,1.9,2.4,2.6C408.3,1056,401.5,1058.8,397.2,1064.2z"/>
		<path class="st6" d="M391.7,1058.1c-0.6,0.7-1.7,0.8-2.4,0.2l0,0c-0.7-0.6-0.8-1.7-0.2-2.5c4.5-5.9,11.7-9,19.2-8.3
			c0.7,1.1,1.4,2,2.1,3C403.1,1049.6,396,1052.4,391.7,1058.1z"/>
		<path class="st6" d="M403,1070.4c-0.6,0.7-1.8,0.8-2.5,0.2s-0.8-1.7-0.2-2.5c4.1-5.6,10.9-8.6,17.9-8.1c0.9,0.9,1.8,1.9,2.6,2.6
			C413.9,1062,407.2,1064.8,403,1070.4z"/>
		<path class="st6" d="M433,1072.8c7.9-0.2,17.9,6.5,17.9,14.6v0.8c-8.8,14.2-29.8,13.3-43.9,7.5
			C408.1,1076.1,426.7,1072.5,433,1072.8z"/>
		<path class="st6" d="M408.9,1076.2c-0.6,0.7-1.8,0.8-2.5,0.2c-0.7-0.6-0.8-1.7-0.2-2.5c4.3-5.6,11-8.6,18-8.1
			c1.1,1.1,2.2,1.9,3.3,2.8C420.4,1067.7,413.3,1070.5,408.9,1076.2z"/>
		<path class="st21" d="M323.7,1031.8c-0.4,9.2,0,20.1,0,20.1l-5.3,0.2c-5.2,0.2-9.7,3.7-11.5,8.5v0.4c-0.9,2.6-3.7,3.9-6.3,3.1l0,0
			c-1.3-0.5-2.5-1.4-3.1-2.6l-2.6-23.2L323.7,1031.8z"/>
		<path class="st2" d="M331.5,1112.3c14.1,6,35.6,7.2,44.5-7.2v3.9c-9,14.3-30.5,13.3-44.5,7.2c-14.1-6.2-11-16-23.6-21.2
			c-4.6-1.7-8.8-4.3-12.3-7.7c0-1.2-0.2-2.6-0.5-4.3c3.8,3.4,8.1,6.2,12.8,8.2C320.5,1096.4,317.5,1106.3,331.5,1112.3z"/>
		<path class="st4" d="M295.2,1070.3c0.6-2.7,0.6-5.6,0-8.3c-0.4-1.3-0.1-2.6,0.6-3.7l1.1-1.1l0.5,4.3c1.2,2.5,4.3,3.6,6.7,2.4
			c1.2-0.6,2.1-1.5,2.5-2.8v-0.4c1.8-4.9,6.3-8.3,11.5-8.5l5.3-0.2c1.7-0.1,3.2,0.8,3.9,2.4c5.7,13.5,19.8,28.5,30.7,35.5
			c7.9-0.2,17.9,6.4,17.9,14.4v0.8c-9,14.3-30.5,13.3-44.5,7.2c-14.1-6-11-16-23.6-21.1c-4.7-1.9-9-4.7-12.8-8.2
			C294.5,1078.8,294.6,1074.5,295.2,1070.3z"/>
		<path class="st6" d="M322.4,1081.4c-0.6,0.7-1.8,0.8-2.5,0.2c-0.7-0.6-0.9-1.7-0.4-2.4l0,0c4.3-5.7,11.2-8.8,18.4-7.9
			c0.7,0.9,1.5,1.8,2.4,2.6C333.5,1073,326.7,1076,322.4,1081.4z"/>
		<path class="st6" d="M316.8,1075.1c-0.8,0.6-1.9,0.5-2.5-0.4c-0.4-0.6-0.5-1.3-0.1-1.9c4.5-5.8,11.7-8.9,19.1-8.2
			c0.7,1.1,1.4,2,2.1,3C328.3,1066.7,321.2,1069.6,316.8,1075.1z"/>
		<path class="st6" d="M328.2,1087.4c-0.6,0.7-1.8,0.8-2.5,0.2c-0.7-0.6-0.8-1.7-0.2-2.5c4.1-5.6,10.9-8.6,17.9-8.1
			c0.9,0.9,1.8,1.9,2.6,2.8C339.1,1079.2,332.3,1082,328.2,1087.4z"/>
		<path class="st6" d="M358.3,1089.8c7.9-0.2,17.9,6.4,17.9,14.4v0.8c-8.8,14.2-29.8,13.3-43.9,7.5
			C333.3,1093.3,351.9,1089.7,358.3,1089.8z"/>
		<path class="st6" d="M334.1,1093.3c-0.8,0.6-1.9,0.5-2.5-0.4c-0.4-0.6-0.5-1.3-0.1-1.9c4.1-5.6,11-8.6,18-8.2
			c1.1,1.1,2.2,1.9,3.3,2.8C345.6,1084.7,338.5,1087.6,334.1,1093.3z"/>
		<path class="st2" d="M416.6,722.7L414,902.3l-8.5,125.7c-21.4,13.6-43.7,0.7-43.7,0.7c-8.2-59.6-8.4-96.4-4-121.1l-2.6-95.9
			l-4.1,99.1l-20.2,127c-22,14.3-45.9-0.5-45.9-0.5c0-45.7-4.6-99.9,7.9-132.8c-8.9-101.8,6.2-180,6.2-180L416.6,722.7z"/>
		<path class="st14" d="M364.2,775.6l-8.9,36.1l1.3,46.3l13.3-74.6c19.2-7.5,21.7-18,21.7-18C383.4,771,374,774.4,364.2,775.6z"/>
		<path class="st4" d="M307.4,569.2c31.1-14.6,54.5-16.3,79.9-17.4c38.1,24.5,23.9,45,23.2,77.7c-0.4,36,3.6,71.9,11.7,107
			c-49.8,39.8-115.9,30.5-131.1,21C294.7,659.9,290.4,576.1,307.4,569.2z"/>
		<path class="st22" d="M307.4,569.2c31.1-14.6,54.5-16.3,79.9-17.4c38.1,24.5,23.9,45,23.2,77.7c-0.4,36,3.6,71.9,11.7,107
			c-49.8,39.8-115.9,30.5-131.1,21C294.7,659.9,290.4,576.1,307.4,569.2z"/>
		<path class="st18" d="M401.8,503.6c10.9-7.8,14-22.6,7.2-34.2c3-1.3,5.3-3.6,6.9-6.4c1.8-3.8,0-8.3-3.7-9.9
			c-1.9-0.8-4.1-0.9-6-0.1c1.5-4.6-0.1-9.7-4.3-12.3c-4.1-2.2-9.4-1.3-12.4,2.2c0.1-3-1.8-5.7-4.6-6.6c-2.8-0.7-5.9-0.6-8.6,0.5
			c-2.6,0.9-5.3,2.4-8.2,3.2c-4.9,1.2-9.7,1.8-14.7,1.9c-5,0-9.8,1.3-14.2,3.8c-4.1,2.6-7.8,9-5.6,14.3c-1.4-1.9-3.6-3-5.9-3.1
			c-2.2,0-4.5,0.9-6,2.6c3.1,1.9,6,3.9,9.1,5.9c-3.7-1.1-7.5,0.5-9.5,3.8c-1.4,3.1-2,6.5-1.7,9.9c0.4,12.9,2.7,25.8,6.9,38
			c2.1,6.4,7.9,17.2,14,20L401.8,503.6z"/>
		<path class="st21" d="M401.8,470.1c-5.9,5.7-13.6,8.9-21.8,9.1c-7.7,0-15.2-2.5-22.5-4.5c-0.6,3.6-2.4,6.9-5.1,9.4
			c-3,2.6-6.7,4.1-10.7,4.6c1.1,6.9,1.1,14,0,21c-0.2,1.5-1.2,2.7-2.6,3.2c-2.5,0.7-4.1-1.8-5.3-3.9c-1.3-2.4-3.1-4.5-5.3-6
			c-2.4-1.5-5.2-1.9-7.8-0.8c-2,1.1-3.6,2.8-4.1,5c-0.6,2.1-0.7,4.4-0.4,6.6c0.5,3.7,1.9,7.2,4.3,10.1c2.4,3,5.9,4.7,9.6,5
			c3.7,0.4,7.2-1.4,9.2-4.6l0.1,0.7c0.2,1.1,0.6,2.1,1.1,3.2c3.3,8.9,11,15.4,20.2,17.3c4.7,0.9,9.9,1.9,15.3,2.6
			c2.6,0.4,5.3,0.8,7.9,1.1c9.9,1.2,19.2-5.6,21-15.5C408.3,513.7,409.5,490.2,401.8,470.1z"/>
		<path class="st21" d="M340.6,528.3v35.2c6.7,9.1,17,14.8,28.3,15.7c3.6,0.5,7.2-0.5,10.2-2.6c3.4-3.1,3.7-8.3,0.7-11.6
			c-0.5-0.6-1.1-1.1-1.7-1.4c-1.3-0.8-2-2.2-2-3.8v-11.5c-5.3-0.8-10.7-1.8-15.3-2.6C351.5,543.7,343.9,537.2,340.6,528.3z"/>
		<path class="st23" d="M364.2,553.4c3.9,1.1,7.9,1.7,11.8,2.1v-7.1c-5.3-0.8-10.7-1.8-15.3-2.6c-8.6-1.8-15.9-7.7-19.5-15.7
			c0.8,5.4,3.3,10.7,7.1,14.7C352.8,548.9,358.1,552,364.2,553.4z"/>
		<polygon class="st23" points="384.3,500.3 397.2,516 385.4,520.1 		"/>
		<path class="st18" d="M366.1,502.2c0,2,1.5,3.6,3.6,3.6c2,0,3.6-1.5,3.6-3.6c0-2-1.5-3.6-3.6-3.6l0,0
			C367.6,498.7,366.1,500.2,366.1,502.2L366.1,502.2z"/>
		<path class="st18" d="M395.8,501.3c-0.1,2,1.3,3.7,3.2,3.9c2,0.1,3.7-1.3,3.9-3.2c0-0.2,0-0.4,0-0.6c0.1-2-1.3-3.7-3.2-3.9
			c-2-0.1-3.7,1.3-3.9,3.2C395.8,500.9,395.8,501,395.8,501.3z"/>
		<path class="st18" d="M393.9,485.5l9.5,1.1c-0.4-2.1-1.9-3.8-4-4.1C397.2,482.3,395.1,483.5,393.9,485.5z"/>
		<path class="st18" d="M372.7,485.5l-9.2,2.6c0-2.1,1.2-4,3.2-4.9C369,482.9,371.3,483.8,372.7,485.5z"/>
		<path class="st23" d="M370.7,525.3l9.9,4.9c-1.8,2.4-4.9,3.2-7.5,2.1C370.7,530.8,369.8,527.9,370.7,525.3z"/>
		<path class="st14" d="M370.7,525.3l9.9,4.9c-1.8,2.4-4.9,3.2-7.5,2.1C370.7,530.8,369.8,527.9,370.7,525.3z"/>
		<path class="st23" d="M376.5,532.5c-1.2,0.2-2.4,0.1-3.4-0.4c-1.9-1.1-3-3.2-2.6-5.3c1.4,0,2.8,0.5,3.9,1.3
			C375.6,529.3,376.4,530.9,376.5,532.5z"/>
		<path class="st21" d="M280.2,772.3l-43.9-77c-4-8.2-4.4-17.6-0.8-25.9l24.4-57.4c8.1-18.8,23.3-33.5,42.5-40.7l6.2-2.2
			c3.6,34.6-6.9,51-38.5,110.9c0,0,16.6,55.8,29.6,80.6c10.4,5,19.9,11.7,27.8,20.1c1.8,1.8,1.9,4.6,0.2,6.6l0,0
			c-1.4,1.8-3.8,2.2-5.8,1.3c-4.3-2.1-8.4-4.4-12.7-6.6c4.4,9.7,9.9,18.8,16.5,27.3c1.5,2,1.4,4.9-0.4,6.7l0,0
			c-1.2,1.2-2.8,1.8-4.5,1.5l-13.7-2c-8.1-1.2-15-6.3-18.6-13.6C284,792.5,281.2,782.5,280.2,772.3z"/>
		<path class="st4" d="M308.7,568.6c-26.8,9.1-41.9,15.3-63.1,72.8c10.7,16.5,39.8,14.2,39.8,14.2
			C323.5,598.2,308.7,568.6,308.7,568.6z"/>
		<path class="st13" d="M308.7,568.6c-26.8,9.1-41.9,15.3-63.1,72.8c10.7,16.5,39.8,14.2,39.8,14.2
			C323.5,598.2,308.7,568.6,308.7,568.6z"/>
		<path class="st21" d="M523,552.9c-0.2-0.8-0.1-1.7,0.1-2.5c2-7.2,4.1-14,0.2-16.8c-1.1-0.7-2.4-0.4-3.1,0.6
			c-0.1,0.1-0.1,0.2-0.2,0.4c-1.5,3.3-5.3,9.4-7.3,13.4c-1.3,3.2-2.2,6.5-2.6,9.8L523,552.9L523,552.9z"/>
	</g>
	<g>
		<polygon class="st4" points="577.1,365.6 644.7,510.4 526.1,542.5 458.5,397.7 		"/>
		<g class="st16">
			<polygon class="st6" points="577.1,365.6 644.7,510.4 526.1,542.5 458.5,397.7 			"/>
		</g>
		<path class="st6" d="M612.7,473.7l1.7,3.7c0,1.5-0.6,3-1.7,4c-2.6,2.8-6.9,3.4-10.2,1.5c-1.2-0.7-2.2-1.7-3.2-2.6
			c-0.4,1.8-1.2,3.4-2.4,5c-1.2,1.5-2.8,2.6-4.7,3c-3.3,0.8-6.9,0.4-9.8-1.5l-1.3-0.8c-4-2.8-7.1-6.7-9-11.2
			c-2.2-3.9-3.1-8.5-2.5-13c0.8-3.6,3.7-6.4,7.3-7c1.5-0.4,3.2-0.6,4.7-0.5c1.5,0,3.1,0.2,4.6,0.8l-7.1-15.2
			c-0.9-2.4-2.5-4.6-4.5-6.2l-0.4-0.2c-1.3-0.8-3-1.1-4.4-0.7c-1.5,0.4-2.7,1.4-3.1,2.8c0.6,0.1,1.2,0.4,1.7,0.6
			c0.6,0.4,1.1,0.7,1.5,1.2c1.1,1.1,1.8,2.2,2.4,3.6c1.1,2,1.4,4.1,1.1,6.4c-0.2,1.7-1.5,3-3.2,3.4c-1.7,0.4-3.3,0.1-4.7-0.7
			c-0.2-0.1-0.6-0.4-0.8-0.6c-2-1.5-3.7-3.7-4.7-6c-1.2-2.5-1.8-5.2-1.8-7.9c0-2.6,0.9-5.2,2.6-7.2c2.1-2.4,4.9-3.9,7.9-4.5
			c4.3-1.3,8.8-0.8,12.7,1.4l0.5,0.2c4.5,3.1,7.9,7.5,10.1,12.5l14.1,30.2c0.8,2,2.2,3.8,4,5C611,473.3,611.9,473.6,612.7,473.7z
			 M594.7,476.5c0.5-0.5,0.9-1.1,1.2-1.8l-5.3-11.1c-0.8-0.4-1.8-0.7-2.6-0.8c-0.8-0.1-1.7-0.1-2.4,0c-1.3,0.4-2.2,1.5-2.4,3
			c-0.1,2.1,0.4,4.3,1.4,6.2c0.8,1.9,2,3.4,3.7,4.7c0.2,0.1,0.5,0.4,0.7,0.5c1.1,0.7,2.5,0.9,3.7,0.6c0.7-0.2,1.4-0.6,1.9-1.1"/>
		<path class="st6" d="M578.5,487.3c0.4,1.2,0.4,2.5,0.4,3.7l-19.7,5.3c-1.1-0.8-1.9-1.9-2.6-3c-0.9-1.2-1.7-2.5-2.4-3.9
			c2.6-0.8,3.3-3,1.5-6.6c-0.8-1.9-1.9-3.7-3-5.3l-1.5-2.2l-16.2,4.4l0.7,2.5c0.5,1.8,0.9,3.6,1.7,5.3c0.7,1.7,1.8,3.1,3.3,4.1
			c1.2,0.7,2.7,0.8,4,0.5c0.6,1.3,1.1,2.7,1.4,4.1c0.4,1.2,0.4,2.5,0.4,3.7l-16.2,4.4c-1.1-0.8-2-1.9-2.8-3
			c-0.9-1.2-1.7-2.5-2.4-3.9c1.4-0.4,2.5-1.5,2.8-2.8c0.6-2,0.6-4.1,0-6.2l-14-58.5c-2.6-0.5-5.4-0.2-7.9,0.5
			c-1.4-2.7-2.1-5.7-2.1-8.8l19.9-5.3l43.7,61.1c1.3,2,3.1,3.8,5.1,5c1.3,0.9,3.1,1.3,4.6,1.1C577.8,484.7,578.2,486,578.5,487.3z
			 M532.2,470.4l13.1-3.6L527,440c-1.3-1.9-2.8-3.7-4.4-5.3L532.2,470.4"/>
	</g>
</g>
</svg>
