<?xml version="1.0" encoding="utf-8"?>
<!-- Generator: Adobe Illustrator 26.0.0, SVG Export Plug-In . SVG Version: 6.00 Build 0)  -->
<svg version="1.1" id="Layer_1" xmlns="http://www.w3.org/2000/svg" xmlns:xlink="http://www.w3.org/1999/xlink" x="0px" y="0px"
	 viewBox="0 0 88.3 28" style="enable-background:new 0 0 88.3 28;" xml:space="preserve">
<style type="text/css">
	.st0{fill:#DF5646;}
	.st1{fill:#1D2043;}
	.st2{fill:#212543;}
</style>
<g>
	<g>
		<path class="st0" d="M19.4,13.7c0,3.3-2.3,5.8-6,5.8H8.6V8h4.8C17.1,8,19.4,10.4,19.4,13.7z M13.1,16.3c1.6,0,2.7-0.9,2.7-2.6
			s-1.1-2.6-2.7-2.6h-0.9v5.2H13.1z"/>
		<path class="st0" d="M28.5,10.9h-4.1v1.4H28V15h-3.6v1.6h4.1v2.9h-7.7V8h7.7C28.5,8,28.5,10.9,28.5,10.9z"/>
		<path class="st0" d="M37.7,8h3.9l-3.9,11.6H33L29,8h3.9l2.4,8L37.7,8z"/>
	</g>
	<g>
		<path class="st1" d="M44.6,20.1c-0.9,0-1.7-0.8-1.7-1.7s0.8-1.7,1.7-1.7c0.9,0,1.7,0.8,1.7,1.7S45.6,20.1,44.6,20.1z M44.6,17.7
			c-0.4,0-0.7,0.3-0.7,0.7s0.3,0.7,0.7,0.7c0.4,0,0.7-0.3,0.7-0.7S45,17.7,44.6,17.7z"/>
	</g>
	<g>
		<path class="st2" d="M49.8,12.3h-1.1v-1.1h1.1v-0.6c0-1.9,0.9-2.7,3-2.7V9c-1.2,0-1.7,0.5-1.7,1.5v0.6H53v1.1h-1.8v7.2h-1.4V12.3z
			"/>
		<path class="st2" d="M58.2,19.6c-2.4,0-4.2-1.7-4.2-4.3c0-2.6,1.9-4.3,4.2-4.3c2.4,0,4.2,1.7,4.2,4.3C62.5,18,60.6,19.6,58.2,19.6
			z M58.2,18.4c1.4,0,2.9-1,2.9-3.1c0-2.1-1.4-3.1-2.8-3.1c-1.5,0-2.8,1-2.8,3.1C55.5,17.4,56.8,18.4,58.2,18.4z"/>
		<path class="st2" d="M64.3,8.2h1.4v11.3h-1.4V8.2z"/>
		<path class="st2" d="M67.8,8.9c0-0.5,0.4-0.9,0.9-0.9c0.5,0,0.9,0.4,0.9,0.9c0,0.5-0.4,0.9-0.9,0.9C68.3,9.8,67.8,9.4,67.8,8.9z
			 M68.1,11.2h1.4v8.3h-1.4V11.2z"/>
		<path class="st2" d="M75.5,19.6c-2.4,0-4.2-1.7-4.2-4.3c0-2.6,1.9-4.3,4.2-4.3c2.4,0,4.2,1.7,4.2,4.3C79.7,18,77.8,19.6,75.5,19.6
			z M75.5,18.4c1.4,0,2.9-1,2.9-3.1c0-2.1-1.4-3.1-2.8-3.1c-1.5,0-2.8,1-2.8,3.1C72.7,17.4,74,18.4,75.5,18.4z"/>
	</g>
</g>
</svg>
