<?xml version="1.0" encoding="utf-8"?>
<!-- Generator: Adobe Illustrator 26.0.0, SVG Export Plug-In . SVG Version: 6.00 Build 0)  -->
<svg version="1.1" id="Layer_1" xmlns="http://www.w3.org/2000/svg" xmlns:xlink="http://www.w3.org/1999/xlink" x="0px" y="0px"
	 viewBox="0 0 512 512" style="enable-background:new 0 0 512 512;" xml:space="preserve">
<style type="text/css">
	.st0{fill:#066173;}
</style>
<g>
	<g>
		<path class="st0" d="M373.4,0H138.6C62.2,0,0,62.2,0,138.6v234.8C0,449.8,62.2,512,138.6,512h234.8c76.4,0,138.6-62.2,138.6-138.6
			V138.6C512,62.2,449.8,0,373.4,0z M482,373.4c0,59.9-48.7,108.6-108.6,108.6H138.6C78.7,482,30,433.3,30,373.4V138.6
			C30,78.7,78.7,30,138.6,30h234.8C433.3,30,482,78.7,482,138.6V373.4z M219.2,248.3c16.4-7.2,24.7-22.5,24.7-46.1
			c0-34-19.4-51.1-58.3-51.1h-56c-4.5,0-8.3,1.1-11.6,3.2c-3.3,2.1-4.9,5-4.9,8.7v188.6c0,3.1,1.5,5.8,4.6,8.1
			c3.1,2.3,7.1,3.5,11.9,3.5H191c17.8,0,31.9-4.9,42.4-14.7c10.4-9.8,15.7-25.4,15.7-46.9v-6.1c0-13.5-2.5-23.8-7.5-30.9
			C236.5,257.6,229,252.1,219.2,248.3z M150.4,184.1h32.2c7.4,0,13.1,2.2,17.3,6.5c4.2,4.4,6.2,10.3,6.2,17.8c0,7.7-2,13.8-5.9,18.3
			s-9.7,6.7-17.3,6.7h-32.5V184.1z M211.3,298.5c0,21.1-9.4,31.6-28.1,31.6h-32.8v-67h32.8c9.3,0,16.3,2.4,21,7.3
			c4.7,4.8,7.1,12.7,7.1,23.5V298.5z M381.6,304c4.1,0,7.3-0.2,9.9-0.6c2.5-0.4,5.3-1.3,8.3-2.9c3-1.5,5.2-4.2,6.7-7.9
			s2.2-8.5,2.2-14.2c0-15.7-5.9-28.8-17.6-39.2s-25.8-15.6-42.2-15.6c-17.6,0-32.6,5.7-45,17.1c-12.4,11.4-18.6,25.1-18.6,40.9v24.7
			c0,17.8,6.5,32.2,19.6,43.1s29.9,16.4,50.6,16.4c14.5,0,26.6-2.7,36.4-8s14.7-10.7,14.7-16.1c0-3.5-1.4-7.1-4.1-10.9
			s-6.1-5.7-10.2-5.7c-2.1,0-6.8,1.8-13.9,5.5c-7.2,3.7-14.4,5.5-21.8,5.5c-10.3,0-18.5-2.6-24.7-7.7s-9.3-11.8-9.3-20.2V304H381.6z
			 M322.6,274.3L322.6,274.3c0.1-6.3,2.6-11.4,7.6-15.3s10.9-5.8,17.7-5.8c7.2,0,13.2,2,18.1,6c4.9,4,7.4,9.1,7.4,15.4
			c0,2.9-0.6,4.8-1.9,5.8s-3.4,1.5-6.5,1.5h-42.4L322.6,274.3L322.6,274.3z M394.4,177.9h-93.9c-8.3,0-15,6.7-15,15s6.7,15,15,15
			h93.9c8.3,0,15-6.7,15-15C409.4,184.6,402.7,177.9,394.4,177.9z"/>
	</g>
</g>
</svg>
